<svg width="30" height="30" viewBox="0 0 30 30" fill="none" xmlns="http://www.w3.org/2000/svg">
<g clip-path="url(#clip0_264_2465)">
<path d="M14.9737 30.0001C6.78433 29.9605 -0.0300774 23.4171 9.98458e-05 14.9897C0.0321632 6.40966 6.74095 -0.0244232 15.0227 6.96926e-05C23.4535 0.0245626 30.0039 6.59242 30.0001 15.0387C29.9963 23.5226 23.0989 29.9963 14.9737 30.0001ZM13.512 11.3648C13.5365 11.5324 13.5535 11.5946 13.5535 11.6549C13.5535 14.1927 13.5497 16.7287 13.5591 19.2665C13.5591 19.5774 13.4441 19.6829 13.1461 19.6791C12.535 19.6697 11.922 19.6622 11.3128 19.6848C10.7545 19.7055 10.266 19.9015 9.99444 20.4347C9.70964 20.9942 9.80772 21.518 10.1585 22.021C10.4924 22.4996 10.9997 22.5316 11.4995 22.5335C13.8345 22.5429 16.1714 22.5392 18.5063 22.5335C18.7081 22.5335 18.9137 22.509 19.1099 22.4638C19.704 22.3281 20.1944 21.6932 20.183 21.0979C20.1717 20.4667 19.7492 19.8638 19.1306 19.7771C18.4384 19.681 17.7274 19.6735 17.0276 19.6848C16.5787 19.6923 16.4411 19.5567 16.443 19.0989C16.4618 15.8564 16.4524 12.6158 16.4524 9.3733C16.4524 9.21693 16.4599 9.05866 16.4448 8.90417C16.3204 7.67576 15.3 7.11431 14.2079 7.69837C13.1876 8.24475 12.1823 8.82127 11.177 9.39403C11.0035 9.49388 10.8432 9.62954 10.7017 9.77273C10.0322 10.4435 10.2283 11.5475 11.0601 11.9978C11.6033 12.2898 12.0861 12.1655 12.5727 11.898C12.8669 11.7359 13.1574 11.5645 13.512 11.3629V11.3648Z" fill="black"/>
</g>
<defs>
<clipPath id="clip0_264_2465">
<rect width="30" height="30" fill="white"/>
</clipPath>
</defs>
</svg>
