<svg width="30" height="30" viewBox="0 0 30 30" fill="none" xmlns="http://www.w3.org/2000/svg">
<g clip-path="url(#clip0_264_2467)">
<path d="M30 14.9586C29.9623 22.9784 23.8481 29.968 15.0132 29.9982C6.51966 30.0284 0.0207893 23.3823 5.02814e-05 15.0038C-0.0206888 6.81036 6.37637 0.0245996 14.9699 6.82512e-05C23.356 -0.0244631 29.9001 6.56693 30 14.9586ZM14.6399 19.6573C14.5853 19.5799 14.5325 19.5044 14.4778 19.427C14.6626 19.31 14.87 19.2195 15.0283 19.0742C15.9842 18.1929 16.9269 17.2985 17.8771 16.4116C18.8085 15.5416 19.4665 14.5094 19.6418 13.2338C19.9925 10.6825 18.3918 8.29168 15.8843 7.65197C13.3277 7.00095 11.4386 8.27092 9.70216 9.88244C9.17991 10.3674 9.22516 11.1392 9.66634 11.6827C10.034 12.1356 10.8881 12.328 11.416 12.011C11.9231 11.7072 12.3926 11.3355 12.8734 10.9882C13.5012 10.5335 14.1875 10.2315 14.9718 10.3599C15.905 10.5127 16.5404 11.0675 16.7723 11.994C16.991 12.8715 16.7101 13.6131 16.0445 14.2358C13.9857 16.1606 11.942 18.1042 9.88693 20.0328C9.41181 20.4781 9.26664 21.0103 9.45141 21.6103C9.65314 22.267 10.1942 22.4972 10.8258 22.5576C10.9654 22.5708 11.1068 22.5652 11.2482 22.5652C13.7538 22.5652 16.2595 22.5652 18.7651 22.5652C18.9989 22.5652 19.2384 22.5652 19.4665 22.5218C20.2244 22.3821 20.675 21.7632 20.6015 20.9933C20.5261 20.1951 19.9586 19.7158 19.0347 19.7063C17.7979 19.6931 16.5593 19.7063 15.3224 19.7007C15.0924 19.7007 14.8643 19.6742 14.6343 19.661L14.6399 19.6573Z" fill="black"/>
</g>
<defs>
<clipPath id="clip0_264_2467">
<rect width="30" height="30" fill="white"/>
</clipPath>
</defs>
</svg>
