<svg xmlns="http://www.w3.org/2000/svg" viewBox="0 0 107 107"><g style="opacity:0.65"><path d="M37.48,54.5c0-.22,0-.43,0-.65a3.66,3.66,0,0,1,3.77-3.77c.54,0,1.09,0,2,0,0-2.41-.16-4.71,0-7,.64-7.49,8.61-12.29,15.47-9.83l3.52-3.51L80.08,11.9H11.9V80.08L28.59,63.4Z" style="fill:#5d9cbf"/><path d="M74.87,47.14,71,51a3.51,3.51,0,0,1,1.28,2.69c.05,5.07.06,10.15,0,15.23a3.57,3.57,0,0,1-3.67,3.58q-9.56,0-19.1,0L41.3,80.72,26.92,95.1H95.1V26.92Z" style="fill:#5d9cbf"/></g><rect x="26.14" y="25.96" width="9.99" height="55.43" style="fill:#fff;opacity:0.65"/><rect x="41.22" y="46.13" width="9.99" height="35.26" style="fill:#fff;opacity:0.65"/><rect x="56.31" y="40.05" width="9.99" height="41.33" style="fill:#fff;opacity:0.65"/><rect x="71.39" y="60.72" width="9.99" height="20.67" style="fill:#fff;opacity:0.65"/><path d="M95.22,7.17a1.23,1.23,0,0,0-.88.37L67.19,34.69a15.17,15.17,0,0,1,2.73,7.51L99.46,12.66a1.24,1.24,0,0,0,0-1.76L96.1,7.54A1.23,1.23,0,0,0,95.22,7.17Z" style="fill:#898989"/><path d="M66.75,50.08c.83,0,1.43,0,2,0a3.61,3.61,0,0,1,3.55,3.57c.05,5.07.06,10.15,0,15.23a3.57,3.57,0,0,1-3.67,3.58q-13.71,0-27.42,0a3.61,3.61,0,0,1-3.74-3.8q-.06-7.41,0-14.82a3.66,3.66,0,0,1,3.77-3.77c.54,0,1.09,0,2,0,0-2.41-.16-4.71,0-7,.68-8,9.7-12.91,16.83-9.24C64.59,36.17,66.66,40,66.75,45,66.78,46.61,66.75,48.26,66.75,50.08ZM49.37,50H60.44c0-2.19.15-4.31,0-6.4a5.56,5.56,0,0,0-11,0C49.22,45.68,49.37,47.8,49.37,50Z" style="fill:#727272"/><path d="M33.53,68.35l-26,26a1.24,1.24,0,0,0,0,1.76l3.36,3.36a1.23,1.23,0,0,0,1.76,0L36.35,75.77a6.08,6.08,0,0,1-2.81-5.24C33.54,69.8,33.54,69.08,33.53,68.35Z" style="fill:#898989"/></svg>