<?xml version="1.0" encoding="UTF-8"?><svg id="a" xmlns="http://www.w3.org/2000/svg" viewBox="0 0 157.47 163.32"><defs><style>.b{fill:#fff;}.c{fill:#1a1c1d;}</style></defs><polygon class="c" points="93.33 54.48 98.98 68.16 121.78 74.46 125.66 78.09 130.62 71.8 124.99 71.19 111.43 63.08 103.62 61.44 100.66 54.48 93.33 54.48"/><polygon class="c" points="94.04 19.49 98.72 28.87 107.05 28.5 105.03 39.21 107.37 42.04 112.18 42.04 117.31 34.85 118.36 26.68 123.46 25.17 117.07 17.63 105.51 14.64 94.04 19.49"/><g><g><path class="b" d="m154.95,104.55c-1.21-3.03-2.86-5.89-4.99-8.37-2.39-2.79-5.36-5.06-8.71-6.58-.5-.23-1-.43-1.51-.62-.04-.01-.07-.03-.11-.04-3.55-1.3-7.37-1.76-11.14-1.45-.02,0-.04,0-.06,0-.09,0-.18.02-.26.03-5.09.49-9.98,2.35-14.3,5.05-1.22-6.04-2.18-12.13-2.96-18.23-.02-.17-.04-.35-.05-.54,3.37.88,6.75,1.7,10.14,2.47.65.74,1.36,1.46,2.17,2.02,0,.02,0,.04-.01.06-.51,1.66-2.5,2.72-4.12,3.02-.9.06-1.62-.47-2.52.02-1.33.66-1.12,2.87.35,3.21.57.13,1.14.22,1.73.25,3.25,0,7.09-2.29,7.92-5.57,2.24-.26,3.97-2.48,4.58-4.68,1.06,1.41,1.27,3.46.89,5.15-.45,1.06-.58,2.43.67,2.97,3.76,1.13,3.33-6.39,2.27-8.39-.11-.38-.33-.82-.61-1.27.75-.1,1.4-.75,1.51-1.5.3-3.38-7.17-2.14-9.25-1.88-2.32-1.58-16.65-9.03-21.61-9.76-.39-1.25-.77-2.5-1.2-3.74.38-.28.63-.71.7-1.17.2-.3.32-.65.3-1.03-.27-4.14-.94-8.35-2.59-12.18.29-.42.53-.93.74-1.41.11.22.24.42.37.63.11.27.26.48.44.65,1.12,1.51,2.69,2.72,4.53,3.05,2.35.14,4.8-.67,6.48-2.35,1.22-1.11,1.66-2.67,2.6-3.99.33-.48.93-.54,1.41-.82.51-.29.91-.88.94-1.46.1-.73-.39-1.31-.53-1.99.14-1.93.89-4.06.65-6.03,1.32-.15,2.65-.29,3.98-.38,1.46,0,2.29-1.46,1.78-2.57,0-.03,0-.06-.02-.1-3.05-6.39-10.03-10.75-16.86-12.09-5.85-1.1-12.13,1.37-16.36,5.4-.11.15-.18.32-.24.49-.19.28-.31.62-.31.98.37,2.9,1.75,5.5,3.37,7.92-.19.35-.32.74-.38,1.16-.35,1.41-.82,2.88-.99,4.34-14.18-6.77-39.67.37-51.25,5.65-3.84,1.63-7.22,4.13-10.18,7.06-.62.23-1.11.78-1.15,1.46-.03.17-.04.34-.02.51-.18.77.2,1.62.94,1.97,1.32.63,2.61,1.33,3.9,2,3.44,1.76,6.89,3.52,10.33,5.28,3.71,1.89,7.4,3.82,11.12,5.69.24.12.49.18.74.18.36,0,.71-.12,1.01-.33,0,0,.01,0,.02,0,.38,0,.77-.12,1.11-.36-.02.02-.05.04-.07.05-.04.02-.07.04-.11.06,1.61-.8,3.41-1.64,5.32-2.44.05.11.1.21.17.31,1.04,1.33,2.97.8,4.49.69.12,1.11.56,2.23,1.16,2.79.08.42.27.81.56,1.14.72.82,2.01.83,2.9.29,1.46-.27,3.51-1.18,4.15-2.66-.18.77.24,1.63.96,1.97.67.33,1.46.17,1.98-.35-.05.08-.14.14-.22.2,1.23-.96,2.26-2.13,3.38-3.21,1.16-1.41,3.51-2.89,2.77-4.98-.27-.44-.57-.89-.89-1.31-.59-1.56-1.17-3.13-1.76-4.69-.33-.89.11-1.91,1.01-2.26.89-.34,1.93.11,2.26,1,.78,2.07,1.55,4.14,2.32,6.22l-.08-.22c.03.07.05.14.08.2.23.6.45,1.19.67,1.79-.18.35-.25.76-.17,1.17.22,1.01.95,1.34,1.78,1.36,0,.03.02.04.03.07,1.27,3.62,2.69,7.42,5.25,10.33,1.72,1.43,4.11,1.52,6.18,2.15.9.26,1.81.51,2.71.76.29,2.39.71,5.46,1.26,8.95-6.81-1.99-14.14-2.22-21.18-1.68-10.07.88-20.12,2.31-29.88,4.99-.89-1.43-1.78-2.86-2.68-4.29-1.16-1.87-2.37-3.71-3.5-5.61-.49-.82-1.51-1.17-2.38-.7-.81.44-1.19,1.55-.7,2.38,1.25,2.1,2.6,4.16,3.89,6.24.89,1.43,1.79,2.86,2.68,4.29-1.19,1.64-2.36,3.28-3.51,4.94-2.47-1.95-5.34-3.41-8.39-4.19-3.41-.88-6.94-.95-10.41-.35-1.08.19-2.14.44-3.19.76-3.2.98-6.22,2.46-8.99,4.34-.02.01-.04.03-.06.04-.09.06-.18.12-.27.18-2.92,2.03-5.55,4.46-7.87,7.15-2.37,2.75-4.39,5.78-6.1,8.99-1.67,3.14-3.02,6.47-4,9.9-1.01,3.53-1.64,7.15-1.85,10.81-.19,3.2-.04,6.43.51,9.59.57,3.3,1.54,6.5,3,9.51,1.48,3.03,3.47,5.79,5.93,8.09,2.23,2.09,4.87,3.7,7.73,4.76,2.58.93,5.3,1.42,8.04,1.42.27,0,.53,0,.8-.01,3.44-.12,6.84-.92,10.01-2.28,3.1-1.33,6-3.11,8.61-5.26,2.43-2,4.64-4.25,6.6-6.71,1.88-2.37,3.52-4.91,4.94-7.58.54-1.02,1.07-2.1,1.56-3.2,1.21-2.73,2.2-5.57,2.92-8.47.15-.6.28-1.2.4-1.8,2.9-.15,5.82-.21,8.79-.17,3.65.16,7.24.39,10.82,1.25.29.08.58.06.85-.02.73.05,1.45-.39,1.74-1.1,2.05-3.86,4.1-7.93,6.22-11.8,2.71-4.73,5.91-9.31,9.08-13.77,3.4-4.6,6.72-9.39,11.11-13.14.33,1.78.68,3.6,1.06,5.45-3.64,2.78-6.81,6.15-9.46,9.89-3.86,5.44-6.61,11.7-8,18.23-1.31,6.13-1.45,12.6.04,18.71,1.18,4.87,3.38,9.53,6.71,13.3,2.94,3.32,6.71,5.86,10.93,7.24,2.57.84,5.26,1.24,7.96,1.24,1.93,0,3.86-.2,5.76-.6,2.78-.57,5.47-1.54,8.01-2.8,1.52-.76,2.99-1.62,4.4-2.58.68-.46,1.35-.95,2-1.45.29-.22.57-.45.86-.68.02-.02.04-.04.07-.06.03-.02.06-.04.09-.07.06-.05.12-.1.18-.15.21-.18.43-.36.64-.54,1.12-.96,2.18-1.99,3.2-3.06,2.35-2.48,4.44-5.22,6.2-8.15,3.46-5.75,5.81-12.18,6.7-18.84.89-6.61.38-13.57-2.11-19.79Zm-39.14-69.46c-1.85,1.13-2.19,3.46-3.66,4.92-2.21,1.9-4.24,1.34-5.55-.32-.19-3.16-.1-6.12.18-9.37,2.44-.69,4.94-1.15,7.44-1.58.7-.08,1.39-.16,2.09-.25.21,2.23-1.02,4.39-.51,6.6Zm-6.51-18.5c4.53,1.32,9.01,3.96,11.86,7.81-.06,0-.12,0-.18,0-3.26.43-6.54.7-9.79,1.3-2.08.43-4.18.83-6.19,1.5-.31.09-.57.27-.77.5-1.72-.15-3.51-.25-5.23-.53-.58-.89-1.15-1.82-1.79-2.67-.77-1.32-1.35-2.78-1.79-4.24.56-.47,1.1-1,1.69-1.26,3.47-2.32,8.01-3.53,12.18-2.41Zm-8.65,20.41c-.18.41-.35.79-.53,1.09-.02.03-.03.07-.05.1-.67-.86-1.42-1.65-2.24-2.35.86.56,1.81.97,2.82,1.15Zm2.21,31.03c-.7-.21-1.48-.29-2.12-.66-.71-.68-1.1-1.62-1.59-2.46-.93-1.62-1.69-3.32-2.29-5.08-.14-.39-.27-.79-.41-1.19.9-.28,1.8-.59,2.68-.94.43-.17.87-.34,1.31-.49.08.21.16.43.22.64.79,2.3,1.37,4.69,2.3,6.93.79,2.01,3.67,1.07,3.39-.82,6.54,2.34,12.84,5.26,18.79,8.95.84.5,1.82.24,2.71.08.02,0,.04,0,.06,0-.23.84-.51,1.66-1.05,2.34-1.14,1.28-2.55-.69-3.35-1.52-.22-.27-.46-.44-.72-.55-.29-.24-.68-.42-1.19-.46-6.22-1.28-12.54-3.18-18.73-4.77Zm40.02,74.2s-.06.08-.09.12c0,0-.03.04-.05.07.03-.04.06-.08.09-.12.02-.02.03-.04.05-.06-1.06,1.41-2.21,2.75-3.44,4.02-1.15,1.17-2.37,2.26-3.65,3.28-1.01.8-2.25,1.66-3.55,2.43-.91.54-2.05,1.14-3.22,1.66-1.1.48-2.23.89-3.38,1.24-1.01.29-2.03.52-3.06.68-.99.15-1.98.24-2.98.26-.84.01-1.68-.02-2.51-.1-.86-.09-1.71-.24-2.55-.43-.89-.22-1.77-.5-2.63-.84-.61-.25-1.42-.63-2.21-1.07-.66-.38-1.3-.8-1.92-1.25-.68-.51-1.32-1.06-1.93-1.65-.65-.65-1.26-1.33-1.83-2.04-.48-.61-1.05-1.44-1.56-2.3-.47-.8-.9-1.64-1.29-2.5-.46-1.06-.86-2.15-1.19-3.26-.34-1.19-.61-2.4-.8-3.61-.22-1.42-.34-2.85-.38-4.29-.03-1.64.04-3.28.22-4.92.17-1.59.5-3.39.93-5.16.41-1.68,1.02-3.55,1.74-5.38.62-1.56,1.44-3.29,2.37-4.97.91-1.62,1.92-3.19,3.04-4.68,1.08-1.44,2.25-2.81,3.51-4.11.52-.53,1.09-1.08,1.71-1.63,2.9,12.12,6.9,23.84,12.02,28.13,1.9,1.27,3.85-1.59,1.98-2.89-2.26-2.04-3.61-5-4.84-7.76-2.52-6.49-4.53-13.15-6.15-19.91.57-.41,1.15-.8,1.74-1.18.02,0,.03-.02.05-.03.14-.09.29-.18.43-.27h.02s.05-.04.1-.07c.01,0,.03-.02.04-.02,1.08-.64,2.22-1.22,3.38-1.74,1.05-.45,2.13-.84,3.22-1.17,1-.28,2.01-.51,3.03-.68,1.01-.15,2.03-.25,3.05-.27.69-.01,1.61.02,2.53.11.93.1,1.85.27,2.75.49.8.21,1.59.46,2.36.77.71.29,1.4.62,2.07.99l.04.02s.07.04.11.06c.64.37,1.3.8,1.94,1.27.67.5,1.3,1.05,1.91,1.63.61.6,1.19,1.24,1.73,1.91.59.76,1.14,1.55,1.64,2.37.5.84.98,1.78,1.41,2.75.42.98.78,1.99,1.09,3.01l.02.07s.02.06.03.08c.32,1.15.59,2.36.79,3.57.22,1.42.34,2.85.38,4.29.03,1.64-.04,3.27-.22,4.89-.18,1.58-.49,3.37-.93,5.14-.41,1.66-1.01,3.53-1.72,5.35-.69,1.71-1.49,3.42-2.41,5.06-.9,1.6-1.89,3.14-2.98,4.61,0,0-.02.02-.03.04Zm-106.53,11.9c-1.02.44-2.06.83-3.12,1.15l-.06.02s-.05.01-.07.02c-.91.26-1.87.47-2.84.63-.95.14-1.9.23-2.85.25-.83.01-1.66-.02-2.48-.1-.9-.1-1.79-.26-2.67-.47-.8-.21-1.6-.46-2.37-.77-.59-.23-1.38-.6-2.14-1.02l-.04-.02s-.05-.03-.08-.04c-.66-.38-1.35-.83-2.01-1.32,0,0,0,0,0,0-.04-.03-.09-.06-.13-.1-.61-.47-1.28-1.05-1.91-1.66-.07-.07-.13-.13-.2-.2-.38-.39-.75-.8-1.11-1.21-.15-.17-.29-.34-.43-.52,0,0,0-.01-.02-.02-.2-.25-.39-.5-.58-.76-.43-.6-.84-1.21-1.21-1.84-.44-.75-.95-1.72-1.39-2.72l-.04-.09s-.01-.03-.02-.04c-.46-1.06-.86-2.19-1.2-3.33-.37-1.28-.66-2.58-.87-3.89-.06-.42-.12-.85-.17-1.27-.12-1.01-.2-2.02-.23-3.04,0-.1,0-.2,0-.3,0-.21,0-.43,0-.64,0-.28,0-.55,0-.83,0-.43.02-.86.04-1.29.04-.83.11-1.65.19-2.48.18-1.68.52-3.57.98-5.43.45-1.77,1.02-3.56,1.7-5.31.7-1.77,1.52-3.5,2.44-5.17l.02-.03s.02-.03.02-.04c.87-1.55,1.86-3.08,2.95-4.54,1-1.33,2.07-2.59,3.22-3.79,0,0,.03-.04.06-.06.03-.03.05-.05.08-.08,1.01-1.03,2.11-2.02,3.27-2.95,1.11-.87,2.26-1.68,3.47-2.4.85-.51,1.92-1.07,3.03-1.57h.02c.05-.03.1-.05.15-.08.91-.39,1.94-.77,2.98-1.08l.05-.02s.05-.02.08-.02c.72-.2,1.5-.39,2.28-.53.02,0,.04,0,.06,0,.16-.03.32-.06.48-.08.88-.13,1.77-.21,2.66-.25.89-.02,1.79,0,2.68.1.04,0,.14.01.24.03.62.07,1.45.22,2.28.41.86.21,1.71.48,2.53.81.58.23,1.36.59,2.11,1l.05.03s.06.03.09.05c.64.37,1.31.8,1.94,1.27.03.02.06.05.09.07-2.97,4.51-5.76,9.14-8.24,13.95-3.09,5.65-5.92,11.43-7.81,17.61-.26.71-.6,1.64-.62,2.44-.08.5.06,1.04.51,1.5,1.08,1.01,2.52.09,3.7-.25,2.19-.76,4.47-1.18,6.73-1.66,4.67-.85,9.3-1.47,13.97-1.86-.45,1.78-1.04,3.6-1.74,5.38-.63,1.59-1.46,3.34-2.4,5.04-.89,1.58-1.87,3.1-2.95,4.56-1.02,1.36-2.12,2.66-3.31,3.88-1.04,1.05-2.13,2.04-3.28,2.97-1.12.88-2.29,1.7-3.51,2.43-.99.58-2.01,1.11-3.07,1.59Zm13.88-28.68c-4.8.57-9.62,1.33-14.26,2.7,2.49-7.79,6.84-15.3,10.85-22.51,1.24-2.33,2.65-4.56,4.13-6.74.42.45.84.93,1.24,1.43.56.72,1.17,1.6,1.72,2.52.44.75.95,1.72,1.39,2.72l.03.07s.02.04.03.06c.44,1.03.84,2.14,1.18,3.26.36,1.23.67,2.61.89,4,.24,1.56.38,3.13.42,4.7.04,1.54-.04,3.3-.23,5.06-.07.65-.17,1.34-.29,2.04-2.37.2-4.74.44-7.1.69Zm11.49-.99c.18-1.31.32-2.62.39-3.93.17-3.1.02-6.23-.51-9.29-.28-1.65-.66-3.27-1.15-4.86,0-.02,0-.04-.01-.06-.03-.11-.06-.21-.1-.31-.41-1.27-.89-2.51-1.44-3.73v-.02c-.03-.05-.06-.11-.08-.16-.26-.55-.58-1.2-.93-1.83-1.11-2.01-2.46-3.87-4.03-5.54.97-1.37,1.94-2.75,2.89-4.14,1.78,2.86,3.56,5.71,5.35,8.57,3.29,5.26,6.57,10.53,9.85,15.79,2.1,3.36,4.2,6.72,6.29,10.08-5.46-.83-10.98-.88-16.5-.58Zm45.11-37.35c-2.76,2.49-5.23,5.29-7.41,8.31-6.24,8.2-12.07,16.71-16.64,25.96-.42.8-.82,1.61-1.23,2.42-.68-1.09-1.36-2.18-2.04-3.27-3.23-5.19-6.47-10.38-9.71-15.56-3.3-5.3-6.61-10.59-9.91-15.89-.19-.31-.38-.62-.58-.92.27-.08.55-.16.82-.2,3.65-.91,7.31-1.74,11.01-2.39,12.24-1.71,25.48-4.01,37.59-.07-.71.47-1.37,1.16-1.91,1.62Z"/><polygon class="b" points="15.62 152.47 15.62 152.47 15.62 152.47 15.62 152.47"/><path class="b" d="m111.43,31.68c-.02.93.75,1.8,1.7,1.8s1.77-.73,1.8-1.7c.02-.93-.75-1.8-1.7-1.8s-1.77.73-1.8,1.7Z"/></g><path class="c" d="m94.04,65.82c-.14,4.82-2.64,9.2-4.17,13.68-2.36,7.03-5.27,14.04-9.2,20.3-1.55,2.04-3.37,6.99-6.29,6.8-1.68-.31-3.82-1.2-4.22-3.04-.12-.72-.01-1.54.06-2.26.87-6.37,3.42-12.39,5.96-18.25,1.26-3.2,2.48-6.42,3.97-9.53.77-1.95,2.44-4.17,1.32-6.19-9.76,3.25-19.05,10.16-29.85,8.4-7.26-.98-11.1-8.79-9.09-15.49.05-.24.12-.5.21-.76-.23-.11-.45-.22-.67-.34-.85-.43-1.3-1.39-.9-2.3.37-.84,1.45-1.33,2.3-.9.01,0,.02.01.04.02,0,0,0,0,0,0,0,0,0,0,.01,0,0,0,.02.01.03.02,2.17,1.11,4.37,2.17,6.55,3.25,2.52,1.25,5.03,2.51,7.55,3.75.27.14.55.27.82.41,1.14-.71,2.64-1.23,3.43-1.82,5.69-2.84,11.49-5.18,17.86-4.82,6.19.28,14.13,1.17,14.27,9.05Z"/><path class="b" d="m53.4,78.33c-14.17-1.16-17-13.79-11.81-25.21,1.34-1.72,4.02.15,2.86,2,0-.01.02-.03.03-.04.04-.07.07-.13.1-.2-5.06,12.89-.04,21.11,14.15,20.05,7.44-.82,14.26-4.4,20.79-7.82,1.97-1.12,3.74,1.86,1.77,3.02-3.05,1.47-5.91,3.26-9.06,4.52-5.94,2.46-12.32,4.53-18.82,3.67Z"/><path class="b" d="m65.95,115.26c.62-8.37,2.89-16.55,5.32-24.55,1.65-5.61,3.38-11.2,5.51-16.66,1.08-2.42,1.67-5.25,3.36-7.32,1.78-1.26,3.74,1.05,2.33,2.67-5.33,12.46-9.21,25.51-12.06,38.74-.47,2.36-.82,4.77-.95,7.12-.06,2.28-3.46,2.31-3.5,0Z"/><path class="b" d="m75.99,110.91c-.84-.42-1.23-1.5-.79-2.35.95-1.79,1.89-3.59,2.87-5.36,1.56-2.84,3.01-5.75,4.39-8.68,2.87-5.92,5.01-11.69,7.65-17.59,1.28-3.59,3.25-7.33,2.76-11.23-.31-6.59-7.15-7.45-12.43-7.43-6.99.02-13.84,2.08-19.9,5.21-.98.61-2.13,1.56-3.22.55-2.66-3.01,4.58-4.87,6.48-5.88,4.95-1.9,10.18-3.25,15.51-3.37,9.35-.35,17.77,2.32,17.12,13.31-1.03,7.23-4.94,13.69-7.45,20.48-2.78,6.48-5.89,12.81-9.3,18.98-.86,1.4-1.52,4.3-3.7,3.36Z"/><path class="b" d="m85.69,122.47c-4.31-.63-8.48-2.06-12.69-3.15-2.39-.91-4.78-1.04-6.8-2.5-1.3-1.58.84-3.75,2.43-2.48-.12-.12-.27-.18-.44-.25,5.1,1.85,10.14,3.09,15.37,4.42-1.65-2.33-3.44-4.9-6.03-6.24-1.38-.68-3.94-1.05-3.23-3.15,1.06-2.56,5.04.16,6.54,1.06,2.17,1.56,12,12.43,4.85,12.3Z"/><path class="b" d="m73.05,108.93c-1.62-.51-3.11-1.41-4.04-2.58-1.31-1.84,1.41-3.88,2.8-2.1,1.12,1.11,2.73,1.64,4.29,1.71,1.02-.27,2.09.46,2.21,1.5.08,2.77-3.56,2.04-5.26,1.48Z"/><path class="c" d="m77.53,112.27c2.59,1.34,4.38,3.91,6.04,6.24-4.78-1.21-9.4-2.35-14.06-3.96.15-2.13.48-4.29.91-6.42l.09-.42c.75.52,1.63.93,2.55,1.22.34.11.76.23,1.21.33-.55,1.98,1.93,2.35,3.27,3.01Z"/><path class="b" d="m68.75,105.53c-.91-.05-1.76-.89-1.66-1.84.27-2.52.54-5.05.8-7.57.11-1.05.22-2.11.34-3.17.05-.46.1-.93.15-1.39,0-.02,0-.04,0-.05-.65-.96-1.33-1.91-1.98-2.87-1.19-1.74-2.39-3.47-3.58-5.21-1.09-1.59-2.19-3.16-3.27-4.76-.53-.79-.35-1.89.45-2.43.77-.54,1.9-.35,2.43.44,2.15,3.18,4.35,6.33,6.52,9.5.83,1.22,1.67,2.43,2.5,3.65.32.47.51.96.45,1.54l-.04.32c-.06.59-.12,1.18-.19,1.77-.28,2.66-.56,5.33-.85,7.99-.09.82-.17,1.64-.26,2.45-.1.92-.8,1.66-1.75,1.66-.03,0-.06,0-.09,0Z"/><path class="b" d="m70.67,91.02c-1.2-.65-1.23-2.22-2.06-3.21-1.66-2.71-3.34-5.36-5.23-7.92-1.71-.41-1.68-3.06-.02-3.53.17-.63.66-1.16,1.32-1.32.59-.14,1.14.02,1.65.28.58-1.56,2.6-1.45,3.6-.36.05-1.07.96-2.04,2.05-2.04.64-.53,1.53-.8,2.34-.54.05.02.1.03.14.05.67-.86,1.14-2.16,2.43-2.09,1.02-.03,1.87,1.07,1.66,2.05-.66,2.44-1.47,4.85-2.22,7.27-.52,1.26-.55,3.3-2.25,3.47.27,1.81,2.05,5.3-1.09,5.38.69,1.52-.78,3.2-2.33,2.5Z"/><path class="b" d="m75.91,145.54c-3.39-.7-6.25-3-9.22-4.67-2-1.51-4.53-2.61-5.91-4.75-.63-1.76,1.11-3.17,1.84-4.6.95-1.3,1.57-2.63,1.52-4.27.27-2.35.56-4.7.91-7.03.16-1.16.36-2.28.47-3.37.11-1.41.04-3.45,1.97-3.43,1.21.01,1.9,1.3,1.64,2.36-.15,2.04-.48,4.07-.78,6.1-.37,2.63-.72,5.37-.93,7.96-.49,1.93-1.91,3.53-2.93,5.21,2.92,2.28,6.25,4.25,9.46,6.03-1.16-2.42-2.79-4.49-4.54-6.47-.78-2.17.05-4.55.4-6.74.5-2.54,1.03-5.1,1.73-7.59.3-1.31.96-3.11,2.66-2.59.89.28,1.45,1.29,1.14,2.2-1.26,4.27-2.38,8.69-2.75,13.13,2.02,1.98,9.26,11.96,3.31,12.53Z"/><path class="b" d="m72.64,142.68c-.55-.32-.95-.94-1.35-1.42-.03-.04-.07-.08-.1-.13-1.75-.67-3.13-2.17-4.79-3.08-2.14-1.25-3.28-1.92-1.9-4.44.67-1.7,1.24-3.43,1.58-5.23.21-1.1.43-2.61,1.77-2.79-.09-2.32-.58-4.75-.17-7.04.36-1.5,2.33-1.87,3.32-.76.83-.44,1.94-.06,2.38.75.81-.35,1.79.09,2.2.84.53.98.03,2.23-.27,3.21-1.44,4.31-2.23,8.94-4.05,13.07.05.07.1.14.15.22,2.16-.27,2.74,2.67,3.64,4.13,1,1.64-.66,3.69-2.41,2.67Z"/><path class="b" d="m143.12,119.95c-.95-.12-1.63-1.03-1.5-1.97.21-1.42.27-2.86.18-4.29-.45-4.12-1.92-8.83-5.72-11.02-2.02-.4-1.74-3.47.34-3.47,1.57.14,2.83,1.33,3.95,2.35,2.62,2.66,4.05,6.34,4.68,9.96.17,1.99,1.28,8.8-1.93,8.43Z"/><path class="b" d="m108.65,144.2c-4.04-5.45-7-12.19-5.42-19.06.37-1.28.19-2.98,1.39-3.82,1.4-.86,3.18.72,2.49,2.2,0,0,0,0,0,0,.03-.07.05-.14.07-.21-1.96,6.35-.35,12.4,3.44,17.63.81,1.03,1.84,2.54.48,3.59-.73.57-1.9.46-2.46-.32Z"/><path class="b" d="m15.43,142.71c-3.07-4.5-4.02-10.24-2.93-15.55.66-2.54,1.15-5.76,3.33-7.44.87-.4,1.93.07,2.29.93.45.98-.27,1.72-.68,2.52-2.59,5.44-2.64,12.28.75,17.4,1.4,1.82-1.38,3.96-2.77,2.15Z"/><path class="b" d="m94.48,32.29c-4.79-.3-8.94-3.02-12.78-5.66-4.8,1.4-9.94.65-13.9-2.53-4.71,2.46-10.1,1.16-14.41-1.45-1.36-.65-2.74-1.4-4.27-1.55-1.66,0-3.99.77-4.21-1.65,0-1.42,1.51-2.13,2.59-2.71,5.12-2.73,10.92-.74,15.5,2.15,3.47-1.92,8.08-1.78,11.67-.25,1.46.66,2.64,1.72,3.97,2.59,6.12-2.26,13.19.33,16.94,5.54.65.76,1.42,1.78,1.01,2.83.94,1.47-.55,3.04-2.11,2.7Zm-18.24-8.45c-1.95-1.56-4.16-2.95-6.76-2.82,1.99,1.42,4.25,2.74,6.76,2.82Zm-14.96-1.91c-2.36-1.31-4.76-2.78-7.52-2.99,2.45,1.11,4.79,2.73,7.52,2.99Z"/><path class="b" d="m72.73,24.33c-1.85-.41-5.03-2.04-2.9-4.15,1.03-.88,2.35-.14,3.35.39,1,.67,2.63,1.01,2.63,2.48,0,1.61-1.93,2.23-3.08,1.28Z"/><path class="b" d="m58.5,23.35c-1.49-.28-2.52-1.59-3.93-2.09-1.85-.74-1.06-3.66.92-3.34,1.36.22,2.35,1.24,3.51,1.9.87.1,1.56.85,1.56,1.74.03,1.08-1.01,1.95-2.06,1.8Z"/><path class="b" d="m58.83,23.85c-2.75-.59-1.56-4.05,1-3.59.95.04,1.75.77,1.75,1.75,0,1.5-1.51,1.89-2.75,1.84Z"/><path class="b" d="m75.4,25.09c-1.17-.36-2.23-1.35-1.89-2.51.22-.86,1.03-1.46,1.94-1.34,1.13.32,2.49,1.27,2.11,2.63-.24.89-1.26,1.52-2.15,1.22Z"/></g></svg>