<?xml version="1.0" encoding="UTF-8"?><svg id="a" xmlns="http://www.w3.org/2000/svg" viewBox="0 0 157.47 163.32"><defs><style>.b{fill:#fff;}.c{fill:#1a1c1d;}</style></defs><polygon class="c" points="93.33 54.48 98.98 68.16 121.78 74.46 125.66 78.09 130.62 71.8 124.99 71.19 111.43 63.08 103.62 61.44 100.66 54.48 93.33 54.48"/><polygon class="c" points="94.04 19.49 98.72 28.87 107.05 28.5 105.03 39.21 107.37 42.04 112.18 42.04 117.31 34.85 118.36 26.68 123.46 25.17 117.07 17.63 105.51 14.64 94.04 19.49"/><g><path class="b" d="m64.59,140.63c-.9-.32-1.34-1.2-1.85-1.95-.96-1.41-1.95-2.79-2.93-4.19-2.28-3.76-6.08-7.15-6.5-11.71-.03-1.27,1.15-1.9,2.03-2.58,1.78-1.24,3.39-2.68,5.03-4.06,1.41-5.87,4.44-11.13,6.82-16.63,2.33-5.67,4.83-11.26,8.1-16.45.61-2.03,3.72-1.35,3.41.77,2.37-.56,2.89,2.11,2.67,3.9-.05,3.18-.02,6.36.02,9.54.01,3.47.03,6.92-.03,10.39,0,1.27-.25,2.62-1.21,3.53-2.82,3.06-5.73,6.06-8.86,8.82-1.69,1.37-3.33,3.21-5.6,3.45-.33.53-.73,1.03-.92,1.63,1.53,2.88,4.33,5.69,3.55,9.2-.45,2.14-.51,6.99-3.72,6.36Zm-6.63-15c-.08-.32-.15-.64-.21-.96-.11-.64-.13-1.27-.06-1.89-.27.2-.53.4-.8.6.23.8.65,1.53,1.06,2.25Zm19.92-19.43c0-.09,0-.17,0-.26,0-.08,0-.15,0-.23-.05.12-.1.23-.15.35.05.04.1.09.15.13Z"/><path class="b" d="m83.09,127.87c-.37-.92.12-1.88.98-2.27.55-.25,1.08-.45,1.7-.39-.08,0-.16-.01-.24-.02.95,0,1.74.83,1.73,1.78.02,1.82-3.43,2.91-4.17.9Z"/><path class="b" d="m73.97,85.45c-10.59-1.68-24.89-3.18-32-12.05-2.7-3.5-3.37-8.08-3.12-12.39.23-2.5.67-5.05,1.67-7.37.16-.46.51-.87,1.02-1.06.87-.33,1.96.11,2.26,1.02.27.81-.01,1.29-.28,1.89-4.41,13.98,3.02,20.64,15.97,23.68,3.56.99,7.07,1.72,10.71,2.18,3.97.59,8.02,1.45,11.96.45.95,0,1.73.84,1.71,1.79-.28,3.18-7.64,2.02-9.89,1.86Z"/><path class="b" d="m82.24,86.91c-1.38-.15-1.72-1.55-1.47-2.72-.29-1.13.79-2.22,1.91-2.07,2.43.27,2.06,5.1-.44,4.79Z"/><path class="b" d="m79.96,130.41c-1.26-.12-2.64-.88-2.54-2.31,0-1.53,1.98-2.32,3.03-1.16,1.46,0,2.99-.67,3.93-1.8,1.53-1.69,4.11.6,2.61,2.33-1.71,1.95-4.41,3.18-7.03,2.94Z"/><path class="b" d="m138.02,138.33c-.79-.46-1.16-1.6-.63-2.39,1.79-2.88,3.55-5.93,4.25-9.28.41-1.5-.09-4.14,2.11-4.22.95,0,1.75.8,1.75,1.75-.21,2.88-.9,5.69-2.19,8.28-1.07,1.64-2.76,7.34-5.29,5.86Z"/><path class="b" d="m104.02,123.16c-.61-3.27,8.38-20.95,12.14-16.23.56.95.06,2.11-.9,2.56-1.33.91-2.37,2.16-3.26,3.48-1.95,3.13-4,6.47-4.48,10.18-.04,2.29-3.44,2.3-3.5,0Z"/><path class="b" d="m22.52,109c1.35-4.51,6.34-6.97,10.49-8.46.9-.31,1.91.34,2.15,1.22.53,2.3-2.69,2.46-4,3.31-2.08,1.04-4.08,2.46-5.25,4.52-.63,1.81-3.41,1.34-3.4-.59Z"/><path class="b" d="m94.65,33.22c-5.47-.53-10.23-3.64-14.99-6.12-5.87.97-9.54-1.48-14.15-4.65-5.9,2.77-10.78-.35-14.38-5.05-1.17-1.82-5.43-4.1-3.83-6.46.65-.86,1.81-.84,2.77-.62,1.48.27,2.95.56,4.43.86,1.68.34,3.39.68,5.01,1.28,2.16.77,3.85,2.35,5.8,3.5,7.26-.88,9.08.86,14.73,5.01,5.91-1.39,12.97.11,16.19,5.67.58,1.13,1.67,2.42,1.16,3.74.78,1.91-.97,3.18-2.75,2.83Zm-11.89-8.45s0-.03,0-.05c.03-.23.11-.45.22-.63-.4.04-.8.09-1.2.15.33.17.65.35.97.53Zm-5.03-1.01s.03,0,.05,0c-3.04-2.36-6.42-5.39-10.57-4.36,3.36,2.04,6.35,4.86,10.52,4.37Zm-16.56-3.76c1-.11,1.99-.36,2.91-.74-1.8-.81-3.21-2.28-4.99-3.14-1.84-.88-3.9-1.19-5.88-1.61,2.18,2.36,4.39,5.66,7.95,5.5Z"/><path class="b" d="m73.59,24.55c-1.69-.98-3.43-1.87-5.04-2.97-.52-.37-.99-.92-1.08-1.57-.2-1.8,1.74-2.48,3.16-1.79.8-.06,1.56.43,2.2.87,1.75.69,5.49,2.27,3.3,4.51-.33,1.04-1.62,1.49-2.54.95Z"/><path class="b" d="m75.7,25.66c-1.33-.63-3.42-.29-4.15-1.76-.38-.9.07-1.89.93-2.29,1.14-.46,2.41.27,3.53.51,1.12-.47,2.57.03,2.73,1.33.13,1.57-1.58,2.93-3.05,2.21Z"/><path class="b" d="m83.24,26.68c-1.16-.35-2.22-1.74-1.73-2.98.37-.87,1.42-1.3,2.29-.93,2.73.87,2.49,4.52-.57,3.91Z"/><path class="b" d="m58.46,20.57c-1.66-1.3-6.61-4.08-5.68-6.5.6-1.41,2.4-1.27,3.42-.36.89-.3,1.76.24,2.42.8.62.6,1.6,1.06,1.68,2.01,1.49-.4,3.05.37,4.5.71.6,0,1.19.29,1.52.85.99,2.17-1.36,3.21-3.14,2.31-.81,2.09-3.37,1.21-4.73.18Z"/><path class="b" d="m66.12,20.14c0-.95.8-1.75,1.75-1.75s1.75.8,1.75,1.75-.8,1.75-1.75,1.75-1.75-.8-1.75-1.75Z"/><g><path class="b" d="m154.95,104.55c-1.21-3.03-2.86-5.89-4.99-8.37-2.39-2.79-5.36-5.06-8.71-6.58-.5-.23-1-.43-1.51-.62-.04-.01-.07-.03-.11-.04-3.55-1.3-7.37-1.76-11.14-1.45-.02,0-.04,0-.06,0-.09,0-.18.02-.26.03-5.09.49-9.98,2.35-14.3,5.05-1.22-6.04-2.18-12.13-2.96-18.23-.02-.17-.04-.35-.05-.54,3.37.88,6.75,1.7,10.14,2.47.65.74,1.36,1.46,2.17,2.02,0,.02,0,.04-.01.06-.51,1.66-2.5,2.72-4.12,3.02-.9.06-1.62-.47-2.52.02-1.33.66-1.12,2.87.35,3.21.57.13,1.14.22,1.73.25,3.25,0,7.09-2.29,7.92-5.57,2.24-.26,3.97-2.48,4.58-4.68,1.06,1.41,1.27,3.46.89,5.15-.45,1.06-.58,2.43.67,2.97,3.76,1.13,3.33-6.39,2.27-8.39-.11-.38-.33-.82-.61-1.27.75-.1,1.4-.75,1.51-1.5.3-3.38-7.17-2.14-9.25-1.88-2.32-1.58-16.65-9.03-21.61-9.76-.39-1.25-.77-2.5-1.2-3.74.38-.28.63-.71.7-1.17.2-.3.32-.65.3-1.03-.27-4.14-.94-8.35-2.59-12.18.29-.42.53-.93.74-1.41.11.22.24.42.37.63.11.27.26.48.44.65,1.12,1.51,2.69,2.72,4.53,3.05,2.35.14,4.8-.67,6.48-2.35,1.22-1.11,1.66-2.67,2.6-3.99.33-.48.93-.54,1.41-.82.51-.29.91-.88.94-1.46.1-.73-.39-1.31-.53-1.99.14-1.93.89-4.06.65-6.03,1.32-.15,2.65-.29,3.98-.38,1.46,0,2.29-1.46,1.78-2.57,0-.03,0-.06-.02-.1-3.05-6.39-10.03-10.75-16.86-12.09-5.85-1.1-12.13,1.37-16.36,5.4-.11.15-.18.32-.24.49-.19.28-.31.62-.31.98.37,2.9,1.75,5.5,3.37,7.92-.19.35-.32.74-.38,1.16-.35,1.41-.82,2.88-.99,4.34-14.18-6.77-39.67.37-51.25,5.65-3.84,1.63-7.22,4.13-10.18,7.06-.62.23-1.11.78-1.15,1.46-.03.17-.04.34-.02.51-.18.77.2,1.62.94,1.97,1.32.63,2.61,1.33,3.9,2,3.44,1.76,6.89,3.52,10.33,5.28,3.71,1.89,7.4,3.82,11.12,5.69.24.12.49.18.74.18.36,0,.71-.12,1.01-.33,0,0,.01,0,.02,0,.38,0,.77-.12,1.11-.36-.02.02-.05.04-.07.05-.04.02-.07.04-.11.06,1.61-.8,3.41-1.64,5.32-2.44.05.11.1.21.17.31,1.04,1.33,2.97.8,4.49.69.12,1.11.56,2.23,1.16,2.79.08.42,2.58-2.03,2.88-1.7.72.82,1.32,1.03,2.22.5,1.46-.27,1.87,1.46,2.52-.02-.18.77.24,1.63.96,1.97.67.33,1.46.17,1.98-.35-.05.08-.14.14-.22.2,1.23-.96,2.26-2.13,3.38-3.21,1.16-1.41,3.51-2.89,2.77-4.98-.27-.44-.57-.89-.89-1.31-.59-1.56-1.17-3.13-1.76-4.69-.33-.89.11-1.91,1.01-2.26.89-.34,1.93.11,2.26,1,.78,2.07,1.55,4.14,2.32,6.22l-.08-.22c.03.07.05.14.08.2.23.6.45,1.19.67,1.79-.18.35-.25.76-.17,1.17.22,1.01.95,1.34,1.78,1.36,0,.03.02.04.03.07,1.27,3.62,2.69,7.42,5.25,10.33,1.72,1.43,4.11,1.52,6.18,2.15.9.26,1.81.51,2.71.76.29,2.39.71,5.46,1.26,8.95-6.81-1.99-14.14-2.22-21.18-1.68-10.07.88-20.12,2.31-29.88,4.99-.89-1.43-1.78-2.86-2.68-4.29-1.16-1.87-2.47-1.18-3.6-3.07-.49-.82-1.42-1.68-2.29-1.22-.81.44-1.17-.46-.68.36,1.25,2.1,2.6,4.16,3.89,6.24.89,1.43,1.79,2.86,2.68,4.29-1.19,1.64-2.36,3.28-3.51,4.94-2.47-1.95-5.34-3.41-8.39-4.19-3.41-.88-6.94-.95-10.41-.35-1.08.19-2.14.44-3.19.76-3.2.98-6.22,2.46-8.99,4.34-.02.01-.04.03-.06.04-.09.06-.18.12-.27.18-2.92,2.03-5.55,4.46-7.87,7.15-2.37,2.75-4.39,5.78-6.1,8.99-1.67,3.14-3.02,6.47-4,9.9-1.01,3.53-1.64,7.15-1.85,10.81-.19,3.2-.04,6.43.51,9.59.57,3.3,1.54,6.5,3,9.51,1.48,3.03,3.47,5.79,5.93,8.09,2.23,2.09,4.87,3.7,7.73,4.76,2.58.93,5.3,1.42,8.04,1.42.27,0,.53,0,.8-.01,3.44-.12,6.84-.92,10.01-2.28,3.1-1.33,6-3.11,8.61-5.26,2.43-2,4.64-4.25,6.6-6.71,1.88-2.37,3.52-4.91,4.94-7.58.54-1.02,1.07-2.1,1.56-3.2,1.21-2.73,2.2-5.57,2.92-8.47.15-.6.28-1.2.4-1.8,2.9-.15,5.82-.21,8.79-.17,3.65.16,7.24.39,10.82,1.25.29.08.58.06.85-.02.73.05,1.45-.39,1.74-1.1,2.05-3.86,4.1-7.93,6.22-11.8,2.71-4.73,5.91-9.31,9.08-13.77,3.4-4.6,6.72-9.39,11.11-13.14.33,1.78.68,3.6,1.06,5.45-3.64,2.78-6.81,6.15-9.46,9.89-3.86,5.44-6.61,11.7-8,18.23-1.31,6.13-1.45,12.6.04,18.71,1.18,4.87,3.38,9.53,6.71,13.3,2.94,3.32,6.71,5.86,10.93,7.24,2.57.84,5.26,1.24,7.96,1.24,1.93,0,3.86-.2,5.76-.6,2.78-.57,5.47-1.54,8.01-2.8,1.52-.76,2.99-1.62,4.4-2.58.68-.46,1.35-.95,2-1.45.29-.22.57-.45.86-.68.02-.02.04-.04.07-.06.03-.02.06-.04.09-.07.06-.05.12-.1.18-.15.21-.18.43-.36.64-.54,1.12-.96,2.18-1.99,3.2-3.06,2.35-2.48,4.44-5.22,6.2-8.15,3.46-5.75,5.81-12.18,6.7-18.84.89-6.61.38-13.57-2.11-19.79Zm-39.14-69.46c-1.85,1.13-2.19,3.46-3.66,4.92-2.21,1.9-4.24,1.34-5.55-.32-.19-3.16-.1-6.12.18-9.37,2.44-.69,4.94-1.15,7.44-1.58.7-.08,1.39-.16,2.09-.25.21,2.23-1.02,4.39-.51,6.6Zm-6.51-18.5c4.53,1.32,9.01,3.96,11.86,7.81-.06,0-.12,0-.18,0-3.26.43-6.54.7-9.79,1.3-2.08.43-4.18.83-6.19,1.5-.31.09-.57.27-.77.5-1.72-.15-3.51-.25-5.23-.53-.58-.89-1.15-1.82-1.79-2.67-.77-1.32-1.35-2.78-1.79-4.24.56-.47,1.1-1,1.69-1.26,3.47-2.32,8.01-3.53,12.18-2.41Zm-8.65,20.41c-.18.41-.35.79-.53,1.09-.02.03-.03.07-.05.1-.67-.86-1.42-1.65-2.24-2.35.86.56,1.81.97,2.82,1.15Zm2.21,31.03c-.7-.21-1.48-.29-2.12-.66-.71-.68-1.1-1.62-1.59-2.46-.93-1.62-1.69-3.32-2.29-5.08-.14-.39-.27-.79-.41-1.19.9-.28,1.8-.59,2.68-.94.43-.17.87-.34,1.31-.49.08.21.16.43.22.64.79,2.3,1.37,4.69,2.3,6.93.79,2.01,3.67,1.07,3.39-.82,6.54,2.34,12.84,5.26,18.79,8.95.84.5,1.82.24,2.71.08.02,0,.04,0,.06,0-.23.84-.51,1.66-1.05,2.34-1.14,1.28-2.55-.69-3.35-1.52-.22-.27-.46-.44-.72-.55-.29-.24-.68-.42-1.19-.46-6.22-1.28-12.54-3.18-18.73-4.77Zm40.02,74.2s-.06.08-.09.12c0,0-.03.04-.05.07.03-.04.06-.08.09-.12.02-.02.03-.04.05-.06-1.06,1.41-2.21,2.75-3.44,4.02-1.15,1.17-2.37,2.26-3.65,3.28-1.01.8-2.25,1.66-3.55,2.43-.91.54-2.05,1.14-3.22,1.66-1.1.48-2.23.89-3.38,1.24-1.01.29-2.03.52-3.06.68-.99.15-1.98.24-2.98.26-.84.01-1.68-.02-2.51-.1-.86-.09-1.71-.24-2.55-.43-.89-.22-1.77-.5-2.63-.84-.61-.25-1.42-.63-2.21-1.07-.66-.38-1.3-.8-1.92-1.25-.68-.51-1.32-1.06-1.93-1.65-.65-.65-1.26-1.33-1.83-2.04-.48-.61-1.05-1.44-1.56-2.3-.47-.8-.9-1.64-1.29-2.5-.46-1.06-.86-2.15-1.19-3.26-.34-1.19-.61-2.4-.8-3.61-.22-1.42-.34-2.85-.38-4.29-.03-1.64.04-3.28.22-4.92.17-1.59.5-3.39.93-5.16.41-1.68,1.02-3.55,1.74-5.38.62-1.56,1.44-3.29,2.37-4.97.91-1.62,1.92-3.19,3.04-4.68,1.08-1.44,2.25-2.81,3.51-4.11.52-.53,1.09-1.08,1.71-1.63,2.9,12.12,6.9,23.84,12.02,28.13,1.9,1.27,3.85-1.59,1.98-2.89-2.26-2.04-3.61-5-4.84-7.76-2.52-6.49-4.53-13.15-6.15-19.91.57-.41,1.15-.8,1.74-1.18.02,0,.03-.02.05-.03.14-.09.29-.18.43-.27h.02s.05-.04.1-.07c.01,0,.03-.02.04-.02,1.08-.64,2.22-1.22,3.38-1.74,1.05-.45,2.13-.84,3.22-1.17,1-.28,2.01-.51,3.03-.68,1.01-.15,2.03-.25,3.05-.27.69-.01,1.61.02,2.53.11.93.1,1.85.27,2.75.49.8.21,1.59.46,2.36.77.71.29,1.4.62,2.07.99l.04.02s.07.04.11.06c.64.37,1.3.8,1.94,1.27.67.5,1.3,1.05,1.91,1.63.61.6,1.19,1.24,1.73,1.91.59.76,1.14,1.55,1.64,2.37.5.84.98,1.78,1.41,2.75.42.98.78,1.99,1.09,3.01l.02.07s.02.06.03.08c.32,1.15.59,2.36.79,3.57.22,1.42.34,2.85.38,4.29.03,1.64-.04,3.27-.22,4.89-.18,1.58-.49,3.37-.93,5.14-.41,1.66-1.01,3.53-1.72,5.35-.69,1.71-1.49,3.42-2.41,5.06-.9,1.6-1.89,3.14-2.98,4.61,0,0-.02.02-.03.04Zm-106.53,11.9c-1.02.44-2.06.83-3.12,1.15l-.06.02s-.05.01-.07.02c-.91.26-1.87.47-2.84.63-.95.14-1.9.23-2.85.25-.83.01-1.66-.02-2.48-.1-.9-.1-1.79-.26-2.67-.47-.8-.21-1.6-.46-2.37-.77-.59-.23-1.38-.6-2.14-1.02l-.04-.02s-.05-.03-.08-.04c-.66-.38-1.35-.83-2.01-1.32,0,0,0,0,0,0-.04-.03-.09-.06-.13-.1-.61-.47-1.28-1.05-1.91-1.66-.07-.07-.13-.13-.2-.2-.38-.39-.75-.8-1.11-1.21-.15-.17-.29-.34-.43-.52,0,0,0-.01-.02-.02-.2-.25-.39-.5-.58-.76-.43-.6-.84-1.21-1.21-1.84-.44-.75-.95-1.72-1.39-2.72l-.04-.09s-.01-.03-.02-.04c-.46-1.06-.86-2.19-1.2-3.33-.37-1.28-.66-2.58-.87-3.89-.06-.42-.12-.85-.17-1.27-.12-1.01-.2-2.02-.23-3.04,0-.1,0-.2,0-.3,0-.21,0-.43,0-.64,0-.28,0-.55,0-.83,0-.43.02-.86.04-1.29.04-.83.11-1.65.19-2.48.18-1.68.52-3.57.98-5.43.45-1.77,1.02-3.56,1.7-5.31.7-1.77,1.52-3.5,2.44-5.17l.02-.03s.02-.03.02-.04c.87-1.55,1.86-3.08,2.95-4.54,1-1.33,2.07-2.59,3.22-3.79,0,0,.03-.04.06-.06.03-.03.05-.05.08-.08,1.01-1.03,2.11-2.02,3.27-2.95,1.11-.87,2.26-1.68,3.47-2.4.85-.51,1.92-1.07,3.03-1.57h.02c.05-.03.1-.05.15-.08.91-.39,1.94-.77,2.98-1.08l.05-.02s.05-.02.08-.02c.72-.2,1.5-.39,2.28-.53.02,0,.04,0,.06,0,.16-.03.32-.06.48-.08.88-.13,1.77-.21,2.66-.25.89-.02,1.79,0,2.68.1.04,0,.14.01.24.03.62.07,1.45.22,2.28.41.86.21,1.71.48,2.53.81.58.23,1.36.59,2.11,1l.05.03s.06.03.09.05c.64.37,1.31.8,1.94,1.27.03.02.06.05.09.07-2.97,4.51-5.76,9.14-8.24,13.95-3.09,5.65-5.92,11.43-7.81,17.61-.26.71-.6,1.64-.62,2.44-.08.5.06,1.04.51,1.5,1.08,1.01,2.52.09,3.7-.25,2.19-.76,4.47-1.18,6.73-1.66,4.67-.85,9.3-1.47,13.97-1.86-.45,1.78-1.04,3.6-1.74,5.38-.63,1.59-1.46,3.34-2.4,5.04-.89,1.58-1.87,3.1-2.95,4.56-1.02,1.36-2.12,2.66-3.31,3.88-1.04,1.05-2.13,2.04-3.28,2.97-1.12.88-2.29,1.7-3.51,2.43-.99.58-2.01,1.11-3.07,1.59Zm13.88-28.68c-4.8.57-9.62,1.33-14.26,2.7,2.49-7.79,6.84-15.3,10.85-22.51,1.24-2.33,2.65-4.56,4.13-6.74.42.45.84.93,1.24,1.43.56.72,1.17,1.6,1.72,2.52.44.75.95,1.72,1.39,2.72l.03.07s.02.04.03.06c.44,1.03.84,2.14,1.18,3.26.36,1.23.67,2.61.89,4,.24,1.56.38,3.13.42,4.7.04,1.54-.04,3.3-.23,5.06-.07.65-.17,1.34-.29,2.04-2.37.2-4.74.44-7.1.69Zm11.49-.99c.18-1.31.32-2.62.39-3.93.17-3.1.02-6.23-.51-9.29-.28-1.65-.66-3.27-1.15-4.86,0-.02,0-.04-.01-.06-.03-.11-.06-.21-.1-.31-.41-1.27-.89-2.51-1.44-3.73v-.02c-.03-.05-.06-.11-.08-.16-.26-.55-.58-1.2-.93-1.83-1.11-2.01-2.46-3.87-4.03-5.54.97-1.37,1.94-2.75,2.89-4.14,1.78,2.86,3.56,5.71,5.35,8.57,3.29,5.26,6.57,10.53,9.85,15.79,2.1,3.36,4.2,6.72,6.29,10.08-5.46-.83-10.98-.88-16.5-.58Zm45.11-37.35c-2.76,2.49-5.23,5.29-7.41,8.31-6.24,8.2-12.07,16.71-16.64,25.96-.42.8-.82,1.61-1.23,2.42-.68-1.09-1.36-2.18-2.04-3.27-3.23-5.19-6.47-10.38-9.71-15.56-3.3-5.3-6.61-10.59-9.91-15.89-.19-.31-.38-.62-.58-.92.27-.08.55-.16.82-.2,3.65-.91,7.31-1.74,11.01-2.39,12.24-1.71,25.48-4.01,37.59-.07-.71.47-1.37,1.16-1.91,1.62Z"/><polygon class="b" points="15.62 152.47 15.62 152.47 15.62 152.47 15.62 152.47"/></g><path class="b" d="m111.43,31.68c-.02.93.75,1.8,1.7,1.8s1.77-.73,1.8-1.7c.02-.93-.75-1.8-1.7-1.8s-1.77.73-1.8,1.7Z"/><path class="c" d="m97.6,75.45c2,4.65-.71,9.43-1.44,14.08-1.34,6.89-3.4,13.84-5.52,20.47-.96,4.37-2.82,8.46-4.43,12.61-.65,1.86.32,3.07-.9,4.67,2.13.29,2.69.14,4.79.23,1.2.19,1.88,1.65,1.2,2.68-.64.96-1.91.94-2.86,1.44-2.34.98-4.3,2.63-6.62,3.66-.8.43-1.79.76-2.63.23-1.67-1.14-.75-3.75-.28-5.32-1-1.88-.03-4.14-.04-6.16.23-3,.63-5.95,1.07-8.92,1.21-7.37.99-14.86,1.77-22.27.21-1.73.27-3.34.36-5.07-.04-1.51.45-3.2-.12-4.62-1.92-.07-3.92.09-5.86-.06-6.73-.52-12.96-2.49-19.43-3.78-11.67-3.12-16.64-8.81-14.58-21.1-.63-.51-.79-1.49-.41-2.2.48-.87,1.51-1.11,2.38-.7,1.12.53,2.23,1.1,3.34,1.65,1.61.8,3.21,1.59,4.82,2.39,1.39.69,2.78,1.38,4.18,2.07.2.1.38.24.51.41.43.19.88.34,1.35.42,3.85.88,7.8-.11,11.7.36,4.72.25,9.12,1.98,13.55,3.5,1.74-.73,3.65.57,5.25,1.21,3.54,1.86,7.28,4.29,8.86,8.12Z"/><path class="b" d="m85.39,127.69c-2.33-1.19-.12-3.92.35-5.64,3.53-8.33,5.35-17.23,7.54-25.98,1.28-5.87,3.84-11.62,3.75-17.7-1.04-10.53-17.53-12.58-25.87-14.59-3.46-.66-7-1.11-10.53-.83-1.69.08-4.66,1.13-4.88-1.42-.02-.98.77-1.73,1.72-1.78,3.64-.41,7.31-.55,10.95.04,6.7,1.01,13.34,2.61,19.7,4.96,6.27,2,12.36,7.05,12.44,14.1-.05,6.36-2.62,12.38-3.99,18.52-2.24,9.15-4.26,18.39-8.01,27.07-.62,1.44-1.03,4.03-3.17,3.27Z"/><path class="b" d="m77.13,139.56c-1.5-.58-1.32-2.69-1.3-3.97.1-3.68.54-7.33.85-11,.58-5.37,1-10.65,1.32-16.02.85-7.79,2.18-15.52,2.54-23.36.39-2.24,3.75-1.77,3.46.53-.4,5.06-.65,10.12-1.51,15.13-1,5.77-1.19,11.63-1.68,17.46-.51,5.64-1.2,11.26-1.48,16.91,1.3-1.41,3.52-.92,3.39,1.18-.19,1.25-1.62,1.77-2.51,2.36-.95.62-1.97,1.21-3.08.77Z"/><path class="b" d="m79.75,138.54c-.69-.43-.95-1.22-.76-1.99.22-.95,1.24-1.18,1.94-1.66,3.6-1.99,7.34-3.98,10.98-5.82-.06.03-.1.04-.14.07,2.7-1.76,4.61,2.13,1.54,3.13.03-.01.05-.02.07-.04.02,0,.03-.02.05-.02-3.66,1.85-7.28,3.79-10.87,5.77-.83.53-1.86,1.18-2.82.55Z"/><path class="b" d="m93.36,130.22c-1.51-1.5-3.94-1.76-5.95-1.97-1.47,0-3.52-.08-3.31-2.09.26-1.45,1.61-1.61,2.84-1.44,3.13.22,6.68.71,8.95,3.09,1.55,1.67-.93,4.06-2.53,2.42Z"/></g></svg>