<?xml version="1.0" encoding="UTF-8"?><svg id="a" xmlns="http://www.w3.org/2000/svg" viewBox="0 0 157.47 163.32"><defs><style>.b{fill:#fff;}.c{fill:#1a1c1d;}</style></defs><polygon class="c" points="93.33 54.48 98.98 68.16 121.78 74.46 125.66 78.09 130.62 71.8 124.99 71.19 111.43 63.08 103.62 61.44 100.66 54.48 93.33 54.48"/><polygon class="c" points="94.04 19.49 98.72 28.87 107.05 28.5 105.03 39.21 107.37 42.04 112.18 42.04 117.31 34.85 118.36 26.68 123.46 25.17 117.07 17.63 105.51 14.64 94.04 19.49"/><g><polygon class="c" points="57.39 85.07 59.56 88.55 74.33 85.13 72.68 81.83 70.04 79.56 57.73 83.34 57.39 85.07"/><path class="c" d="m84.67,142.5c.25,1.16-.75,2.3-1.93,2.16-3.84-.29-7.64-1.14-11.2-2.62-1.73-.91-1.49-3.07-1.68-4.74-.39-5.51-.9-11.01-1.61-16.49-.46-4.12-1.61-8.14-1.91-12.29-.49-4.25-.52-8.54-1.08-12.79-2.12-2.11-4.05-4.29-6.19-6.31-6.17-6.39-12.1-13.32-14.71-21.91-.84-2.95-2.18-6.36-1.64-9.46-.02,0-.03-.02-.04-.02-.84-.45-1.12-1.57-.66-2.39.48-.84,1.55-1.11,2.39-.65.27.14.54.28.81.41.23.06.44.16.63.3.12.05.23.11.34.17.6.3,1.19.59,1.79.89,1.09.54,2.18,1.08,3.27,1.62.7.35,1.4.7,2.11,1.04,2.05.39,4.75,2.18,5.94,2.69,1.8.97,3.73,1.85,5.47,2.97.82.41,1.64.82,2.46,1.22.86.43,1.11,1.59.66,2.39-.04.07-.08.13-.12.19.32,1.02.55,2.08.96,3.05,2.7,5.94,5.24,11.96,8.15,17.81,1.51,3.11,1.8,6.57,1.84,9.98-.1,3.39.32,6.99-.82,10.23-.14,8.84.45,17.84.06,26.64,2.59,1.37,5.64,3.04,6.71,5.9Z"/><g><path class="b" d="m82.16,77.02s.02-.02.03-.02c-.04.03-.08.06-.13.09.03-.02.06-.05.09-.07Z"/><polygon class="b" points="82.14 77 82.13 77.01 82.15 77 82.14 77"/><path class="b" d="m124.01,149.16c-3.25,1.07-7.58.94-10.09-1.62-1.11-1.53-3.6-.33-3.09,1.51,1.4,2.85,5.11,3.79,8.03,4.2,2.31.59,12.22-1.5,10.42-4.97-1.47-2.17-3.56.46-5.28.89Z"/><path class="b" d="m132.71,98.28c-1.86-.02-6.15-.23-5.62,2.66,1.4,3.5,4.85-2.41,11.05,4.16.67.67,1.8.68,2.47,0,2.51-2.75-5.67-6.83-7.91-6.82Z"/><path class="b" d="m154.95,104.55c-1.21-3.03-2.86-5.89-4.99-8.37-2.39-2.79-5.36-5.06-8.71-6.58-.5-.23-1-.43-1.51-.62-.04-.01-.07-.03-.11-.04-3.55-1.3-7.37-1.76-11.14-1.45-.02,0-.04,0-.06,0-.09,0-.18.02-.26.03-5.09.49-9.98,2.35-14.3,5.05-1.22-6.04-2.18-12.13-2.96-18.23-.02-.17-.04-.35-.05-.54,3.37.88,6.75,1.7,10.14,2.47.65.74,1.36,1.46,2.17,2.02,0,.02,0,.04-.01.06-.51,1.66-2.5,2.72-4.12,3.02-.9.06-1.62-.47-2.52.02-1.33.66-1.12,2.87.35,3.21.57.13,1.14.22,1.73.25,3.25,0,7.09-2.29,7.92-5.57,2.24-.26,3.97-2.48,4.58-4.68,1.06,1.41,1.27,3.46.89,5.15-.45,1.06-.58,2.43.67,2.97,3.76,1.13,3.33-6.39,2.27-8.39-.11-.38-.33-.82-.61-1.27.75-.1,1.4-.75,1.51-1.5.3-3.38-7.17-2.14-9.25-1.88-2.32-1.58-16.65-9.03-21.61-9.76-.39-1.25-.77-2.5-1.2-3.74.38-.28.63-.71.7-1.17.2-.3.32-.65.3-1.03-.27-4.14-.94-8.35-2.59-12.18.29-.42.53-.93.74-1.41.11.22.24.42.37.63.11.27.26.48.44.65,1.12,1.51,2.69,2.72,4.53,3.05,2.35.14,4.8-.67,6.48-2.35,1.22-1.11,1.66-2.67,2.6-3.99.33-.48.93-.54,1.41-.82.51-.29.91-.88.94-1.46.1-.73-.39-1.31-.53-1.99.14-1.93.89-4.06.65-6.03,1.32-.15,2.65-.29,3.98-.38,1.46,0,2.29-1.46,1.78-2.57,0-.03,0-.06-.02-.1-3.05-6.39-10.03-10.75-16.86-12.09-5.85-1.1-12.13,1.37-16.36,5.4-.11.15-.18.32-.24.49-.19.28-.31.62-.31.98.3,2.4,1.31,4.6,2.57,6.66-2.4-1.09-4.15-3.2-7.02-3.54-2.53-3.76-7.51-5.48-11.87-4.19-2.25-5.99-9.32-6.4-14.19-9.18-1.26-.82-2.09-2.08-3.04-3.22-.08-.11-.18-.2-.29-.29-.92-1.49-1.46-3.22-1.83-4.95-.41-.98-1.63-1.42-2.55-.88-1.3.82-1.08,2.6-.88,3.91,1.2,5.98,3.3,12.83,8.87,16.01,1.71,1.68,4.03,2.62,7.47,2.25,2.9,5.47,7.59,6.85,13.36,5.11,1.27,1.2,2.49,2.54,3.94,3.51-14.42-2.34-34.05,3.43-43.8,7.88-3.84,1.63-7.22,4.13-10.18,7.06-.62.23-1.11.78-1.15,1.46-.03.17-.04.34-.02.51-.18.77.2,1.62.94,1.97,1.32.63,2.61,1.33,3.9,2,1.64.84,3.29,1.68,4.94,2.52-2.59,5.68.22,12.41,2.71,17.7,2.69,5.83,6.37,11.08,10.6,15.87-1.03,1.43-2.06,2.87-3.07,4.33-2.47-1.95-5.34-3.41-8.39-4.19-3.41-.88-6.94-.95-10.41-.35-1.08.19-2.14.44-3.19.76-3.2.98-6.22,2.46-8.99,4.34-.02.01-.04.03-.06.04-.09.06-.18.12-.27.18-2.92,2.03-5.55,4.46-7.87,7.15-2.37,2.75-4.39,5.78-6.1,8.99-1.67,3.14-3.02,6.47-4,9.9-1.01,3.53-1.64,7.15-1.85,10.81-.19,3.2-.04,6.43.51,9.59.57,3.3,1.54,6.5,3,9.51,1.48,3.03,3.47,5.79,5.93,8.09,2.23,2.09,4.87,3.7,7.73,4.76,2.58.93,5.3,1.42,8.04,1.42.27,0,.53,0,.8-.01,3.44-.12,6.84-.92,10.01-2.28,3.1-1.33,6-3.11,8.61-5.26,2.43-2,4.64-4.25,6.6-6.71,1.88-2.37,3.52-4.91,4.94-7.58.54-1.02,1.07-2.1,1.56-3.2,1.21-2.73,2.2-5.57,2.92-8.47.15-.6.28-1.2.4-1.8,1.81-.09,3.62-.14,5.45-.16.46,4.44.88,8.89,1.21,13.35-.83.93-.54,2.76,1.06,2.95,5.17,1.05,10.41,1.55,15.5,3.14.82.26,1.73-.13,2.11-.9,2.18-.68.87-3.69.48-5.36-.48-1.69-1.52-3.17-3-4.14-1.07-.79-2.29-1.35-3.4-2.07.11-1.91.18-3.82.22-5.73.27.07.55.05.81-.03.73.05,1.45-.39,1.74-1.1,2.05-3.86,4.1-7.93,6.22-11.8,2.71-4.73,5.91-9.31,9.08-13.77,3.4-4.6,6.72-9.39,11.11-13.14.33,1.78.68,3.6,1.06,5.45-3.64,2.78-6.81,6.15-9.46,9.89-3.86,5.44-6.61,11.7-8,18.23-1.31,6.13-1.45,12.6.04,18.71,1.18,4.87,3.38,9.53,6.71,13.3,2.94,3.32,6.71,5.86,10.93,7.24,2.57.84,5.26,1.24,7.96,1.24,1.93,0,3.86-.2,5.76-.6,2.78-.57,5.47-1.54,8.01-2.8,1.52-.76,2.99-1.62,4.4-2.58.68-.46,1.35-.95,2-1.45.29-.22.57-.45.86-.68.02-.02.04-.04.07-.06.03-.02.06-.04.09-.07.06-.05.12-.1.18-.15.21-.18.43-.36.64-.54,1.12-.96,2.18-1.99,3.2-3.06,2.35-2.48,4.44-5.22,6.2-8.15,3.46-5.75,5.81-12.18,6.7-18.84.89-6.61.38-13.57-2.11-19.79Zm-39.14-69.46c-1.85,1.13-2.19,3.46-3.66,4.92-2.21,1.9-4.24,1.34-5.55-.32-.19-3.16-.1-6.12.18-9.37,2.44-.69,4.94-1.15,7.44-1.58.7-.08,1.39-.16,2.09-.25.21,2.23-1.02,4.39-.51,6.6Zm-18.69-16.08c3.47-2.32,8.01-3.53,12.18-2.41,4.53,1.32,9.01,3.96,11.86,7.81-.06,0-.12,0-.18,0-3.26.43-6.54.7-9.79,1.3-2.08.43-4.18.83-6.19,1.5-.31.09-.57.27-.77.5-1.72-.15-3.51-.25-5.23-.53-.58-.89-1.15-1.82-1.79-2.67-.77-1.32-1.35-2.78-1.79-4.24.56-.47,1.1-1,1.69-1.26Zm3.53,17.99c-.18.41-.35.79-.53,1.09-.02.03-.03.07-.05.1-.67-.86-1.42-1.65-2.24-2.35.86.56,1.81.97,2.82,1.15Zm-23.61,97.03c-.38.02-.78.07-1.15.13-1.21-.05-2.48-.15-3.62-.68-.39-.57-1.05-.85-1.69-.82-.16-1.61-.34-3.22-.51-4.83,2.4.11,4.78.25,7.14.59-.01,1.13-.02,2.26-.02,3.39.05.62-.08,1.42-.15,2.22Zm-6.14,2.07c.27-.04.53-.11.75-.26-.22.16-.48.23-.75.26,0,0,0,0,0,0Zm-3.03-27.62c1.35,2.16,2.7,4.32,4.05,6.49,1.79,2.87,3.59,5.75,5.38,8.62-.01.45-.02.89-.03,1.34-2.51-.34-5.04-.53-7.57-.59-.59-5.29-1.21-10.57-1.82-15.85Zm-1.53-13.28c.06-1.06-.85-1.71-1.75-1.74-.01-.01-.02-.03-.04-.04-1.71-1.55-3.38-3.19-5-4.88-.08-.13-.16-.25-.24-.38.27-.08.55-.16.82-.2,3.65-.91,7.31-1.74,11.01-2.39,1.05-.15,2.11-.3,3.17-.45.71,1.43,1.4,2.86,2.06,4.31,1.2,2.54,2.04,5.25,1.98,8.13-.24,6.58-.6,13.17-.86,19.75-2.57-4.11-5.13-8.23-7.7-12.34-.96-1.53-1.91-3.06-2.87-4.6-.2-1.73-.4-3.45-.59-5.18Zm16.71-24.16c-.06.15-.12.3-.18.45,0-.02,0-.05-.01-.07.02-.05.04-.11.07-.16.04-.07.08-.14.12-.21Zm-16.81-9.5c.13.02.25.06.38.1-.13-.05-.25-.08-.38-.1Zm8.54,19.27c.04-.13.09-.26.15-.38,0-.01.01-.03.02-.04.01-.02.03-.05.05-.07.62-1.06,1.35-2.08,2.12-3.03.38-.47.79-.93,1.19-1.39.36-.41.73-.82,1.13-1.2.25-.22.51-.42.77-.62.12-.09.25-.19.39-.25.88-.37,1.91-.07,2.34.82.38.8.09,1.88-.72,2.29-.02.01-.03.02-.05.04.02-.01.03-.02.05-.03-.03.02-.05.04-.08.06-.18.14-.35.28-.51.44-.54.55-1.03,1.14-1.52,1.72-.41.47-.77.97-1.14,1.47-.08.11-.15.22-.22.33-1.34.17-2.68.35-4.01.54-.02-.23-.02-.47.05-.69Zm23.13-11.4c.13.16.24.32.38.47,1.72,1.43,4.11,1.52,6.18,2.15.9.26,1.81.51,2.71.76.29,2.39.71,5.46,1.26,8.95-4.34-1.27-8.88-1.82-13.42-1.91,1.87-3.49,3.16-7.14,2.9-10.41Zm-3.85-37.71c-.12.51-.22,1.02-.28,1.54-.72-.34-1.48-.64-2.25-.92.87-.08,1.72-.29,2.53-.62Zm-7.91,16.26c.89-.34,1.93.11,2.26,1,.78,2.07,1.55,4.14,2.32,6.22l-.08-.22c.03.07.05.14.08.2.23.6.45,1.19.67,1.79-.18.35-.25.76-.17,1.17.22,1.01.95,1.34,1.78,1.36,0,.03.02.04.03.07.45,1.29.93,2.61,1.46,3.9-2.06-1.57-4.75-2.22-7.63-2.47-.45-.12-.9-.23-1.37-.32,1.21-1.26,2.93-2.62,2.28-4.44-.27-.44-.57-.89-.89-1.31-.59-1.56-1.17-3.13-1.76-4.69-.33-.89.11-1.91,1.01-2.26Zm-42.56,9.46c.06-.52.14-1.01.45-1.43.77.39,1.54.79,2.3,1.18,3.71,1.89,7.4,3.82,11.12,5.69.24.12.49.18.74.18.03,0,.06-.01.09-.01,2.27,1.56,7.16,2.28,8.06,4.44.17.25.38.42.59.54.24.97.79,2.01.96,2.84,1.25,3.81,2.98,7.4,4.76,10.98-5.15.81-10.26,1.86-15.29,3.24-.89-1.43-1.78-2.86-2.68-4.29-1.16-1.87-2.37-3.71-3.5-5.61-.49-.82-1.51-1.17-2.38-.7,0,0-.01,0-.02.01-3.2-5.44-5.77-11.64-5.22-17.06Zm11.27,76.25c-.63,1.59-1.46,3.34-2.4,5.04-.89,1.58-1.87,3.1-2.95,4.56-1.02,1.36-2.12,2.66-3.31,3.88-1.04,1.05-2.13,2.04-3.28,2.97-1.12.88-2.29,1.7-3.51,2.43-.99.58-2.01,1.11-3.07,1.59-1.02.44-2.06.83-3.12,1.15l-.06.02s-.05.01-.07.02c-.91.26-1.87.47-2.84.63-.95.14-1.9.23-2.85.25-.83.01-1.66-.02-2.48-.1-.9-.1-1.79-.26-2.67-.47-.8-.21-1.6-.46-2.37-.77-.59-.23-1.38-.6-2.14-1.02l-.04-.02s-.05-.03-.08-.04c-.66-.38-1.35-.83-2.01-1.32,0,0,0,0,0,0,0,0,0,0,0,0,0,0,0,0,0,0h0s0,0,0,0c-.04-.03-.09-.06-.13-.1-.61-.47-1.28-1.05-1.91-1.66-.07-.07-.13-.13-.2-.2-.38-.39-.75-.8-1.11-1.21-.15-.17-.29-.34-.43-.52,0,0,0-.01-.02-.02-.2-.25-.39-.5-.58-.76-.43-.6-.84-1.21-1.21-1.84-.44-.75-.95-1.72-1.39-2.72l-.04-.09s-.01-.03-.02-.04c-.46-1.06-.86-2.19-1.2-3.33-.37-1.28-.66-2.58-.87-3.89-.06-.42-.12-.85-.17-1.27-.12-1.01-.2-2.02-.23-3.04,0-.1,0-.2,0-.3,0-.21,0-.43,0-.64,0-.28,0-.55,0-.83,0-.43.02-.86.04-1.29.04-.83.11-1.65.19-2.48.18-1.68.52-3.57.98-5.43.45-1.77,1.02-3.56,1.7-5.31.7-1.77,1.52-3.5,2.44-5.17l.02-.03s.02-.03.02-.04c.87-1.55,1.86-3.08,2.95-4.54,1-1.33,2.07-2.59,3.22-3.79,0,0,.03-.04.06-.06.03-.03.05-.05.08-.08,1.01-1.03,2.11-2.02,3.27-2.95,1.11-.87,2.26-1.68,3.47-2.4.85-.51,1.92-1.07,3.03-1.57h.02c.05-.03.1-.05.15-.08.91-.39,1.94-.77,2.98-1.08l.05-.02s.05-.02.08-.02c.72-.2,1.5-.39,2.28-.53.02,0,.04,0,.06,0,.16-.03.32-.06.48-.08.88-.13,1.77-.21,2.66-.25.89-.02,1.79,0,2.68.1.04,0,.14.01.24.03.62.07,1.45.22,2.28.41.86.21,1.71.48,2.53.81.58.23,1.36.59,2.11,1l.05.03s.06.03.09.05c.64.37,1.31.8,1.94,1.27.03.02.06.05.09.07-2.97,4.51-5.76,9.14-8.24,13.95-3.09,5.65-5.92,11.43-7.81,17.61-.26.71-.6,1.64-.62,2.44-.08.5.06,1.04.51,1.5,1.08,1.01,2.52.09,3.7-.25,2.19-.76,4.47-1.18,6.73-1.66,1.41-.26,2.82-.49,4.23-.7-.03.19-.06.37-.1.56-.26,1.63-1.88,4.05.46,4.84.92.26,1.85-.31,2.15-1.22.46-1.51.83-3.08,1.1-4.68,2.04-.26,4.08-.48,6.13-.65-.45,1.78-1.04,3.6-1.74,5.38Zm2.75-10.95c-.07.65-.17,1.34-.29,2.04-2.16.18-4.32.4-6.47.62.16-3.25-.25-6.5-1.54-9.45-.69-1.51-3.33-.93-3.27.86.11.92.76,1.86.89,2.93.37,2.01.46,4.07.34,6.11-3.82.53-7.63,1.23-11.32,2.31,2.49-7.79,6.84-15.3,10.85-22.51,1.24-2.33,2.65-4.56,4.13-6.74.42.45.84.93,1.24,1.43.56.72,1.17,1.6,1.72,2.52.44.75.95,1.72,1.39,2.72l.03.07s.02.04.03.06c.44,1.03.84,2.14,1.18,3.26.36,1.23.67,2.61.89,4,.24,1.56.38,3.13.42,4.7.04,1.54-.04,3.3-.23,5.06Zm3.98-11.48c-.28-1.65-.66-3.27-1.15-4.86,0-.02,0-.04-.01-.06-.03-.11-.06-.21-.1-.31-.41-1.27-.89-2.51-1.44-3.73v-.02c-.03-.05-.06-.11-.08-.16-.26-.55-.58-1.2-.93-1.83-1.11-2.01-2.46-3.87-4.03-5.54.96-1.36,1.92-2.73,2.86-4.1.04.05.09.09.13.14,1.75,2.8,3.49,5.6,5.24,8.4.49.78.97,1.56,1.46,2.34.43,3.91.91,7.81,1.42,11.71.16,1.45.32,2.91.49,4.36,0,.01-.01.02-.01.03-.38,1.75-.4,3.54-1.13,5.22-.15.5-.26,1.02-.18,1.52-.8.03-1.6.06-2.41.1.18-1.31.32-2.62.39-3.93.17-3.1.02-6.23-.51-9.29Zm22.43,32.34c-.11-.02-.23-.04-.34-.06-3.92-1.23-8.26-1.73-12.42-2.46-.13-1.43-.22-2.87-.32-4.3,1.44.63,3.34.84,4.49.9.8.05,1.86-.02,2.63-.39,3.16,2.45,5.18,2.18,5.95,6.31Zm22.81-56.46c-2.76,2.49-5.23,5.29-7.41,8.31-6.24,8.2-12.07,16.71-16.64,25.96-.42.8-.82,1.61-1.23,2.42-.24-.39-.48-.77-.72-1.16.07-6.16.42-12.32.8-18.47.09-2.12.26-4.28.24-6.42,1.1-.11,1.83-1.54,2.41-2.48,1.03-1.43,2.06-2.87,3.08-4.31.13-.15.26-.3.39-.45,1.53-1.95,3.44-4.45,5.19-7.17,5.36-.05,10.68.49,15.8,2.16-.71.47-1.37,1.16-1.91,1.62Zm-3.96-19.08c-.7-.21-1.48-.29-2.12-.66-.71-.68-1.1-1.62-1.59-2.46-.93-1.62-1.69-3.32-2.29-5.08-.14-.39-.27-.79-.41-1.19.9-.28,1.8-.59,2.68-.94.43-.17.87-.34,1.31-.49.08.21.16.43.22.64.79,2.3,1.37,4.69,2.3,6.93.79,2.01,3.67,1.07,3.39-.82,6.54,2.34,12.84,5.26,18.79,8.95.84.5,1.82.24,2.71.08.02,0,.04,0,.06,0-.23.84-.51,1.66-1.05,2.34-1.14,1.28-2.55-.69-3.35-1.52-.22-.27-.46-.44-.72-.55-.29-.24-.68-.42-1.19-.46-6.22-1.28-12.54-3.18-18.73-4.77Zm48.09,54c-.18,1.58-.49,3.37-.93,5.14-.41,1.66-1.01,3.53-1.72,5.35-.69,1.71-1.49,3.42-2.41,5.06-.9,1.6-1.89,3.14-2.98,4.61,0,0-.02.02-.03.04-.03.04-.06.08-.09.12,0,0-.03.04-.05.07.03-.04.06-.08.09-.12.02-.02.03-.04.05-.06-1.06,1.41-2.21,2.75-3.44,4.02-1.15,1.17-2.37,2.26-3.65,3.28-1.01.8-2.25,1.66-3.55,2.43-.91.54-2.05,1.14-3.22,1.66-1.1.48-2.23.89-3.38,1.24-1.01.29-2.03.52-3.06.68-.99.15-1.98.24-2.98.26-.84.01-1.68-.02-2.51-.1-.86-.09-1.71-.24-2.55-.43-.89-.22-1.77-.5-2.63-.84-.61-.25-1.42-.63-2.21-1.07-.66-.38-1.3-.8-1.92-1.25-.68-.51-1.32-1.06-1.93-1.65-.65-.65-1.26-1.33-1.83-2.04-.48-.61-1.05-1.44-1.56-2.3-.47-.8-.9-1.64-1.29-2.5-.46-1.06-.86-2.15-1.19-3.26-.34-1.19-.61-2.4-.8-3.61-.22-1.42-.34-2.85-.38-4.29-.03-1.64.04-3.28.22-4.92.17-1.59.5-3.39.93-5.16.41-1.68,1.02-3.55,1.74-5.38.62-1.56,1.44-3.29,2.37-4.97.91-1.62,1.92-3.19,3.04-4.68,1.08-1.44,2.25-2.81,3.51-4.11.52-.53,1.09-1.08,1.71-1.63,2.9,12.12,6.9,23.84,12.02,28.13,1.9,1.27,3.85-1.59,1.98-2.89-2.26-2.04-3.61-5-4.84-7.76-2.52-6.49-4.53-13.15-6.15-19.91.57-.41,1.15-.8,1.74-1.18.02,0,.03-.02.05-.03.14-.09.29-.18.43-.27h.02s.05-.04.1-.07c.01,0,.03-.02.04-.02,1.08-.64,2.22-1.22,3.38-1.74,1.05-.45,2.13-.84,3.22-1.17,1-.28,2.01-.51,3.03-.68,1.01-.15,2.03-.25,3.05-.27.69-.01,1.61.02,2.53.11.93.1,1.85.27,2.75.49.8.21,1.59.46,2.36.77.71.29,1.4.62,2.07.99l.04.02s.07.04.11.06c.64.37,1.3.8,1.94,1.27.67.5,1.3,1.05,1.91,1.63.61.6,1.19,1.24,1.73,1.91.59.76,1.14,1.55,1.64,2.37.5.84.98,1.78,1.41,2.75.42.98.78,1.99,1.09,3.01l.02.07s.02.06.03.08c.32,1.15.59,2.36.79,3.57.22,1.42.34,2.85.38,4.29.03,1.64-.04,3.27-.22,4.89Z"/></g><path class="b" d="m111.43,31.68c-.02.93.75,1.8,1.7,1.8s1.77-.73,1.8-1.7c.02-.93-.75-1.8-1.7-1.8s-1.77.73-1.8,1.7Z"/><path class="c" d="m48.84,74.47c.46.82.95,1.64,1.46,2.46,4.26,6.83,9.29,12.25,14.3,16.54,1.65-1.36,3.31-2.72,4.96-4.09l-17.4-21.81-3.32,6.9Z"/><polygon class="c" points="66.35 95.21 70.41 131 77.2 130.6 77.51 117.32 74.33 105.61 66.35 95.21"/><polygon class="c" points="72.68 81.83 74.33 85.13 72.59 88.55 62.73 88.55 60.67 79.91 72.68 81.83"/></g></svg>