<?xml version="1.0" encoding="UTF-8"?><svg id="a" xmlns="http://www.w3.org/2000/svg" viewBox="0 0 157.47 163.32"><defs><style>.b{fill:#fff;}.c{fill:#1a1c1d;}</style></defs><polygon class="c" points="93.33 54.48 98.98 68.16 121.78 74.46 125.66 78.09 130.62 71.8 124.99 71.19 111.43 63.08 103.62 61.44 100.66 54.48 93.33 54.48"/><polygon class="c" points="94.04 19.49 98.72 28.87 107.05 28.5 105.03 39.21 107.37 42.04 112.18 42.04 117.31 34.85 118.36 26.68 123.46 25.17 117.07 17.63 105.51 14.64 94.04 19.49"/><g><g><path class="b" d="m154.95,104.55c-1.21-3.03-2.86-5.89-4.99-8.37-2.39-2.79-5.36-5.06-8.71-6.58-.5-.23-1-.43-1.51-.62-.04-.01-.07-.03-.11-.04-3.55-1.3-7.37-1.76-11.14-1.45-.02,0-.04,0-.06,0-.09,0-.18.02-.26.03-5.09.49-9.98,2.35-14.3,5.05-1.22-6.04-2.18-12.13-2.96-18.23-.02-.17-.04-.35-.05-.54,3.37.88,6.75,1.7,10.14,2.47.65.74,1.36,1.46,2.17,2.02,0,.02,0,.04-.01.06-.51,1.66-2.5,2.72-4.12,3.02-.9.06-1.62-.47-2.52.02-1.33.66-1.12,2.87.35,3.21.57.13,1.14.22,1.73.25,3.25,0,7.09-2.29,7.92-5.57,2.24-.26,3.97-2.48,4.58-4.68,1.06,1.41,1.27,3.46.89,5.15-.45,1.06-.58,2.43.67,2.97,3.76,1.13,3.33-6.39,2.27-8.39-.11-.38-.33-.82-.61-1.27.75-.1,1.4-.75,1.51-1.5.3-3.38-7.17-2.14-9.25-1.88-2.32-1.58-16.65-9.03-21.61-9.76-.39-1.25-.77-2.5-1.2-3.74.38-.28.63-.71.7-1.17.2-.3.32-.65.3-1.03-.27-4.14-.94-8.35-2.59-12.18.29-.42.53-.93.74-1.41.11.22.24.42.37.63.11.27.26.48.44.65,1.12,1.51,2.69,2.72,4.53,3.05,2.35.14,4.8-.67,6.48-2.35,1.22-1.11,1.66-2.67,2.6-3.99.33-.48.93-.54,1.41-.82.51-.29.91-.88.94-1.46.1-.73-.39-1.31-.53-1.99.14-1.93.89-4.06.65-6.03,1.32-.15,2.65-.29,3.98-.38,1.46,0,2.29-1.46,1.78-2.57,0-.03,0-.06-.02-.1-3.05-6.39-10.03-10.75-16.86-12.09-5.85-1.1-12.13,1.37-16.36,5.4-.11.15-.18.32-.24.49-.19.28-.31.62-.31.98.37,2.9,1.75,5.5,3.37,7.92-.19.35-.32.74-.38,1.16-.35,1.41-.82,2.88-.99,4.34-14.18-6.77-39.67.37-51.25,5.65-3.84,1.63-7.22,4.13-10.18,7.06-.62.23-1.11.78-1.15,1.46-.03.17-.04.34-.02.51-.18.77.2,1.62.94,1.97,1.32.63,2.61,1.33,3.9,2,3.44,1.76,6.89,3.52,10.33,5.28,3.71,1.89,7.4,3.82,11.12,5.69.24.12.49.18.74.18.36,0,.71-.12,1.01-.33,0,0,.01,0,.02,0,.38,0,.77-.12,1.11-.36-.02.02-.05.04-.07.05-.04.02-.07.04-.11.06,1.61-.8,3.41-1.64,5.32-2.44.05.11.1.21.17.31,1.04,1.33,2.97.8,4.49.69.12,1.11.56,2.23,1.16,2.79.08.42.27.81.56,1.14.72.82,2.01.83,2.9.29,1.46-.27,3.51-1.18,4.15-2.66-.18.77.24,1.63.96,1.97.67.33,1.46.17,1.98-.35-.05.08-.14.14-.22.2,1.23-.96,2.26-2.13,3.38-3.21,1.16-1.41,3.51-2.89,2.77-4.98-.27-.44-.57-.89-.89-1.31-.59-1.56-1.17-3.13-1.76-4.69-.33-.89.11-1.91,1.01-2.26.89-.34,1.93.11,2.26,1,.78,2.07,1.55,4.14,2.32,6.22l-.08-.22c.03.07.05.14.08.2.23.6.45,1.19.67,1.79-.18.35-.25.76-.17,1.17.22,1.01.95,1.34,1.78,1.36,0,.03.02.04.03.07,1.27,3.62,2.69,7.42,5.25,10.33,1.72,1.43,4.11,1.52,6.18,2.15.9.26,1.81.51,2.71.76.29,2.39.71,5.46,1.26,8.95-6.81-1.99-14.14-2.22-21.18-1.68-10.07.88-20.12,2.31-29.88,4.99-.89-1.43-1.78-2.86-2.68-4.29-1.16-1.87-2.37-3.71-3.5-5.61-.49-.82-1.51-1.17-2.38-.7-.81.44-1.19,1.55-.7,2.38,1.25,2.1,2.6,4.16,3.89,6.24.89,1.43,1.79,2.86,2.68,4.29-1.19,1.64-2.36,3.28-3.51,4.94-2.47-1.95-5.34-3.41-8.39-4.19-3.41-.88-6.94-.95-10.41-.35-1.08.19-2.14.44-3.19.76-3.2.98-6.22,2.46-8.99,4.34-.02.01-.04.03-.06.04-.09.06-.18.12-.27.18-2.92,2.03-5.55,4.46-7.87,7.15-2.37,2.75-4.39,5.78-6.1,8.99-1.67,3.14-3.02,6.47-4,9.9-1.01,3.53-1.64,7.15-1.85,10.81-.19,3.2-.04,6.43.51,9.59.57,3.3,1.54,6.5,3,9.51,1.48,3.03,3.47,5.79,5.93,8.09,2.23,2.09,4.87,3.7,7.73,4.76,2.58.93,5.3,1.42,8.04,1.42.27,0,.53,0,.8-.01,3.44-.12,6.84-.92,10.01-2.28,3.1-1.33,6-3.11,8.61-5.26,2.43-2,4.64-4.25,6.6-6.71,1.88-2.37,3.52-4.91,4.94-7.58.54-1.02,1.07-2.1,1.56-3.2,1.21-2.73,2.2-5.57,2.92-8.47.15-.6.28-1.2.4-1.8,2.9-.15,5.82-.21,8.79-.17,3.65.16,7.24.39,10.82,1.25.29.08.58.06.85-.02.73.05,1.45-.39,1.74-1.1,2.05-3.86,4.1-7.93,6.22-11.8,2.71-4.73,5.91-9.31,9.08-13.77,3.4-4.6,6.72-9.39,11.11-13.14.33,1.78.68,3.6,1.06,5.45-3.64,2.78-6.81,6.15-9.46,9.89-3.86,5.44-6.61,11.7-8,18.23-1.31,6.13-1.45,12.6.04,18.71,1.18,4.87,3.38,9.53,6.71,13.3,2.94,3.32,6.71,5.86,10.93,7.24,2.57.84,5.26,1.24,7.96,1.24,1.93,0,3.86-.2,5.76-.6,2.78-.57,5.47-1.54,8.01-2.8,1.52-.76,2.99-1.62,4.4-2.58.68-.46,1.35-.95,2-1.45.29-.22.57-.45.86-.68.02-.02.04-.04.07-.06.03-.02.06-.04.09-.07.06-.05.12-.1.18-.15.21-.18.43-.36.64-.54,1.12-.96,2.18-1.99,3.2-3.06,2.35-2.48,4.44-5.22,6.2-8.15,3.46-5.75,5.81-12.18,6.7-18.84.89-6.61.38-13.57-2.11-19.79Zm-39.14-69.46c-1.85,1.13-2.19,3.46-3.66,4.92-2.21,1.9-4.24,1.34-5.55-.32-.19-3.16-.1-6.12.18-9.37,2.44-.69,4.94-1.15,7.44-1.58.7-.08,1.39-.16,2.09-.25.21,2.23-1.02,4.39-.51,6.6Zm-6.51-18.5c4.53,1.32,9.01,3.96,11.86,7.81-.06,0-.12,0-.18,0-3.26.43-6.54.7-9.79,1.3-2.08.43-4.18.83-6.19,1.5-.31.09-.57.27-.77.5-1.72-.15-3.51-.25-5.23-.53-.58-.89-1.15-1.82-1.79-2.67-.77-1.32-1.35-2.78-1.79-4.24.56-.47,1.1-1,1.69-1.26,3.47-2.32,8.01-3.53,12.18-2.41Zm-8.65,20.41c-.18.41-.35.79-.53,1.09-.02.03-.03.07-.05.1-.67-.86-1.42-1.65-2.24-2.35.86.56,1.81.97,2.82,1.15Zm2.21,31.03c-.7-.21-1.48-.29-2.12-.66-.71-.68-1.1-1.62-1.59-2.46-.93-1.62-1.69-3.32-2.29-5.08-.14-.39-.27-.79-.41-1.19.9-.28,1.8-.59,2.68-.94.43-.17.87-.34,1.31-.49.08.21.16.43.22.64.79,2.3,1.37,4.69,2.3,6.93.79,2.01,3.67,1.07,3.39-.82,6.54,2.34,12.84,5.26,18.79,8.95.84.5,1.82.24,2.71.08.02,0,.04,0,.06,0-.23.84-.51,1.66-1.05,2.34-1.14,1.28-2.55-.69-3.35-1.52-.22-.27-.46-.44-.72-.55-.29-.24-.68-.42-1.19-.46-6.22-1.28-12.54-3.18-18.73-4.77Zm40.02,74.2s-.06.08-.09.12c0,0-.03.04-.05.07.03-.04.06-.08.09-.12.02-.02.03-.04.05-.06-1.06,1.41-2.21,2.75-3.44,4.02-1.15,1.17-2.37,2.26-3.65,3.28-1.01.8-2.25,1.66-3.55,2.43-.91.54-2.05,1.14-3.22,1.66-1.1.48-2.23.89-3.38,1.24-1.01.29-2.03.52-3.06.68-.99.15-1.98.24-2.98.26-.84.01-1.68-.02-2.51-.1-.86-.09-1.71-.24-2.55-.43-.89-.22-1.77-.5-2.63-.84-.61-.25-1.42-.63-2.21-1.07-.66-.38-1.3-.8-1.92-1.25-.68-.51-1.32-1.06-1.93-1.65-.65-.65-1.26-1.33-1.83-2.04-.48-.61-1.05-1.44-1.56-2.3-.47-.8-.9-1.64-1.29-2.5-.46-1.06-.86-2.15-1.19-3.26-.34-1.19-.61-2.4-.8-3.61-.22-1.42-.34-2.85-.38-4.29-.03-1.64.04-3.28.22-4.92.17-1.59.5-3.39.93-5.16.41-1.68,1.02-3.55,1.74-5.38.62-1.56,1.44-3.29,2.37-4.97.91-1.62,1.92-3.19,3.04-4.68,1.08-1.44,2.25-2.81,3.51-4.11.52-.53,1.09-1.08,1.71-1.63,2.9,12.12,6.9,23.84,12.02,28.13,1.9,1.27,3.85-1.59,1.98-2.89-2.26-2.04-3.61-5-4.84-7.76-2.52-6.49-4.53-13.15-6.15-19.91.57-.41,1.15-.8,1.74-1.18.02,0,.03-.02.05-.03.14-.09.29-.18.43-.27h.02s.05-.04.1-.07c.01,0,.03-.02.04-.02,1.08-.64,2.22-1.22,3.38-1.74,1.05-.45,2.13-.84,3.22-1.17,1-.28,2.01-.51,3.03-.68,1.01-.15,2.03-.25,3.05-.27.69-.01,1.61.02,2.53.11.93.1,1.85.27,2.75.49.8.21,1.59.46,2.36.77.71.29,1.4.62,2.07.99l.04.02s.07.04.11.06c.64.37,1.3.8,1.94,1.27.67.5,1.3,1.05,1.91,1.63.61.6,1.19,1.24,1.73,1.91.59.76,1.14,1.55,1.64,2.37.5.84.98,1.78,1.41,2.75.42.98.78,1.99,1.09,3.01l.02.07s.02.06.03.08c.32,1.15.59,2.36.79,3.57.22,1.42.34,2.85.38,4.29.03,1.64-.04,3.27-.22,4.89-.18,1.58-.49,3.37-.93,5.14-.41,1.66-1.01,3.53-1.72,5.35-.69,1.71-1.49,3.42-2.41,5.06-.9,1.6-1.89,3.14-2.98,4.61,0,0-.02.02-.03.04Zm-106.53,11.9c-1.02.44-2.06.83-3.12,1.15l-.06.02s-.05.01-.07.02c-.91.26-1.87.47-2.84.63-.95.14-1.9.23-2.85.25-.83.01-1.66-.02-2.48-.1-.9-.1-1.79-.26-2.67-.47-.8-.21-1.6-.46-2.37-.77-.59-.23-1.38-.6-2.14-1.02l-.04-.02s-.05-.03-.08-.04c-.66-.38-1.35-.83-2.01-1.32,0,0,0,0,0,0-.04-.03-.09-.06-.13-.1-.61-.47-1.28-1.05-1.91-1.66-.07-.07-.13-.13-.2-.2-.38-.39-.75-.8-1.11-1.21-.15-.17-.29-.34-.43-.52,0,0,0-.01-.02-.02-.2-.25-.39-.5-.58-.76-.43-.6-.84-1.21-1.21-1.84-.44-.75-.95-1.72-1.39-2.72l-.04-.09s-.01-.03-.02-.04c-.46-1.06-.86-2.19-1.2-3.33-.37-1.28-.66-2.58-.87-3.89-.06-.42-.12-.85-.17-1.27-.12-1.01-.2-2.02-.23-3.04,0-.1,0-.2,0-.3,0-.21,0-.43,0-.64,0-.28,0-.55,0-.83,0-.43.02-.86.04-1.29.04-.83.11-1.65.19-2.48.18-1.68.52-3.57.98-5.43.45-1.77,1.02-3.56,1.7-5.31.7-1.77,1.52-3.5,2.44-5.17l.02-.03s.02-.03.02-.04c.87-1.55,1.86-3.08,2.95-4.54,1-1.33,2.07-2.59,3.22-3.79,0,0,.03-.04.06-.06.03-.03.05-.05.08-.08,1.01-1.03,2.11-2.02,3.27-2.95,1.11-.87,2.26-1.68,3.47-2.4.85-.51,1.92-1.07,3.03-1.57h.02c.05-.03.1-.05.15-.08.91-.39,1.94-.77,2.98-1.08l.05-.02s.05-.02.08-.02c.72-.2,1.5-.39,2.28-.53.02,0,.04,0,.06,0,.16-.03.32-.06.48-.08.88-.13,1.77-.21,2.66-.25.89-.02,1.79,0,2.68.1.04,0,.14.01.24.03.62.07,1.45.22,2.28.41.86.21,1.71.48,2.53.81.58.23,1.36.59,2.11,1l.05.03s.06.03.09.05c.64.37,1.31.8,1.94,1.27.03.02.06.05.09.07-2.97,4.51-5.76,9.14-8.24,13.95-3.09,5.65-5.92,11.43-7.81,17.61-.26.71-.6,1.64-.62,2.44-.08.5.06,1.04.51,1.5,1.08,1.01,2.52.09,3.7-.25,2.19-.76,4.47-1.18,6.73-1.66,4.67-.85,9.3-1.47,13.97-1.86-.45,1.78-1.04,3.6-1.74,5.38-.63,1.59-1.46,3.34-2.4,5.04-.89,1.58-1.87,3.1-2.95,4.56-1.02,1.36-2.12,2.66-3.31,3.88-1.04,1.05-2.13,2.04-3.28,2.97-1.12.88-2.29,1.7-3.51,2.43-.99.58-2.01,1.11-3.07,1.59Zm13.88-28.68c-4.8.57-9.62,1.33-14.26,2.7,2.49-7.79,6.84-15.3,10.85-22.51,1.24-2.33,2.65-4.56,4.13-6.74.42.45.84.93,1.24,1.43.56.72,1.17,1.6,1.72,2.52.44.75.95,1.72,1.39,2.72l.03.07s.02.04.03.06c.44,1.03.84,2.14,1.18,3.26.36,1.23.67,2.61.89,4,.24,1.56.38,3.13.42,4.7.04,1.54-.04,3.3-.23,5.06-.07.65-.17,1.34-.29,2.04-2.37.2-4.74.44-7.1.69Zm11.49-.99c.18-1.31.32-2.62.39-3.93.17-3.1.02-6.23-.51-9.29-.28-1.65-.66-3.27-1.15-4.86,0-.02,0-.04-.01-.06-.03-.11-.06-.21-.1-.31-.41-1.27-.89-2.51-1.44-3.73v-.02c-.03-.05-.06-.11-.08-.16-.26-.55-.58-1.2-.93-1.83-1.11-2.01-2.46-3.87-4.03-5.54.97-1.37,1.94-2.75,2.89-4.14,1.78,2.86,3.56,5.71,5.35,8.57,3.29,5.26,6.57,10.53,9.85,15.79,2.1,3.36,4.2,6.72,6.29,10.08-5.46-.83-10.98-.88-16.5-.58Zm45.11-37.35c-2.76,2.49-5.23,5.29-7.41,8.31-6.24,8.2-12.07,16.71-16.64,25.96-.42.8-.82,1.61-1.23,2.42-.68-1.09-1.36-2.18-2.04-3.27-3.23-5.19-6.47-10.38-9.71-15.56-3.3-5.3-6.61-10.59-9.91-15.89-.19-.31-.38-.62-.58-.92.27-.08.55-.16.82-.2,3.65-.91,7.31-1.74,11.01-2.39,12.24-1.71,25.48-4.01,37.59-.07-.71.47-1.37,1.16-1.91,1.62Z"/><polygon class="b" points="15.62 152.47 15.62 152.47 15.62 152.47 15.62 152.47"/></g><path class="c" d="m58.39,61.42s.03.02.04.03c-.01,0-.03-.02-.04-.03Z"/><path class="c" d="m88.82,73.74c4.98,1.94,10.62,4.39,11.18,10.47-.45,8.98-12.5,18.45-18.63,24.48-3.4,3.51-7,6.83-10.49,10.22-1.91,1.88-2.85,4.43-4.14,6.71,1.42,2.56,2.15,5.46,2.67,8.36.19,1.14-.79,2.04-1.8,2.04-.39,0-.79-.14-1.12-.45-2.29-.79-3.1-3.59-4.37-5.45-1.24-1.7-1.54-3.81-.63-5.73.93-2.55,2.22-4.97,3.48-7.37,5.36-10.45,12.24-19.8,18.57-29.62-4.83-.21-10.09-.7-14.11-3.62-3.71-.09-8.09-.31-10.93-2.98-12.43-2.72-17.79-10.36-14.71-22.61-.36-.48-.48-1.12-.22-1.73.36-.85,1.44-1.33,2.3-.92,1.71.82,3.42,1.64,5.13,2.47.29.2.57.39.86.59,1,.66,2.02,1.27,3.04,1.9.32.2.64.41.96.61.38.24.76.47,1.15.69.75.41,1.51.82,2.26,1.23.75.41,1.48.86,2.28,1.18.49.2,1.04.4,1.59.4.14,0,.27-.01.41-.04.06-.01.12-.03.19-.04s.12-.04.18-.05.12-.04.18-.07c.29-.12.55-.29.77-.52,1.05.48,2.09.94,3.16,1.38,6.91,2.92,14.12,5.05,20.82,8.48Z"/><path class="c" d="m65.64,126.83c-.67-.13-1.22-.67-1.38-1.31-1.89-1.31-.16-5.04.83-6.53.99-1.35,3.56-1.27,3.7.66-.07,1.97-.74,3.87-1.11,5.79-.21.94-1.12,1.58-2.05,1.39Z"/><path class="b" d="m65.18,137.55c-2.55-3.38-5.72-6.16-7.82-9.83-.77-2.22,2.55-3.45,3.33-1.18,2.15,3.12,4.82,5.72,7.07,8.64,1.51,1.71-1.02,4.05-2.57,2.37Z"/><path class="b" d="m68.02,140.29c-.87-1.12-1.91-2.11-2.96-3.08-2.49-1.43.21-4.7,2.22-2.7,1.27,1.49,5.14,3.76,3.21,5.89-.67.62-1.87.64-2.47-.1Z"/><path class="b" d="m70.24,140.5c-1.19-.1-1.71-1.35-1.52-2.39.07-1.61.02-3.21-.11-4.8-.1-2.8-1.37-5.32-2.1-7.97-.45-2.35,3.02-3.08,3.48-.69.96,3.18,2.23,6.32,2.2,9.73-.17,1.94,1.06,6.15-1.95,6.12Z"/><path class="b" d="m66,128.14c-2.09-1.46-3.94-3.46-4.69-5.94-.71-2.32,2.63-3.41,3.38-1.12.38,1.84,1.95,3.17,3.4,4.25,1.82,1.38-.24,4.14-2.09,2.81Z"/><path class="b" d="m58.74,126.15c-.3-1.64,1.37-2.75,2.15-4.02.59-.75,1.67-.94,2.45-.36,1.86,1.54-.48,3.3-1.34,4.68-.64,1.4-2.86,1.22-3.26-.3Z"/><path class="b" d="m67.42,124.41c-2.12-1.94,1.69-4.37,2.75-5.96,3.54-3.76,7.47-7.14,11.21-10.69,4.28-3.97,8.25-8.01,12.04-12.35,3.64-3.95,8.66-10.96,4.03-15.88-2.1-1.8-4.77-2.7-7.25-3.82-4.88-2.12-9.76-4.23-14.77-6.01-3.66-1.32-7.31-2.65-10.92-3.94-1.09-.39-2.07-.72-3.16-1.06-.94-.23-2.05-.64-2.15-1.75.08-3.65,4.44-1.02,6.32-.54,6.67,2.44,13.41,4.7,19.96,7.46,4.55,2.11,9.49,3.58,13.62,6.47,4.65,3.34,4.37,9.9,1.91,14.51-3.35,6.14-8.75,10.89-13.51,15.92-4.81,4.75-10.35,9.35-14.91,14.2-1.53,1.22-2.84,4.96-5.17,3.43Z"/><path class="b" d="m60.52,124.31c-.9-.39-1.25-1.41-.91-2.3,1.12-2.7,2.44-5.31,3.85-7.87,5.02-8.66,10.19-17.24,15.84-25.5-10.23-1.28-20.55-3.7-29.56-8.85-9.54-5.61-11.33-15.35-8-25.32.61-2.13,3.83-1.29,3.41.74-2.53,7.97-2.26,15.45,5.02,20.74,8.94,5.58,19.24,7.85,29.43,9.21,8.29-.37,1.65,6.39-.28,9.72-4.54,6.99-8.87,14.1-13.01,21.33-1.3,2.44-2.48,4.65-3.49,7.19-.35.89-1.45,1.28-2.3.91Z"/><path class="b" d="m83.48,137.55c-1.36-.82-.89-2.66.36-3.31,1.58-1.21,3.22-2.35,4.84-3.49,1.69-1.17,3.4-2.34,5.18-3.38.82-.48,1.92-.15,2.38.67.47.84.15,1.9-.67,2.38-3.42,2.12-6.75,4.38-9.92,6.84-.55.57-1.5.69-2.17.28Z"/><path class="b" d="m82.85,137.26c-.5-6.77-.64-13.63-1.2-20.41-.09-1.89-.15-3.78-.25-5.44-.21-1.14.14-2.5,1.47-2.66.91-.11,1.89.57,1.95,1.52.37,8.65,1.15,17.09,1.33,25.65.58,2.25-2.33,3.45-3.32,1.34Z"/><path class="b" d="m89.39,130.41c-.94-.13-1.63-1.03-1.49-1.97.86-6.04,1.64-12.09,2.51-18.13.53-3.82,1.02-7.67,2.2-11.35.25-.74.42-1.74,1.09-2.2,1.42-1.12,3.49.66,2.58,2.22-2.54,8.12-2.86,16.49-4.2,24.82-.23,1.71-.48,3.41-.72,5.12-.13.95-1.04,1.63-1.98,1.49Z"/><path class="b" d="m85.3,132.38c-1.76-4.61-1.38-9.79-2.34-14.62-.4-2.58-.46-5.18-.28-7.78-.07-1.46.68-3.31,2.42-3.09.82-1.78,2.19-5.76,4.46-5.75.68-.44,1.63-.32,2.19.27.53.53.54,1.22.48,1.92-.11,1.33-.29,2.65-.46,3.97-.59,4.63-1.28,9.26-1.76,13.9.51,1.26.05,2.69.01,4.01,1.85-1.21,7.85-2.93,8.56.18.15.77-.32,1.49-.9,1.95-2.2,1.54-4.63,2.75-6.74,4.43-1.71,1.37-4.09,3.31-5.64.61Z"/><path class="b" d="m96.28,77.03c-.71,0-1.2-.43-1.68-.9-.57-.56-1.14-1.11-1.73-1.65-.91.16-1.62-.62-2.41-.95-2.75-1.32-6-2.56-8.73-3.59-2.04-.71-4.02-1.34-6.01-2.09-1.31-.4-3.23-1.27-2.68-2.94-4.36-.97-8.82-1.47-13.22-2.18-2.24-.68-1.23-4.03,1.03-3.35,7.91.95,15.67,2.53,23.32,4.64,3.17.91,6.49,1.51,9.49,2.91,1.37.91,2.24,2.38,2.97,3.82.74,1.85,2.92,5.83-.36,6.27Z"/><path class="b" d="m111.36,150.32c-2.73-1.83-4.95-4.38-6.45-7.3-1.03-1.96-4.27-9.12-.16-9.14,1.03.11,1.61,1.11,1.51,2.08.1,1.69.66,3.3,1.42,4.81,1.25,2.58,3.11,4.91,5.45,6.53,1.94,1.22.22,4.15-1.77,3.02Z"/><path class="b" d="m143.16,118.22c.09-3.02-.24-6.11-1.64-8.82-.37-.97-1.27-1.53-1.79-2.36-.74-1.99,1.75-3.26,3.12-1.75,2.29,2.36,3.25,5.71,3.67,8.9-.04,1.86,1.14,5.51-1.6,5.78-.95,0-1.76-.8-1.75-1.75Z"/><path class="b" d="m27.99,148.38c-2.59-.19-7.18-1.31-7.73-4.25,0-.95.8-1.75,1.75-1.75.59,0,1.13.31,1.44.77.86.84,2.03,1.26,3.18,1.53,3.03.57,6.35.15,8.9-1.65,1.49-.83,3.28-3.48,4.94-1.57,1.41,2.14-1.75,3.44-3.09,4.54-2.89,1.93-6.04,2.59-9.4,2.39Z"/><path class="b" d="m94.56,33.74c-1.36-.13-2.53-.94-3.28-2.07-4.22-.4-8.44-2.47-10.76-6.11-4.32,1.19-9.3-.29-11.79-4.12-5.45,1.61-9.64,7.1-15.8,6.26-1.25-.1-2.96-.57-3.52-1.84-.51-1.11.37-2.48,1.61-2.46,5.47,2.93,10.15-2.77,14.98-4.75,1.61-.7,3.96-1.34,5.24.26,1.55,2.8,4.82,4.04,7.9,3.4,1.29-.48,2.85-.69,3.77.57,1.93,3.4,5.56,5.1,9.32,5.43.66.14,1.21.48,1.64.99.35.39.58,1.01,1.19.99,2.26.35,1.81,3.72-.48,3.47Z"/><path class="b" d="m92.67,30.62c-1.63-2.09-3.64-4.14-5.99-5.35-1.01-.49-2.07-.91-3.18-1.15-.99-.13-2.05-.31-2.69-1.17-2.67-4.82-5-5.33-10.14-4.07-1.19.31-2.4-.04-3.23-.95-6.01-4.89-10.09,1.36-13.43,5.86-1.17,1.78-5.26,4-5.77.63,0-.95.8-1.75,1.75-1.75.26-.02.44-.23.64-.38,2.44-2.63,4.2-5.99,7.24-8.03,3.66-2.64,8.86-1.74,12.06,1.21,6-1.58,10.36-.59,13.5,5.11,5,.71,9.02,4.06,12.01,7.92,1.38,1.81-1.35,3.93-2.77,2.14Z"/><path class="b" d="m49.62,26.1c-1.71-.49-3.64-.35-5.12-1.42-1.17-.72-1.1-2.7.24-3.2.79-.33,1.61.04,2.32.32.81.46,1.58.11,2.33-.29,2.58-1.06,11.65-10.34,13.32-5.25.2,1.47-1.2,1.99-2.38,2.19-2.36.89-4.21,2.66-6.2,4.15,1.46.53,1.44,2.72,0,3.28-1.44.46-3.03.41-4.52.23Z"/><path class="b" d="m50.91,27.58c-2.68-.16-5.53-.9-7.41-2.93-1-1.12-.13-3.04,1.38-2.96,1.12-.04,1.59,1.21,2.52,1.55,1.99.88,4.27,1.07,6.37.69-2.07-2.72,5.17-6.03,6.95-7.47,1.38-.88,3.82-2.44,4.84-.3,2.46.95,1.47,3.27-.35,4.3-.95.61-1.84,1.67-3.07,1.56-2.92,3.15-6.66,6.19-11.23,5.56Z"/><path class="b" d="m63.33,19.67c-.85-1.43.63-2.83,2.02-3.01,1.6-.31,4.49-.96,4.62,1.43-.05,2.07-2.27,1.67-3.7,1.95-1.02.57-2.19.8-2.94-.37Z"/><path class="b" d="m75.84,23.04c-1.15-.61-2.3-1.24-3.42-1.91-.65-.4-1.31-.87-1.41-1.7,0-2.27,2.04-2.35,3.6-1.31.02,0,.05,0,.07-.01.24-.03.47-.01.7.03,1.85-1.14,3.05,1.13,3.71,2.54.89,2.17-1.48,3.51-3.26,2.35Z"/><path class="b" d="m77.52,22.93c-.42-.29-.82-.59-1.29-.8-2.38-1.84.45-4.52,2.57-2.56.63-.3,1.34-.14,1.88.27.78.52.77,1.54.48,2.34-.55,1.55-2.47,1.74-3.64.74Z"/><path class="b" d="m90.02,30.08c-.8-.05-1.48-.47-2.16-.87-1.44-1.01-2.95-1.49-3.9-2.81-2.13-.92-.83-4.1,1.33-3.24,1.26.64,2.74.59,3.99,1.17,1.17.98,2.46,2.29,2.72,3.84.05,1.08-.91,1.97-1.97,1.91Z"/><path class="b" d="m95.71,31.4c-2.28-4.18-7.01-6.38-11.54-7.09-2.29-.05-2.3-3.44,0-3.5,5.76.64,11.68,3.62,14.57,8.82,1.12,1.99-1.86,3.73-3.02,1.77Z"/><path class="b" d="m111.43,31.68c-.02.93.75,1.8,1.7,1.8s1.77-.73,1.8-1.7c.02-.93-.75-1.8-1.7-1.8s-1.77.73-1.8,1.7Z"/></g></svg>