<svg xmlns="http://www.w3.org/2000/svg" viewBox="0 0 359.35 156.66"><g id="Vector_layer-2" data-name="Vector layer"><path d="M164.15,102.67C161.47,92.53,159.56,82,156,72.1a86.93,86.93,0,0,0-4-9.73c-1.73-3.34-4.9-6.37-.67-9.45,7.26-4.71,12.81,17.59,14.66,22.39a30.48,30.48,0,0,1,7.36-13c2.74-2.67,7.82-6.91,10.78-2.28,3.23,7.23-7.88,4.41-10.89,21.17-1.5,6.73-1.46,13.6-1.27,20.42C171.1,105.2,165.87,105.87,164.15,102.67Zm58.5,53.72c-14.5-2-28.6-14.38-26.82-30,.3-5.23,2.26-10.18,4.49-14.87a4.32,4.32,0,0,1,5.57-2.26c5.13,2.52,1.09,7.49-.15,11.17-3.4,8.36-.92,18.41,7,23.16,15.42,11.1,35.27,0,42.9-15.16,7.08-14.63.67-35.24-14.64-41.74-3.8,6-10.95,9.88-18.1,8.74-6.7,3.55-13.87,7.19-21.62,7.14a17.77,17.77,0,0,1-18-15.54c-3.72-1.2-3.67-6.94.11-8a24.83,24.83,0,0,1,7.77-14.71c5.11-4.73,14.89-6.1,18.53,1,4.53,10.63-8.35,20.25-17.56,22.3,3,9.95,15.49,6.24,22.26,2.63-5.87-8.89.5-23.46,10.29-26.64,9.81-2.88,16.44,4.72,12.95,14.18,3.19-1.17,6.37,1,9.17,2.35,14.58,7.31,21.52,24.66,20,40.36C264.05,140.78,243.53,159.09,222.65,156.39Zm-.72-70.47c4.16-3.39,8.16-8.51,8.09-14.1C224.17,69.53,218,82,221.93,85.92Zm-29.77-7c3.7-1.54,10.09-5.29,10-9.75C196.93,67.74,193.25,74.56,192.16,78.88Zm69.18,8.31c-4.87-5.94-5.63-13.61-6.3-21-.52-3.14,2.89-6,5.86-4.58,4.47,2.06,2.26,11,4.39,15.31a20.63,20.63,0,0,0,2.77,5C271.39,86.42,264.77,91.55,261.34,87.19Zm39.72,8.13c-11-3.41-13.67-16.54-17.64-25.93-1.82,4.12-1.78,8.71-2.09,13.11-.13,2.08-.07,4.52-1.66,6.08a4.34,4.34,0,0,1-6.82-1c-1.59-4.82-1.72-10.06-2.61-15.06-.29-3.81-1.56-7.7-1.15-11.5,1.48-4.95,8.75-3.54,8.39,1.59,2-3.45,6.64-5.42,10-2.67,5.69,4.67,7.72,25.28,16.16,27.28-5-9.38-3.16-23.5,5.46-30.19C318,51,326.87,58.15,327,68c2.39,4.07-1.35,8.72.13,13.12,1.37,7.29,9.58,6.41,13.86,2.19,4.31-3.9,7-9.2,9-14.6,1.05-3.36,1.71-7.62,6.35-6.63,5.26,1.71,2.28,7.71,1,11.29-3.19,8.21-8.38,16.37-16.63,20.18-6.86,3.32-16,1.29-19.89-5.56C316,93.44,308.44,97.34,301.06,95.32ZM312,83.86c3.85-1.26,5.32-7.19,6.39-10.76.28-2.81,1-9-2.51-9.75C309.22,64.41,307.38,80,312,83.86ZM253,44.18c-.27-2.39-.72-4.72-1.13-7.08-.09-4.23,5.88-5.82,7.93-2.13,1.24,2.46,1.09,5.4,1.63,8.06C262.12,48.52,253.84,49.69,253,44.18Zm-116.9,17c0-.54-.07-1.06-.11-1.56a70,70,0,0,0-2.47-16c-1.44-6.66-10.66-3.46-8,2.79,1.61,5.68,2,11.61,2.16,17.48a6.63,6.63,0,0,0,1.21,3.52,5.28,5.28,0,0,0,5.89,2.17c4.93.57,3.91,9-.07,10.42a1.78,1.78,0,0,1-.29.12,1.64,1.64,0,0,0,0-.22,4.28,4.28,0,0,0-4-4.48c-6.07,0-4.05,7.51-5.52,11.41C119.64,104,110.82,110,93,107.68,83.19,107.24,75,99.38,71,90.81a100.72,100.72,0,0,1-3.45-10.59C66.41,76.65,66.44,70,61,71c-6.21,1.91-1.71,9.45-.95,13.73,3.92,17.14,17,31.62,35.55,31.73,19.07,1.56,30.13-6.74,36.57-24.4.34-1,.62-1.92.87-2.89a14.79,14.79,0,0,0,10.37-5.54C149.66,75.93,146.05,62.1,136.1,61.17ZM97,77.48c-6.61-2.64-4.88-11.15-5-16.85.32-3-.4-6.35.9-9.07,2.47-4,8.87-1.2,7.66,3.29l.08-.18.06-.53c0,5.21-.65,10.46-.08,15.65a5,5,0,0,0,3.1.24,4.29,4.29,0,0,1,5.07,3.23C109.7,79.67,101,79.41,97,77.48Zm15.54-14.21c-3.79-.25-4.38-4.05-3.85-7.13-.26-2.78,1.44-5.82,4.56-5.6,4.87.53,4,5.16,3.77,8.72A4.3,4.3,0,0,1,112.53,63.27Zm-31.33,0c-3.79-.25-4.39-4.05-3.86-7.13-.26-2.78,1.45-5.82,4.57-5.6,4.87.53,4,5.16,3.77,8.72A4.3,4.3,0,0,1,81.2,63.27Zm20.83,39c-7-1-5.23-10.76,1.54-8.43,4.86,2,7.19-2.23,8.66-6.15-4.09.41-15.94,3.52-18.85,1a4.28,4.28,0,0,1,.78-7,13.32,13.32,0,0,1,4.57-.7c5.43-.35,10.75-1.55,16.12-2.29,4-1.1,7.41,2.68,6.68,6.59C120.17,95.19,113.23,105.36,102,102.24Zm-55-28.15a4.29,4.29,0,0,1,.28-6A98.62,98.62,0,0,0,61,54.33c9.73-13.45,17.34-30.15,32.57-38.26,4.41-2.52,14.93-4,12.54,4.13-1.57,3.51-5.58,1.63-8.31,3.28C91.24,26.56,86.62,32.38,82.33,38c-7.17,9.25-12.22,20.11-20.65,28.35-2.74,2.81-5.64,5.45-8.61,8A4.31,4.31,0,0,1,47.06,74.09Zm-2.93,61.49c-13.58-.63-26.31-7.2-36.34-16.12-3.22-3.51-10.53-8.9-6.71-14.08,3.39-2.7,7.85-3.79,11.44-6.25,15-9.61,20.64-27.47,28.77-42.36C48,45.44,52.36,32.78,60,22,65.31,15,71.74,8.48,79.49,4.16c7-3.49,18.82-7.16,24.78-.28a3.56,3.56,0,0,0-.8-.84c4.2,3.61-.75,9.38-4.73,7A10.41,10.41,0,0,0,92.5,8.74c-8.22.72-15.48,7-21.06,12.72C65,28,61.11,36.3,57.27,44.49c-3.66,7.7-8,15-11.75,22.7-8,16.8-17.1,35.15-35.2,42.75,20.13,20.76,41.41,20.77,66.61,9.83,5.25-1.8,8.12,5.92,2.91,8C68.52,132.44,56.52,136.19,44.13,135.58ZM144.67,46.44c-4.78-8.83-16.39-28.47-25.9-31.63-3-1.33-6.14,1.35-8.92-.4a4.3,4.3,0,0,1-.08-7.1c12.8-5.72,23.77,6.71,30.44,16.22a124.82,124.82,0,0,1,12,19,4.25,4.25,0,1,1-7.54,3.94Zm-21.86,83a4.28,4.28,0,0,1,3.23-5.07c9.26-1.81,19-2.94,27.32-7.57a24.79,24.79,0,0,0,6.79-5.64,4.75,4.75,0,0,1,3.91-3.31,4.36,4.36,0,0,1,4.38,5.82,16.18,16.18,0,0,1-4.06,5.45c-6.35,6.14-15,9.19-23.48,11-4.33.89-8.68,1.72-13,2.51A4.32,4.32,0,0,1,122.81,129.43Z"/></g></svg>