<svg id="Layer_1" data-name="Layer 1" xmlns="http://www.w3.org/2000/svg" viewBox="0 0 156.66 156.66"><path d="M71.84,90c-.61-3.55-.2-7.22-.25-10.81.33-3.26-.68-7.86,3-9.52,3.9-1.43,6.78,2.19,5.66,5.91C80.05,79.3,80,83,80,86.79c3.32.09,6.75-.7,7.64,3.6A4.29,4.29,0,0,1,84,95.18C79.5,95.7,73,95.33,71.84,90Z"/><path d="M73.39,118.4c-5.33-1.61-3.15-9.55,2.26-8.19a9.89,9.89,0,0,0,11.76-5.35,111.15,111.15,0,0,1-17.74,1.91c-5.57-.13-5.58-8.37,0-8.5,1.27,0,2.55-.11,3.65-.2a106.7,106.7,0,0,0,13.91-1.8c1.47-.31,2.92-.68,4.39-1,3.87-.82,6.39,3,5.56,6.5A22.29,22.29,0,0,1,90,115.12,18.65,18.65,0,0,1,73.39,118.4Z"/><path d="M76.81,131.94c-13.15-1.56-24.26-8.43-29.08-21.12-2.19-5-3-10.42-3.78-15.78,0-4.62,6.51-5.81,8.17-1.65,2.62,17.73,8.14,28.5,27.52,30.29,11.23,1.35,19.63-4.86,23-15.45a66.28,66.28,0,0,0,2.63-11.89,4.25,4.25,0,1,1,8.42,1.15,78.18,78.18,0,0,1-2.28,11.13C107,125.18,94,134.53,76.81,131.94Z"/><path d="M109.79,108.35c-5.09-2.31-1.88-9.88,3.3-7.83,3.71.89,7.42-2.86,7.46-6.5.4-3.75-2.77-6.72-6.29-7.3-3-.25-6.32-.2-7.25-3.73-.57-4.34,0-8.8-.42-13.18a63.53,63.53,0,0,0-1-7.14c.09-5.2,7.65-5.74,8.46-.59,1.22,5.29,1.22,10.77,1.23,16.18,15.69,2.28,19,22.83,4.64,29.57C116.7,109.24,113.09,109.78,109.79,108.35Z"/><path d="M39.49,79.88c-4.28-2.94-1-6.49.71-9.81a72.34,72.34,0,0,0,3.3-7.82,5.64,5.64,0,0,1,1.79-3.15,4.3,4.3,0,0,1,6,.77,4.23,4.23,0,0,1,.61,4.07A64.64,64.64,0,0,1,45.3,78.35,4.32,4.32,0,0,1,39.49,79.88Z"/><path d="M70.71,42.61c-14.16-.19-28.12-2.7-42-5.28-3.71-.69-7.43-1.47-11.17-2-2.39-.45-5.4.16-6.77-2.39a4.39,4.39,0,0,1,2.44-6.27A409,409,0,0,1,71.05,0c12.18.42,24.34,3.29,36.3,5.73,7,1.35,13.91,2.81,20.83,4.25,4.95,1,9.92,1.9,14.82,3.09,3.57.39,6,4.23,3.66,7.32a7.61,7.61,0,0,1-3.39,2.09c-4.9,2.11-10.08,3.35-15.18,4.86-10.72,3.45-21.51,6.68-32.31,9.9-5.86,1.53-11.42,4.29-17.37,5.38C75.86,42.77,73.27,42.67,70.71,42.61Zm.61-8.49c2.26,0,4.56.14,6.82,0,4.67-1.56,9.3-3.21,14-4.66Q110,24.13,127.86,18.55c-18.46-3.7-36.76-8.85-55.59-10C57.3,14.68,42,21.17,27.6,28.5,42.05,31.16,56.57,34,71.32,34.12Z"/><path d="M66.6,67.28c-10.31-.1-20.76-1-30.64-4.09-3.44-.86-6.72-3-7.17-6.76A137.42,137.42,0,0,1,27.31,41c0-2.41-.56-5.1.59-7.32a4.28,4.28,0,0,1,5.81-1.52c2.9,1.6,1.84,5.05,2.07,7.74a137.91,137.91,0,0,0,1.31,14.7c16.37,5.35,34.2,4.88,51,2.6,12.32-1.44,25.11-4.33,34.36-13.14a4.26,4.26,0,0,1,7.89,3.06c-1.57,4.4-10.45,9.58-14.64,11.76C100.36,65.55,83.16,66.82,66.6,67.28Z"/><path d="M124.62,69.29c-1.38-13.45-2.92-26.92-3.89-40.4-15-1.9-30.45-2-45.2-5.1a4.87,4.87,0,0,0,.6.31,4.28,4.28,0,0,1-2.27-5.57c1.58-3.64,5.82-2.44,8.88-2.06,11.71,1.83,23.56,2.28,35.32,3.61,9.11.59,11.34,1.56,11.28,11.18,1.2,12.29,2.37,24.6,3.7,36.88C133.66,73.65,125.53,74.83,124.62,69.29Z"/><path d="M124.21,77.61c-3.23-4.34.67-12,6.3-10.64,2.25,1,4.84,2.42,5.45,5C137.65,78.65,128.26,83.44,124.21,77.61ZM126.39,74a5.13,5.13,0,0,1-.82-1.49,4.43,4.43,0,0,0,.69,1.33h0Z"/><path d="M31.25,156.14c-8.53-.58-27.72-5.62-30.48-14.69-.41-2.48,1.32-4.39,2.74-6.19a46.22,46.22,0,0,0,4-8.84c7.13-22.62,10.31-47.17,22.57-67.8a4.38,4.38,0,0,0-.56,1c1.63-4.24,8.22-3.05,8.19,1.57-.17,2.45-1.86,3.63-2.67,5.72A123.74,123.74,0,0,0,29.14,81.2c-2.56,7.45-4.81,15-6.78,22.64-3.44,12.29-5.21,25.49-12,36.5,15.32,10.62,44.39,11.06,57.82-3,4-3.85,9.85,2,6,6C63.29,154.76,46.35,157.68,31.25,156.14Z"/><path d="M104.64,145.1a4.27,4.27,0,0,1,3.45-5.08c3.58-1.37,7.12-2.85,10.67-4.3,10.44-4.16,20.71-9.54,28-18.33-1.69-6.39-4.53-12.41-7.42-18.33-1.48-4.09-6.91-10.93-.94-13.64,4.47-1.39,5.67,3.08,6.83,6.16s2.81,5.83,4.16,8.78c7.9,18.48,9.61,19.55-7,32.52-6,4.6-13,7.47-19.86,10.45-3.05,1.31-6.15,2.51-9.22,3.76C110.29,148.7,105.66,149.4,104.64,145.1Z"/><path d="M55.67,79.31c-1.54-1.49-1.22-3.7-1.4-5.64a4.35,4.35,0,0,1,4.11-5.47c4.46.1,4.49,4.79,4.54,8.1C63.14,80,58.11,82,55.67,79.31Z"/><path d="M86.49,75.53c.08-1.3.12-2.61.23-3.91.83-5.43,8.89-4.5,8.44,1-.22,2,.2,4.37-1.41,5.93C91.29,81.2,86.31,79.2,86.49,75.53Z"/></svg>