<svg id="Layer_1" data-name="Layer 1" xmlns="http://www.w3.org/2000/svg" viewBox="0 0 156.66 156.66"><path d="M71.71,78.8c-4.8-.66-9.31-3.88-9.48-9.06-.56-5.06-.31-10.17-.37-15.25.13-5.57,8.36-5.59,8.5,0,0,4.19-.11,8.41.15,12.6.17,2.39-.07,2.85,2.41,3.3a4.25,4.25,0,0,1-1.21,8.41Z" style="fill:#0c0c0c"/><path d="M46,64.18c-2.23-2.59-1-6.46-1.31-9.6a4.29,4.29,0,0,1,4.25-4.25c5.72.26,3.94,7,4.31,10.84C53.41,64.84,48.43,66.84,46,64.18Z" style="fill:#0c0c0c"/><path d="M77.3,60.16C77.51,57,76.22,52.9,79,50.49a4.28,4.28,0,0,1,6,.76c1.69,2.58.43,6,.88,8.91C85.69,65.73,77.46,65.74,77.3,60.16Z" style="fill:#0c0c0c"/><path d="M64.87,101.6c-5.84.09-12.05-2-15.23-7.16-2.42-3.75-4.71-11.29,1-13.2,2.08-.61,4.29.09,6.37.38A36.55,36.55,0,0,0,72.38,81c3.59-.63,6.34,4,3.94,6.81C72.7,91.51,62,90.6,57,90.21c2.23,3,6.66,3.14,10.06,2.67a4.53,4.53,0,0,1,6.33,2.68C74.63,100.55,68.59,101.71,64.87,101.6Z" style="fill:#0c0c0c"/><path d="M103.73,80.85c-.1-5.44-3.78-13.07,4.14-14.41a93.48,93.48,0,0,1,9.72-1.21c2.85-.11,6-1.09,8.66.28,3,1.87,3.12,6.12,3.28,9.28.15,3.74,1.18,9-4.07,9.3-5.59-.24-4-6.85-4.52-10.65-1.68.14-3.37.33-5,.5-1.44.16-2.89.28-4.33.48.33,2.12.49,4.25.67,6.39C112.1,86.36,103.91,86.4,103.73,80.85Z" style="fill:#0c0c0c"/><path d="M105.23,70.89A43.54,43.54,0,0,0,92.06,55.1a33.27,33.27,0,0,0-4.8-2.62c-5.84-2.9-2.58-7.66.85-11a98.26,98.26,0,0,0,18-30c1.32-2.73,1-6.85,4.18-8.24,6.59-2,6.26,5.73,6.3,10.08.12,3.09.24,6.19.33,9.29.16,8.13.21,16.4,1,24.47.6,5.55-7.56,6.66-8.42,1.15-.68-7.1-.79-14.25-1-21.38A111,111,0,0,1,94.74,46.78c7.64,4.7,16.65,14.3,18.87,23.1C113.54,74.85,106.45,75.68,105.23,70.89Z" style="fill:#0c0c0c"/><path d="M118.46,68.73c.69-8.3,7.18-18.52,12.14-25.14-10.6-7.62-16.09-20-19.87-32.15-.52-1.79-1.16-3.06-.44-4.79,1.26-3.36,6.59-3.43,7.83,0a107.76,107.76,0,0,0,6,15.66,38.33,38.33,0,0,0,12.56,15.26c6.67,4.57,3.5,7.71-.42,12.68a57.08,57.08,0,0,0-9.37,18.35C126.36,73.5,119.15,73.65,118.46,68.73Z" style="fill:#0c0c0c"/><path d="M112.86,55.8c-8.76-1.55-5.59-15.21,3-13.13C123.36,45,120.61,57,112.86,55.8Z" style="fill:#0c0c0c"/><path d="M109.86,127.37a15.65,15.65,0,0,1-8-3.7c-3.7-3.23-5.36-13.2,1.68-12.86a4.34,4.34,0,0,1,3.67,4.29c-.52,2.45,1.81,3.44,3.81,3.84,4.8.92,9.65-.9,14.41-.66a4.3,4.3,0,0,1,3,5.23c-.53,2.27-2.87,3.22-5,3.32C118.9,127.34,114.34,128.1,109.86,127.37Z" style="fill:#0c0c0c"/><path d="M103.71,114.11c-5.88-1.53-8.57-8.26-7-13.81.5-1.71,1.28-3.57,3-4.29,3.31-1.55,7.19,2.24,5.57,5.57-2.3,5.53,3,4.64,6.6,4.53,4.39,0,8.78,0,13.17-.09,4.56,0,5.83,6.48,1.66,8.16-2.76.76-5.81.16-8.67.4C113.29,114.37,108.38,115.3,103.71,114.11Z" style="fill:#0c0c0c"/><path d="M116,141.74c-4-.34-8.19-1.24-11-4.32-3.91-4.14-5.09-11.41-1.46-16.06a4.25,4.25,0,1,1,6.72,5.19c-.92,1.62-.17,4,1.14,5.25,2.41,1.7,5.72,1.4,8.54,1.79,5.47.47,11.92-.91,14.38-6.38,4.21-8.37,4.65-26,2.25-35.06-1.33-3.65-4.18-7.75-8.37-8.09-8.06-.21-16.21-.46-24,1.7-4.84,1-4.18,8.77,1,8.41a91.67,91.67,0,0,0,12.32-.28c2.64.12,5.34-1.22,7.64.46,3.49,3,1,7.85-3.34,7.76-5.51.33-11,.87-16.54.56C95.64,103,90,93,93.6,84.42c5-10,19.92-8.46,29.41-9,9.88-.81,17,3.15,21,12.31,3,7.32,2.59,16.47,2.21,23.9C145.72,131.17,137.52,145,116,141.74Z" style="fill:#0c0c0c"/><path d="M91.76,124.91c-7.82-5.24-8-17.81-7.91-26.34.05-6.64,3.44-14.86,11-15.22,5.36.11,5.68,7.92.37,8.48-4.95,2.58-2.57,15.24-1.86,20,.7,3.9,2.72,7.75,7.32,6.37,5.14-1.69,8,5.76,3.06,7.91A14.06,14.06,0,0,1,91.76,124.91Z" style="fill:#0c0c0c"/><path d="M64.13,117.91c-23.06-2.75-29.86-17.67-34.36-38.25-1.45-5.63,7-7.65,8.25-2,3.42,14.63,7,28.34,23.86,31.29,5.66,1.08,12.05,1.57,17.14-1.61,4.84-2.73,9,4.37,4.29,7.34C77.67,118.26,70.61,118.75,64.13,117.91Z" style="fill:#0c0c0c"/><path d="M28.4,154.14c-9.81-4.39-12.29-34.47-13.39-44-1.51-21.42,1.13-27.31,9.87-46,2.3-6.82,3.87-13.89,6.53-20.6C38.2,25.21,53.76,11.65,74.14,15.59a72.7,72.7,0,0,1,10,2.57,4.28,4.28,0,0,1-2.07,8c-1.49-.1-2.85-.81-4.34-1C46.85,16.56,39.49,44,32.73,67.37c-3.51,8.82-9.24,17.45-9.34,27.21-.55,10.91,1,42.63,7.65,51.34,5.29,2.9,12,1.65,17.23-.89a47.92,47.92,0,0,0,8.64-5.82c3.16-2.28,5.94-8.67,10.52-5.42a4.27,4.27,0,0,1,.76,6,51.49,51.49,0,0,1-14.34,11.93C46.32,156.06,36.56,157.69,28.4,154.14ZM78.24,23.77a5.23,5.23,0,0,1-.44-1.87A5.48,5.48,0,0,0,78,23h0A5.28,5.28,0,0,0,78.24,23.77Z" style="fill:#0c0c0c"/><path d="M8.47,70.24c-3.06-2.55-1.27-5.68.84-8.13a77.32,77.32,0,0,0,7.21-14.34c6.15-15.05,13-31,26.82-40.6,14.93-11,34.55-9,47.83,3.57,4.3.24,11-.65,12.88,4.21a4.28,4.28,0,0,1-3,5.23c-1.51.5-2.67-.28-4-.61-2.77-.64-5.67.06-8.41-.67-4.31-1.73-7.24-5.77-11.48-7.7-16-7.81-32.3,2-41.07,15.69-5.37,7.86-8.56,16.91-12.35,25.57a81.44,81.44,0,0,1-7.26,14.15C14.93,69.47,11.78,72.79,8.47,70.24ZM97.75,19.68A4.46,4.46,0,0,1,96,17.73,4.16,4.16,0,0,0,97.75,19.68Z" style="fill:#0c0c0c"/></svg>