<svg id="Layer_1" data-name="Layer 1" xmlns="http://www.w3.org/2000/svg" viewBox="0 0 359.35 156.66"><path fill="#ffffff" d="M161.5,109.68a59.34,59.34,0,0,1-11.4,7.22A69.79,69.79,0,0,1,133.18,123a73.35,73.35,0,0,1-8.72,1.18c-3.09-.19-6.45.61-6.54,4.32.58,6.8,9.55,3.62,14,3.36a80.22,80.22,0,0,0,30.41-12.18c2.18-1.71,5.44-3,6-6C169,110,164.28,107.27,161.5,109.68ZM149.07,34.39c-4.86-8.13-8.42-18-16.62-23.38-9.45-5.4-12.95,7.3-4.43,7.27,3.94,2.5,6,6.92,8.35,10.78,3,5.15,5.84,10.43,8.52,15.76,1.67,3.24,7,2.49,7.77-1C153.28,40.4,150.24,37.44,149.07,34.39ZM116.9,2.47c-14.42-5.73-31.21-.82-43.07,8.41C63,19.4,54.6,30.46,45.6,40.76,36.54,52.44,26.53,63.94,14,72A28.62,28.62,0,0,1,7.5,74.43c-3.3.49-7,1.18-7.5,5.16C-.24,83.7,2.27,87.45,4.07,91c8.22,14.82,24.34,23.72,40.11,28.52l.88.22a46,46,0,0,0,23.29-1c5.3-1.74,2.85-9.61-2.51-8.12a38.44,38.44,0,0,1-28.28-2.49c-11.71-5.37-23.16-13-28.18-25.42,11-2.34,19.08-10.75,26.91-18.24,6.27-5.86,11.41-12.73,16.76-19.41,6.61-7.59,13-15.37,20.16-22.48C83.72,12.23,100.09,4.5,114.59,10.72c1.33.6,2.35,1.73,4,1.57a4.29,4.29,0,0,0,4.08-4.42C122.48,4.8,119.38,3.46,116.9,2.47Zm-4.06,10.67A23.69,23.69,0,0,0,88,17.25c-8.79,7-14.7,16.76-23,24.21a41.57,41.57,0,0,1-9.26,6.77,4.38,4.38,0,0,0-2.5,5.84A4.05,4.05,0,0,0,56,56.4a6.24,6.24,0,0,0,4.91-1.33,46.48,46.48,0,0,0,7.25-5c8.48-7,14.62-16.14,22.41-23.76,4.66-4.7,11.14-8.19,17.81-5.7A24.46,24.46,0,0,1,113.69,23c2.74,2.1,5.88,4.76,8.79,1.2C126,18.61,116.81,15,112.84,13.14Zm-3.4,66.78a71.1,71.1,0,0,1-18.38-3.59c-2.31-.71-4.64-2.35-7-.38a4.3,4.3,0,0,0-.6,6c1.25,1.53,3.48,2,5.27,2.57a79.3,79.3,0,0,0,17.76,3.72c-2.76,4.53-7.57,7.19-12.49,4-5-2.55-8.89,4.68-4.07,7.47a16.57,16.57,0,0,0,4.82,2,17,17,0,0,0,17.71-7.24C117,89.28,119.2,79.73,109.44,79.92Zm-6.81-10.5a10.48,10.48,0,0,1-3.92-2.29,103.52,103.52,0,0,1,4.73-11.44c1.84-2.85,1.8-6.89-2-7.9-5-1-5.72,5.3-7.57,8.54-4.9,10.17-6.32,16.2,5.74,21,.19.07.38.12.57.17C105,78.66,107.6,71.46,102.63,69.42Zm18.94-11.63c-3.14-2.7-7.48-4.51-11.56-3-3.51,1.17-5.16,5.5-1.92,8a4.32,4.32,0,0,0,1.5.67,4.39,4.39,0,0,0,3.64-.73c2.54-.09,2.3,1.21,3.34,1.91C121.13,67.87,126,61.22,121.57,57.79ZM80.15,47.23c-.31,1.32-.73,2.61-1,3.93a4.25,4.25,0,0,0,8.28,1.93c.31-1.32.73-2.61,1-3.93C89.56,43.7,81.55,41.83,80.15,47.23ZM261.43,43c-.54-2.66-.39-5.6-1.63-8.06-2.05-3.69-8-2.1-7.93,2.13.41,2.36.86,4.69,1.13,7.08C253.84,49.69,262.12,48.52,261.43,43Zm94.91,19c-4.64-1-5.3,3.27-6.35,6.63-2,5.4-4.69,10.7-9,14.6-4.28,4.22-12.49,5.1-13.86-2.19-1.48-4.4,2.26-9.05-.13-13.12-.13-9.85-9-17-17.9-10.93-8.62,6.69-10.46,20.81-5.46,30.19-8.44-2-10.47-22.61-16.16-27.28-3.36-2.75-8-.78-10,2.67.36-5.13-6.91-6.54-8.39-1.59-.41,3.8.86,7.69,1.15,11.5.89,5,1,10.24,2.61,15.06a5.09,5.09,0,0,0,.68.92,4.34,4.34,0,0,0,6.14.08c1.59-1.56,1.53-4,1.66-6.08.31-4.4.27-9,2.09-13.11,4,9.39,6.64,22.52,17.64,25.93v0c7.38,2,14.94-1.88,19.76-7.33,3.89,6.85,13,8.88,19.89,5.56,8.25-3.81,13.44-12,16.63-20.18C358.62,69.79,361.6,63.79,356.34,62.08Zm-37.95,11c-1.07,3.57-2.54,9.5-6.39,10.76-4.62-3.86-2.78-19.45,3.88-20.51C319.39,64.1,318.67,70.29,318.39,73.1ZM268.06,82a20.71,20.71,0,0,1-2.77-5c-2.13-4.31.08-13.25-4.39-15.31-3-1.42-6.38,1.44-5.86,4.58.67,7.39,1.43,15.06,6.3,21v0C264.77,91.55,271.39,86.42,268.06,82ZM246.8,80.14c-2.8-1.35-6-3.52-9.17-2.35,3.49-9.46-3.14-17.06-12.95-14.18-9.79,3.18-16.16,17.75-10.29,26.64-6.77,3.61-19.26,7.32-22.26-2.63,9.21-2.05,22.09-11.67,17.56-22.3-3.64-7.1-13.42-5.73-18.53-1A24.84,24.84,0,0,0,183.39,79c-3.78,1.06-3.83,6.8-.11,8a17.77,17.77,0,0,0,18,15.54c7.75.05,14.92-3.59,21.62-7.14,7.15,1.14,14.3-2.74,18.1-8.74,15.31,6.5,21.72,27.11,14.64,41.74-7.63,15.16-27.48,26.26-42.9,15.16-7.92-4.75-10.4-14.8-7-23.16,1.24-3.68,5.28-8.65.15-11.17a4.33,4.33,0,0,0-5.57,2.26c-2.23,4.69-4.19,9.64-4.49,14.87-1.78,15.62,12.32,28,26.82,30,20.88,2.7,41.4-15.61,44.15-35.89C268.32,104.8,261.38,87.45,246.8,80.14Zm-54.64-1.26c1.09-4.32,4.77-11.14,10-9.71.09,4.46-6.3,8.21-10,9.75Zm29.77,7C218,82,224.17,69.53,230,71.82,230.09,77.41,226.09,82.53,221.93,85.92ZM184.13,60c-3-4.63-8-.39-10.78,2.28a30.56,30.56,0,0,0-7.36,13c-1.85-4.8-7.4-27.1-14.66-22.39C147.1,56,150.27,59,152,62.37a87.59,87.59,0,0,1,4,9.73c3.56,9.9,5.47,20.43,8.15,30.57,1.72,3.2,6.95,2.53,7.82-1-.19-6.82-.23-13.69,1.27-20.42C176.25,64.44,187.36,67.26,184.13,60Z"/><path fill="#ffffff" d="M136,95.7a16.07,16.07,0,0,1-8.48.86,5.83,5.83,0,0,1-1.07-.35c-.31.45-.62.9-.94,1.34-8.56,12.93-21.22,20.2-35.9,16.78a38.7,38.7,0,0,1-5.13-1.61C68.85,106.5,59.43,96.14,58,79c-.15-4.66-2.86-16.19,4.9-15.13a4.29,4.29,0,0,1,3.22,4.86,40.66,40.66,0,0,0,.11,7.41c.68,6.81,2,14,6.8,19.23a41.08,41.08,0,0,0,16.43,10.07c14.83,4.91,24.9-5.44,32-17.17,2-3,3.71-8.21,8.28-5.94a4.29,4.29,0,0,1,1.7,5.76s0,0,0,0a5.68,5.68,0,0,0,1.16-.23c1.79-1.05,2.76-3.43,3.11-5.41,0-2.79-2.57-4-4.81-4.89-3.83-2.1-2.64-5.78-1.38-9.09a78.71,78.71,0,0,0,3.15-14.93c.28-4.31,6.78-5.57,8.3-.91.35,6.29-1.85,12.63-3.47,18.68C147.51,76.52,145.38,91.17,136,95.7Z"/></svg>