<svg id="Layer_1" data-name="Layer 1" xmlns="http://www.w3.org/2000/svg" viewBox="0 0 156.66 156.66"><path d="M141.17,152.43c-.9-15.85.56-31.81-1-47.6-19.9-1.25-39.78.71-59.67,1-21.64.91-43.74.47-64.92,5.42.42,12.46.49,24.93,1.77,37.34-.11,5.55-8.38,5.59-8.5,0-.4-4.32-.74-8.64-1-13C7.27,127.53,7.42,119.08,7,111a7,7,0,0,1,.72-4.27c5-6.85,25.94-6.39,34.46-7.79,23.8-1.62,47.67-1.72,71.5-2.79,6.45-.26,12.89-.35,19.34-.2,5.28.52,13.9-1.21,15.13,5.79,2.48,16.72.42,33.79,1.49,50.65C149.58,158,141.28,158,141.17,152.43Z"/><path d="M76.84,136.75c-2.85-2.36-2.66-7.33.59-9.23,1.63-4.41,8.2-3.1,9.64.84C89.82,134.35,82.19,141.49,76.84,136.75Z"/><path d="M18.2,106.49c-3.37-3.33-1.69-10.17-1.33-14.45a32.71,32.71,0,0,1,6.35-15.91,90.28,90.28,0,0,0,9.13-17.82c4.16-9.74,6.56-20.54,13.57-28.78,11.47-15.08,34.05-17,50.17-8.74a4.23,4.23,0,0,0-.54-.26c5.39,2.38,1.62,10.36-3.65,7.64C81,22.89,66.15,22.72,56.51,30.73c-9,7.59-11.62,19.47-15.93,29.92a109.71,109.71,0,0,1-8.79,17.91C29.06,82.64,26.5,86,25.68,90.84c-.65,3.84-1.33,7.82-.67,11.7C25.7,106.16,21,108.84,18.2,106.49Z"/><path d="M131.45,103a4.37,4.37,0,0,1-3.6-5.19c.14-2.44,0-4.9-.06-7.34a311.86,311.86,0,0,0-3.41-41.6c-1.59-8.26-5.19-16.37-11.65-22a24.76,24.76,0,0,0-7.9-4.92c-2.84-1.17-6.2-.83-8.77-2.61-2.35-2.13-3.26-5.55-6.12-7.24C78.43,5,62,11,52.51,19.26c-8.07,7.27-13,17.25-18.77,26.32C30,52,26.78,58.7,22.81,65c-1.43,1.75-2.06,4.45-4.49,5.08a4.3,4.3,0,0,1-5.23-3c-.7-2.75,1.52-4.95,2.85-7.13,1.94-3,3.59-6.25,5.32-9.41,3.51-6.47,7.1-12.9,11.19-19,3.92-6,7.54-12.39,12.95-17.25,14-13.72,43.85-21.74,55.92-1.81C113.49,14,123.24,23.27,128.44,34c6.27,13.44,6,28.74,7.36,43.23.35,6,.54,12,.6,18C136.57,98.85,136.32,103.34,131.45,103Z"/><path d="M52.63,81.93a18.52,18.52,0,0,1-6.13-4.09c-3.83-4,2-9.86,6-6,1.93,1.89,4.84,3.46,7.56,2.47,3.31-.75,7.34-5.83,3.78-8.47A53.13,53.13,0,0,0,48.79,67.6,4.35,4.35,0,0,1,42.26,64C42,57.63,56.94,57.83,61.5,57.26c7-1,13.08,5.39,12.13,12.29C72.83,79.15,61.43,86,52.63,81.93Z"/><path d="M73.84,83.19c-4-2.58-3.48-8-4.19-12.16-.59-5.16-1.53-10.33-1.45-15.55.14-5.57,8.37-5.58,8.5,0,.09,6.91,1.32,13.79,2.21,20.63,2.73-.26,5.59,1.28,5.58,4.3C84.31,85.8,77.19,85.33,73.84,83.19Z"/><path d="M86.93,78.17C77.51,76,72,65.63,79,57.79c6-5.18,14.69-4.53,22.13-4.41,5-1.14,7.35,6.07,2.58,8.09-3.43,1-7.11,0-10.63.31s-12.31,1.53-7.33,6.49c3.6,3.2,8.47,1.62,12-.84,4.85-2.73,9,4.37,4.29,7.34C97.62,77.68,92.2,79.49,86.93,78.17Z"/><path d="M52,66.23c-.67-4.74-1.38-9.74-.32-14.46,1.58-4.33,8.24-3.15,8.22,1.5a41.79,41.79,0,0,0,.52,11.81C61.12,70.59,53,71.76,52,66.23Z"/><path d="M88.93,63.72c-3-2.94-1.9-8.74-2.34-12.64.16-5.59,8.4-5.58,8.51,0a46.63,46.63,0,0,0,.64,8.67C96.42,63.41,91.73,66.06,88.93,63.72Z"/><path d="M46.45,105.5A20.75,20.75,0,0,1,38.3,93.43c-1.19-4.33-2.4-8.81-2.4-13.33,0,.13,0,.26,0,.31a.59.59,0,0,1,0,.11c0-.19,0-.39,0-.57.74-5.17,8.37-4.72,8.47.54A50.16,50.16,0,0,0,47,92.74a11.63,11.63,0,0,0,4.65,6C56,102.29,50.94,108.81,46.45,105.5Z"/><path d="M80.28,96.65c-5.16-2.35-1.79-9.9,3.31-7.83,4.56.43,6.47-6.9,11.25-3.44C101.55,91.8,85.7,99.86,80.28,96.65Z"/><path d="M109.28,93.31c-3.13-2.26-1.4-7.66,2.49-7.64,3.57-1.21,4.89-7,3.15-10.1-1.35-2.46-4.4-2.95-6.94-3.33-3.34-.7-3.93-4.36-3.52-7.24,0-3.25-.11-6.53-.33-9.77a64.33,64.33,0,0,0-.79-6.8,4.25,4.25,0,0,1,7.44-3.83c1.16,1.61,1.06,3.69,1.41,5.57A135.36,135.36,0,0,1,113,64.54C133.34,69.93,122.06,99.09,109.28,93.31Z"/><path d="M101.43,103a4.27,4.27,0,0,1-1.53-5.81,31.76,31.76,0,0,0,2.46-5.68,36.94,36.94,0,0,0,2-8.08,4.32,4.32,0,0,1,4.26-4.46c7.3.73,3.18,10.24,2,14.64C109.13,97.51,107.21,105.77,101.43,103Z"/></svg>