<svg id="Layer_1" data-name="Layer 1" xmlns="http://www.w3.org/2000/svg" viewBox="0 0 156.66 156.66"><path d="M95.46,82.64c-8.69-.19-13.24-6.53-12.09-14.9.53-3.95,0-10.84,5.33-11.16,3.4,0,5.1,3.68,3.75,6.54a37,37,0,0,0-.63,8.06c-.17,3.91,4.81,2,6.65,4.21C101.14,77.84,99.12,82.84,95.46,82.64Z"/><path d="M66.07,68c-.24-1.16-.31-2.38-.66-3.51-2.2-6.11,7.12-8.34,8.26-2.21.32,1.52.56,3,.82,4.57C75.15,72.36,67,73.53,66.07,68Zm3.3-.93a5.21,5.21,0,0,0,1.12-.15h0l.38-.13a4.89,4.89,0,0,1-1.68.24Z"/><path d="M106.89,69.12a4.3,4.3,0,0,1-3.63-4.79c.73-3,.07-7.16,3-9.07,3.52-2.12,7.61,1.81,6.14,5.47C111.75,64.3,112,69.56,106.89,69.12Z"/><path d="M91.62,107.85C92.32,100.06,102,108,103,93c-3.62,1.77-11.21,6.22-14.93,3.73a4.21,4.21,0,0,1-1.54-5.14,4.45,4.45,0,0,1,4.2-2.63,36.15,36.15,0,0,0,6.35-2.43c2.88-1.09,4.94-4.08,8-4.53,8.35-.27,6.85,13.73,5,19a20.28,20.28,0,0,1-5.28,7.81C101.38,111.73,92.22,114.78,91.62,107.85Z"/><path d="M39.74,55.24c-3.33-.43-4.42-4.19-3.06-6.94a81.56,81.56,0,0,1,4-9.9C47.2,24.6,58.43,12.92,72.78,7.31,78.05,5.61,91.05.2,94.78,6c1.44,2.84.22,6.07-.47,9a76.12,76.12,0,0,0-2.48,14.2c-.32,3.77,1,8.83-4.33,9.22a4.31,4.31,0,0,1-4.25-4.25c-.28-7.39,1.11-14.74,3-21.85A50.32,50.32,0,0,0,52.7,34.45a65.87,65.87,0,0,0-7.12,14.12C44.45,51.68,44.09,55.67,39.74,55.24Z"/><path d="M66.69,38a53.77,53.77,0,0,0-6.19-15c-.94-1.36-2.39-2.42-2.3-4.29.08-4.56,6-5.66,8.24-2,4.23,5.58,6.52,12.32,8.45,19C76.23,41.18,68.33,43.4,66.69,38Z"/><path d="M97.25,39.61A58.64,58.64,0,0,1,104.76,16a46.87,46.87,0,0,1,2.61-4.27c2.09-3,7.23-1.57,7.57,2A4.41,4.41,0,0,1,114,17,62.07,62.07,0,0,0,110.68,23c-3.23,5.84-4,12.46-5.5,18.77C103.2,45.46,97.12,43.81,97.25,39.61Z"/><path d="M133.25,47.8A47.36,47.36,0,0,0,117.7,22a58,58,0,0,0-10.84-7.56c-2.73-1.55-7.28-1.84-7.28-5.87C100.75-1,113.94,8.8,118,11.44a65.39,65.39,0,0,1,15.35,15.39c2.79,3.94,9.83,17.67,7.63,22C139.34,52,134,51.35,133.25,47.8Z"/><path d="M47.55,64.59c-4.42-.54-4.95-7-.69-8.27,13-5.36,27-7.91,41-9,11.59-.63,23.34-.61,34.78,1.56,5.48.92,4.41,9.08-1.15,8.42-17.36-3.07-35.34-2.24-52.58,1.22a124.16,124.16,0,0,0-14.75,4C52,63.16,49.91,64.79,47.55,64.59Z"/><path d="M42.87,73.27c-4.22-1.16-4-7.39.24-8.27A171.13,171.13,0,0,1,84.83,53.36a133.89,133.89,0,0,1,46.14.46,4.28,4.28,0,0,1,3,5.23A4.35,4.35,0,0,1,128.4,62a110.83,110.83,0,0,0-13.58-1.63,125.36,125.36,0,0,0-16.1,0,172.5,172.5,0,0,0-41.94,8.48c-3.32,1.15-6.6,2.39-9.84,3.77A5.83,5.83,0,0,1,42.87,73.27Z"/><path d="M42.72,78.71A90.64,90.64,0,0,1,38,67.49a4.27,4.27,0,0,1,4.86-6.1c2.67.67,3.27,3.66,4.12,5.86a63.28,63.28,0,0,0,3.1,7.17C52.73,79.32,45.63,83.47,42.72,78.71Z"/><path d="M129.84,74.67c-5.55-1.85-1.87-8.18-1.15-12.09,1.5-3.73.9-11.22,6.18-11.39,6.87.74,3.3,7.83,2.42,12.05C135.69,67.26,136.18,76,129.84,74.67Z"/><path d="M80,122.25A37.24,37.24,0,0,1,52.25,97.19a115.82,115.82,0,0,1-3.41-11.71c0-4.58,6.45-5.84,8.21-1.61,2.32,7,3.57,14.82,8.68,20.51,7.58,9,20.52,12.06,31.83,10.36,9.8-1.91,17.52-9.77,20.47-19.15a74.06,74.06,0,0,0,2.43-8.53,4.38,4.38,0,0,1,4.87-4c5.34,1.08,3.4,6.47,2.34,10.17a63.68,63.68,0,0,1-3.27,9.36C116.82,120,97.89,127.19,80,122.25Z"/><path d="M122.52,97.16c-5.2-2.31-1.78-10.06,3.42-7.78,5.06,1.59,8.34-4,8.57-8.41a10.1,10.1,0,0,0-1.34-6.4c-2-1.89-2.36-5.21,0-7,6.44-3.94,9.94,6.87,9.9,11.72C143.73,90.28,134,101.76,122.52,97.16Z"/><path d="M16.71,144.55a48.09,48.09,0,0,1-11.5-2.81c-2.56-.74-5.4-2.5-5.16-5.54s3.39-4,5.2-6c5.92-6.81,7.69-20.73,19.14-20.09.72-6.06,4.37-12.19,10.54-13.86l-.27.07A26.19,26.19,0,0,1,40.8,75.93c2.06-3.23,7.49-1.81,7.71,2.06.19,1.83-.95,3.28-2.15,4.5-3.92,5.24-3.79,11.26-2.46,17.3a4.73,4.73,0,0,1-3,4.26c-1.06.47-2.25.24-3.38.34a5.13,5.13,0,0,0-3.39,2.71c-2.75,4,.65,11.67-5.7,12.68-1.87.41-3.54-1.43-5.32-1.11-5.67,3.67-6.19,11.67-10.79,16.42,7.12,2.52,16.75.62,19.73-7,1.3-2.59,1-5.57,2-8.2s4.39-2.43,6.45-4c2.66-1.74,1.49-4.79,1.75-7.36a4.82,4.82,0,0,1,3.51-3.64c3.58-.87,6.93-4,6.32-7.93-1-2.64-.17-5.94,2.87-6.61,5.44-1,6.12,6,5.49,9.87A15.62,15.62,0,0,1,50.82,112c.21,5.67-3.86,11-9.14,12.73C40.58,137,28.79,146,16.71,144.55Z"/><path d="M144,155.8c-2.5-1.3-3.39-4.23-5.35-6.15-8.07-7.58-14.44-15-8.07-26.22-3.6-3-4.79-7.86-4.34-12.34-6-2.35-9.13-6.24-8.21-12.64-.26-5.17,6.61-8.91,7.64-3.76-.17,3.34-.07,6.79,3.46,8.39,2.47.64,4.88,1.36,5.56,4.15.89,3.19-1.51,7.6,1.7,10,1.52.82,3.21,1.69,3.85,3.42,1.72,4.4-3.83,7-3.71,11.35-.05,5.36,5.43,8.27,8.43,12,3.05-5.61,5.28-13.49.36-18.7-1.65-1-3.61-1.79-4.13-3.9s.58-3.78,1.47-5.47c3.28-6.21-5.55-4.21-5.08-10.86.11-2.15,1-4.11,1.3-6.2-.07-2.64-1.1-5.92-3.86-6.8-5.36-1.06-1.49-8.43,1.31-8.4,8.78,1.62,13,12.39,10.05,20.27a11.16,11.16,0,0,1,4.31,14.78c7.8,6.84,7.11,19.13,2.63,27.53C151,149.86,150,157.88,144,155.8Z"/><path d="M66.71,70.86c-.44-2.62-.92-5.23-1.37-7.85-.57-5.7,7.76-6.64,8.44-.94.25,3.17,2.12,6.76.7,9.8C72.79,75.05,67.5,74.41,66.71,70.86Z"/><path d="M38.69,108.14c-2.63-4.29-4.89-10-4.37-14.88.86-5.31,8.73-4.42,8.43.92,0,3.19,1.33,6.27,2.86,9a4.39,4.39,0,0,1,.73,3.28C45.83,110,40.63,111.22,38.69,108.14Z"/><path d="M24.86,121.83a21.66,21.66,0,0,1-.31-12.8c1.21-4.49,8-4.08,8.41.66-.34,3-1.39,6.17-.12,9.19C34.63,124.16,26.93,127,24.86,121.83Z"/><path d="M139,113.25c-4.32-1.29-3.23-6.21-1.56-9.21a2.25,2.25,0,0,1-.08.24c1.69-5.24,9.58-2.88,8.15,2.39-.36,1-.79,2-1.1,3.1l.18-.53C144.1,111.84,141.65,114.05,139,113.25Z"/></svg>