<svg width="50px" height="50px" xmlns="http://www.w3.org/2000/svg" viewBox="0 0 50 50"><g style="opacity:0.65"><path d="M16.73,25.52v-.34a1.9,1.9,0,0,1,1.95-1.95c.28,0,.56,0,1,0,0-1.25-.08-2.44,0-3.61a6.06,6.06,0,0,1,8-5.08l1.82-1.82,9.21-9.21H3.51V38.73l8.62-8.62Z" style="fill:#5d9cbf"/><path d="M36,21.72l-2,2a1.75,1.75,0,0,1,.66,1.38c0,2.62,0,5.25,0,7.87a1.84,1.84,0,0,1-1.89,1.85c-3.29,0-6.58,0-9.87,0l-4.27,4.26-7.42,7.43H46.49V11.27Z" style="fill:#5d9cbf"/></g><rect x="10.86" y="10.77" width="5.16" height="28.64" style="fill:#fff;opacity:0.65"/><rect x="18.66" y="21.19" width="5.16" height="18.22" style="fill:#fff;opacity:0.65"/><rect x="26.45" y="18.05" width="5.16" height="21.36" style="fill:#fff;opacity:0.65"/><rect x="34.24" y="28.73" width="5.16" height="10.68" style="fill:#fff;opacity:0.65"/><path d="M46.56,1.06a.68.68,0,0,0-.46.19l-14,14a8,8,0,0,1,1.41,3.88L48.75,3.9a.65.65,0,0,0,0-.91L47,1.25A.67.67,0,0,0,46.56,1.06Z" style="fill:#898989"/><path d="M31.85,23.23c.43,0,.73,0,1,0a1.87,1.87,0,0,1,1.83,1.84c0,2.62,0,5.25,0,7.87a1.84,1.84,0,0,1-1.89,1.85q-7.09,0-14.17,0a1.86,1.86,0,0,1-1.93-2c0-2.55,0-5.11,0-7.66a1.9,1.9,0,0,1,1.95-1.95c.28,0,.56,0,1,0,0-1.25-.08-2.44,0-3.61a6.09,6.09,0,0,1,12.13,1C31.86,21.44,31.85,22.29,31.85,23.23Zm-9,0h5.72c0-1.14.08-2.23,0-3.31a2.87,2.87,0,0,0-5.68,0C22.79,21,22.87,22.06,22.87,23.19Z" style="fill:#727272"/><path d="M14.68,32.67,1.25,46.1a.65.65,0,0,0,0,.91L3,48.75a.64.64,0,0,0,.91,0L16.14,36.51a3.14,3.14,0,0,1-1.45-2.71C14.69,33.42,14.69,33.05,14.68,32.67Z" style="fill:#898989"/></svg>