<svg width="1339" height="91" viewBox="0 0 1339 91" fill="none" xmlns="http://www.w3.org/2000/svg">
<g filter="url(#filter0_d_11867_14273)">
<rect x="16" y="12" width="1307" height="59" rx="4" fill="white"/>
<rect x="16" y="12" width="1307" height="59" rx="4" stroke="#435FF3"/>
</g>
<path fill-rule="evenodd" clip-rule="evenodd" d="M37.0629 12C31.1444 20.8603 31.6501 33.0939 35.3928 38.1539C36.853 40.1281 39.0497 41.2014 41.2412 42.2722C46.1391 44.6654 51.0108 47.0458 47.5754 59.4425C45.3935 67.3158 52.4503 65.8205 61.6462 63.8718C72.8939 61.4885 87.3419 58.4269 92.0003 71H20C17.7909 71 16 69.2091 16 67V16C16 13.7909 17.7909 12 20 12H37.0629Z" fill="#D3D8FF"/>
<rect x="16" y="12" width="1307" height="59" rx="4" stroke="#435FF3"/>
<path d="M85.15 47L82.375 36.5H84.43L86.32 44.855L88.54 36.5H90.655L92.815 44.855L94.705 36.5H96.775L93.925 47H91.645L89.56 39.215L87.415 47H85.15ZM99.8369 47.18C99.1969 47.18 98.6719 47.08 98.2619 46.88C97.8519 46.67 97.5469 46.395 97.3469 46.055C97.1469 45.715 97.0469 45.34 97.0469 44.93C97.0469 44.24 97.3169 43.68 97.8569 43.25C98.3969 42.82 99.2069 42.605 100.287 42.605H102.177V42.425C102.177 41.915 102.032 41.54 101.742 41.3C101.452 41.06 101.092 40.94 100.662 40.94C100.272 40.94 99.9319 41.035 99.6419 41.225C99.3519 41.405 99.1719 41.675 99.1019 42.035H97.2269C97.2769 41.495 97.4569 41.025 97.7669 40.625C98.0869 40.225 98.4969 39.92 98.9969 39.71C99.4969 39.49 100.057 39.38 100.677 39.38C101.737 39.38 102.572 39.645 103.182 40.175C103.792 40.705 104.097 41.455 104.097 42.425V47H102.462L102.282 45.8C102.062 46.2 101.752 46.53 101.352 46.79C100.962 47.05 100.457 47.18 99.8369 47.18ZM100.272 45.68C100.822 45.68 101.247 45.5 101.547 45.14C101.857 44.78 102.052 44.335 102.132 43.805H100.497C99.9869 43.805 99.6219 43.9 99.4019 44.09C99.1819 44.27 99.0719 44.495 99.0719 44.765C99.0719 45.055 99.1819 45.28 99.4019 45.44C99.6219 45.6 99.9119 45.68 100.272 45.68ZM105.929 47V39.56H107.624L107.774 40.82C108.004 40.38 108.334 40.03 108.764 39.77C109.204 39.51 109.719 39.38 110.309 39.38C111.229 39.38 111.944 39.67 112.454 40.25C112.964 40.83 113.219 41.68 113.219 42.8V47H111.299V42.98C111.299 42.34 111.169 41.85 110.909 41.51C110.649 41.17 110.244 41 109.694 41C109.154 41 108.709 41.19 108.359 41.57C108.019 41.95 107.849 42.48 107.849 43.16V47H105.929ZM118.37 47C117.59 47 116.965 46.81 116.495 46.43C116.025 46.05 115.79 45.375 115.79 44.405V41.165H114.515V39.56H115.79L116.015 37.565H117.71V39.56H119.72V41.165H117.71V44.42C117.71 44.78 117.785 45.03 117.935 45.17C118.095 45.3 118.365 45.365 118.745 45.365H119.675V47H118.37ZM127.733 47.18C126.803 47.18 126.083 46.89 125.573 46.31C125.073 45.73 124.823 44.88 124.823 43.76V39.56H126.728V43.58C126.728 44.22 126.858 44.71 127.118 45.05C127.378 45.39 127.788 45.56 128.348 45.56C128.878 45.56 129.313 45.37 129.653 44.99C130.003 44.61 130.178 44.08 130.178 43.4V39.56H132.098V47H130.403L130.253 45.74C130.023 46.18 129.688 46.53 129.248 46.79C128.818 47.05 128.313 47.18 127.733 47.18ZM137.144 47.18C136.484 47.18 135.904 47.075 135.404 46.865C134.904 46.645 134.504 46.345 134.204 45.965C133.904 45.585 133.724 45.145 133.664 44.645H135.599C135.659 44.935 135.819 45.185 136.079 45.395C136.349 45.595 136.694 45.695 137.114 45.695C137.534 45.695 137.839 45.61 138.029 45.44C138.229 45.27 138.329 45.075 138.329 44.855C138.329 44.535 138.189 44.32 137.909 44.21C137.629 44.09 137.239 43.975 136.739 43.865C136.419 43.795 136.094 43.71 135.764 43.61C135.434 43.51 135.129 43.385 134.849 43.235C134.579 43.075 134.359 42.875 134.189 42.635C134.019 42.385 133.934 42.08 133.934 41.72C133.934 41.06 134.194 40.505 134.714 40.055C135.244 39.605 135.984 39.38 136.934 39.38C137.814 39.38 138.514 39.585 139.034 39.995C139.564 40.405 139.879 40.97 139.979 41.69H138.164C138.054 41.14 137.639 40.865 136.919 40.865C136.559 40.865 136.279 40.935 136.079 41.075C135.889 41.215 135.794 41.39 135.794 41.6C135.794 41.82 135.939 41.995 136.229 42.125C136.519 42.255 136.904 42.375 137.384 42.485C137.904 42.605 138.379 42.74 138.809 42.89C139.249 43.03 139.599 43.245 139.859 43.535C140.119 43.815 140.249 44.22 140.249 44.75C140.259 45.21 140.139 45.625 139.889 45.995C139.639 46.365 139.279 46.655 138.809 46.865C138.339 47.075 137.784 47.18 137.144 47.18ZM148.839 47C148.059 47 147.434 46.81 146.964 46.43C146.494 46.05 146.259 45.375 146.259 44.405V41.165H144.984V39.56H146.259L146.484 37.565H148.179V39.56H150.189V41.165H148.179V44.42C148.179 44.78 148.254 45.03 148.404 45.17C148.564 45.3 148.834 45.365 149.214 45.365H150.144V47H148.839ZM155.217 47.18C154.497 47.18 153.847 47.015 153.267 46.685C152.697 46.355 152.242 45.9 151.902 45.32C151.572 44.73 151.407 44.05 151.407 43.28C151.407 42.51 151.577 41.835 151.917 41.255C152.257 40.665 152.712 40.205 153.282 39.875C153.862 39.545 154.512 39.38 155.232 39.38C155.942 39.38 156.582 39.545 157.152 39.875C157.732 40.205 158.187 40.665 158.517 41.255C158.857 41.835 159.027 42.51 159.027 43.28C159.027 44.05 158.857 44.73 158.517 45.32C158.187 45.9 157.732 46.355 157.152 46.685C156.572 47.015 155.927 47.18 155.217 47.18ZM155.217 45.515C155.717 45.515 156.152 45.33 156.522 44.96C156.892 44.58 157.077 44.02 157.077 43.28C157.077 42.54 156.892 41.985 156.522 41.615C156.152 41.235 155.722 41.045 155.232 41.045C154.722 41.045 154.282 41.235 153.912 41.615C153.552 41.985 153.372 42.54 153.372 43.28C153.372 44.02 153.552 44.58 153.912 44.96C154.282 45.33 154.717 45.515 155.217 45.515ZM166.883 47.18C166.243 47.18 165.718 47.08 165.308 46.88C164.898 46.67 164.593 46.395 164.393 46.055C164.193 45.715 164.093 45.34 164.093 44.93C164.093 44.24 164.363 43.68 164.903 43.25C165.443 42.82 166.253 42.605 167.333 42.605H169.223V42.425C169.223 41.915 169.078 41.54 168.788 41.3C168.498 41.06 168.138 40.94 167.708 40.94C167.318 40.94 166.978 41.035 166.688 41.225C166.398 41.405 166.218 41.675 166.148 42.035H164.273C164.323 41.495 164.503 41.025 164.813 40.625C165.133 40.225 165.543 39.92 166.043 39.71C166.543 39.49 167.103 39.38 167.723 39.38C168.783 39.38 169.618 39.645 170.228 40.175C170.838 40.705 171.143 41.455 171.143 42.425V47H169.508L169.328 45.8C169.108 46.2 168.798 46.53 168.398 46.79C168.008 47.05 167.503 47.18 166.883 47.18ZM167.318 45.68C167.868 45.68 168.293 45.5 168.593 45.14C168.903 44.78 169.098 44.335 169.178 43.805H167.543C167.033 43.805 166.668 43.9 166.448 44.09C166.228 44.27 166.118 44.495 166.118 44.765C166.118 45.055 166.228 45.28 166.448 45.44C166.668 45.6 166.958 45.68 167.318 45.68ZM175.765 47.18C174.835 47.18 174.115 46.89 173.605 46.31C173.105 45.73 172.855 44.88 172.855 43.76V39.56H174.76V43.58C174.76 44.22 174.89 44.71 175.15 45.05C175.41 45.39 175.82 45.56 176.38 45.56C176.91 45.56 177.345 45.37 177.685 44.99C178.035 44.61 178.21 44.08 178.21 43.4V39.56H180.13V47H178.435L178.285 45.74C178.055 46.18 177.72 46.53 177.28 46.79C176.85 47.05 176.345 47.18 175.765 47.18ZM185.416 47C184.636 47 184.011 46.81 183.541 46.43C183.071 46.05 182.836 45.375 182.836 44.405V41.165H181.561V39.56H182.836L183.061 37.565H184.756V39.56H186.766V41.165H184.756V44.42C184.756 44.78 184.831 45.03 184.981 45.17C185.141 45.3 185.411 45.365 185.791 45.365H186.721V47H185.416ZM191.794 47.18C191.074 47.18 190.424 47.015 189.844 46.685C189.274 46.355 188.819 45.9 188.479 45.32C188.149 44.73 187.984 44.05 187.984 43.28C187.984 42.51 188.154 41.835 188.494 41.255C188.834 40.665 189.289 40.205 189.859 39.875C190.439 39.545 191.089 39.38 191.809 39.38C192.519 39.38 193.159 39.545 193.729 39.875C194.309 40.205 194.764 40.665 195.094 41.255C195.434 41.835 195.604 42.51 195.604 43.28C195.604 44.05 195.434 44.73 195.094 45.32C194.764 45.9 194.309 46.355 193.729 46.685C193.149 47.015 192.504 47.18 191.794 47.18ZM191.794 45.515C192.294 45.515 192.729 45.33 193.099 44.96C193.469 44.58 193.654 44.02 193.654 43.28C193.654 42.54 193.469 41.985 193.099 41.615C192.729 41.235 192.299 41.045 191.809 41.045C191.299 41.045 190.859 41.235 190.489 41.615C190.129 41.985 189.949 42.54 189.949 43.28C189.949 44.02 190.129 44.58 190.489 44.96C190.859 45.33 191.294 45.515 191.794 45.515ZM197.321 47V39.56H199.016L199.181 40.565C199.421 40.205 199.736 39.92 200.126 39.71C200.526 39.49 200.986 39.38 201.506 39.38C202.656 39.38 203.471 39.825 203.951 40.715C204.221 40.305 204.581 39.98 205.031 39.74C205.491 39.5 205.991 39.38 206.531 39.38C207.501 39.38 208.246 39.67 208.766 40.25C209.286 40.83 209.546 41.68 209.546 42.8V47H207.626V42.98C207.626 42.34 207.501 41.85 207.251 41.51C207.011 41.17 206.636 41 206.126 41C205.606 41 205.186 41.19 204.866 41.57C204.556 41.95 204.401 42.48 204.401 43.16V47H202.481V42.98C202.481 42.34 202.356 41.85 202.106 41.51C201.856 41.17 201.471 41 200.951 41C200.441 41 200.026 41.19 199.706 41.57C199.396 41.95 199.241 42.48 199.241 43.16V47H197.321ZM213.934 47.18C213.294 47.18 212.769 47.08 212.359 46.88C211.949 46.67 211.644 46.395 211.444 46.055C211.244 45.715 211.144 45.34 211.144 44.93C211.144 44.24 211.414 43.68 211.954 43.25C212.494 42.82 213.304 42.605 214.384 42.605H216.274V42.425C216.274 41.915 216.129 41.54 215.839 41.3C215.549 41.06 215.189 40.94 214.759 40.94C214.369 40.94 214.029 41.035 213.739 41.225C213.449 41.405 213.269 41.675 213.199 42.035H211.324C211.374 41.495 211.554 41.025 211.864 40.625C212.184 40.225 212.594 39.92 213.094 39.71C213.594 39.49 214.154 39.38 214.774 39.38C215.834 39.38 216.669 39.645 217.279 40.175C217.889 40.705 218.194 41.455 218.194 42.425V47H216.559L216.379 45.8C216.159 46.2 215.849 46.53 215.449 46.79C215.059 47.05 214.554 47.18 213.934 47.18ZM214.369 45.68C214.919 45.68 215.344 45.5 215.644 45.14C215.954 44.78 216.149 44.335 216.229 43.805H214.594C214.084 43.805 213.719 43.9 213.499 44.09C213.279 44.27 213.169 44.495 213.169 44.765C213.169 45.055 213.279 45.28 213.499 45.44C213.719 45.6 214.009 45.68 214.369 45.68ZM223.238 47C222.458 47 221.833 46.81 221.363 46.43C220.893 46.05 220.658 45.375 220.658 44.405V41.165H219.383V39.56H220.658L220.883 37.565H222.578V39.56H224.588V41.165H222.578V44.42C222.578 44.78 222.653 45.03 222.803 45.17C222.963 45.3 223.233 45.365 223.613 45.365H224.543V47H223.238ZM227.272 38.405C226.922 38.405 226.632 38.3 226.402 38.09C226.182 37.88 226.072 37.615 226.072 37.295C226.072 36.975 226.182 36.715 226.402 36.515C226.632 36.305 226.922 36.2 227.272 36.2C227.622 36.2 227.907 36.305 228.127 36.515C228.357 36.715 228.472 36.975 228.472 37.295C228.472 37.615 228.357 37.88 228.127 38.09C227.907 38.3 227.622 38.405 227.272 38.405ZM226.312 47V39.56H228.232V47H226.312ZM233.881 47.18C233.121 47.18 232.451 47.015 231.871 46.685C231.291 46.355 230.831 45.895 230.491 45.305C230.161 44.715 229.996 44.04 229.996 43.28C229.996 42.52 230.161 41.845 230.491 41.255C230.831 40.665 231.291 40.205 231.871 39.875C232.451 39.545 233.121 39.38 233.881 39.38C234.831 39.38 235.631 39.63 236.281 40.13C236.931 40.62 237.346 41.3 237.526 42.17H235.501C235.401 41.81 235.201 41.53 234.901 41.33C234.611 41.12 234.266 41.015 233.866 41.015C233.336 41.015 232.886 41.215 232.516 41.615C232.146 42.015 231.961 42.57 231.961 43.28C231.961 43.99 232.146 44.545 232.516 44.945C232.886 45.345 233.336 45.545 233.866 45.545C234.266 45.545 234.611 45.445 234.901 45.245C235.201 45.045 235.401 44.76 235.501 44.39H237.526C237.346 45.23 236.931 45.905 236.281 46.415C235.631 46.925 234.831 47.18 233.881 47.18ZM241.795 47.18C241.155 47.18 240.63 47.08 240.22 46.88C239.81 46.67 239.505 46.395 239.305 46.055C239.105 45.715 239.005 45.34 239.005 44.93C239.005 44.24 239.275 43.68 239.815 43.25C240.355 42.82 241.165 42.605 242.245 42.605H244.135V42.425C244.135 41.915 243.99 41.54 243.7 41.3C243.41 41.06 243.05 40.94 242.62 40.94C242.23 40.94 241.89 41.035 241.6 41.225C241.31 41.405 241.13 41.675 241.06 42.035H239.185C239.235 41.495 239.415 41.025 239.725 40.625C240.045 40.225 240.455 39.92 240.955 39.71C241.455 39.49 242.015 39.38 242.635 39.38C243.695 39.38 244.53 39.645 245.14 40.175C245.75 40.705 246.055 41.455 246.055 42.425V47H244.42L244.24 45.8C244.02 46.2 243.71 46.53 243.31 46.79C242.92 47.05 242.415 47.18 241.795 47.18ZM242.23 45.68C242.78 45.68 243.205 45.5 243.505 45.14C243.815 44.78 244.01 44.335 244.09 43.805H242.455C241.945 43.805 241.58 43.9 241.36 44.09C241.14 44.27 241.03 44.495 241.03 44.765C241.03 45.055 241.14 45.28 241.36 45.44C241.58 45.6 241.87 45.68 242.23 45.68ZM247.887 47V36.2H249.807V47H247.887ZM251.769 47V36.2H253.689V47H251.769ZM256.581 50.3L258.306 46.505H257.856L254.961 39.56H257.046L259.131 44.795L261.306 39.56H263.346L258.621 50.3H256.581ZM269.21 38.405C268.86 38.405 268.57 38.3 268.34 38.09C268.12 37.88 268.01 37.615 268.01 37.295C268.01 36.975 268.12 36.715 268.34 36.515C268.57 36.305 268.86 36.2 269.21 36.2C269.56 36.2 269.845 36.305 270.065 36.515C270.295 36.715 270.41 36.975 270.41 37.295C270.41 37.615 270.295 37.88 270.065 38.09C269.845 38.3 269.56 38.405 269.21 38.405ZM268.25 47V39.56H270.17V47H268.25ZM272.174 47V39.56H273.869L274.019 40.82C274.249 40.38 274.579 40.03 275.009 39.77C275.449 39.51 275.964 39.38 276.554 39.38C277.474 39.38 278.189 39.67 278.699 40.25C279.209 40.83 279.464 41.68 279.464 42.8V47H277.544V42.98C277.544 42.34 277.414 41.85 277.154 41.51C276.894 41.17 276.489 41 275.939 41C275.399 41 274.954 41.19 274.604 41.57C274.264 41.95 274.094 42.48 274.094 43.16V47H272.174ZM283.237 47L280.507 39.56H282.517L284.407 45.185L286.297 39.56H288.307L285.562 47H283.237ZM290.553 38.405C290.203 38.405 289.913 38.3 289.683 38.09C289.463 37.88 289.353 37.615 289.353 37.295C289.353 36.975 289.463 36.715 289.683 36.515C289.913 36.305 290.203 36.2 290.553 36.2C290.903 36.2 291.188 36.305 291.408 36.515C291.638 36.715 291.753 36.975 291.753 37.295C291.753 37.615 291.638 37.88 291.408 38.09C291.188 38.3 290.903 38.405 290.553 38.405ZM289.593 47V39.56H291.513V47H289.593ZM296.832 47C296.052 47 295.427 46.81 294.957 46.43C294.487 46.05 294.252 45.375 294.252 44.405V41.165H292.977V39.56H294.252L294.477 37.565H296.172V39.56H298.182V41.165H296.172V44.42C296.172 44.78 296.247 45.03 296.397 45.17C296.557 45.3 296.827 45.365 297.207 45.365H298.137V47H296.832ZM303.255 47.18C302.505 47.18 301.84 47.02 301.26 46.7C300.68 46.38 300.225 45.93 299.895 45.35C299.565 44.77 299.4 44.1 299.4 43.34C299.4 42.57 299.56 41.885 299.88 41.285C300.21 40.685 300.66 40.22 301.23 39.89C301.81 39.55 302.49 39.38 303.27 39.38C304 39.38 304.645 39.54 305.205 39.86C305.765 40.18 306.2 40.62 306.51 41.18C306.83 41.73 306.99 42.345 306.99 43.025C306.99 43.135 306.985 43.25 306.975 43.37C306.975 43.49 306.97 43.615 306.96 43.745H301.305C301.345 44.325 301.545 44.78 301.905 45.11C302.275 45.44 302.72 45.605 303.24 45.605C303.63 45.605 303.955 45.52 304.215 45.35C304.485 45.17 304.685 44.94 304.815 44.66H306.765C306.625 45.13 306.39 45.56 306.06 45.95C305.74 46.33 305.34 46.63 304.86 46.85C304.39 47.07 303.855 47.18 303.255 47.18ZM303.27 40.94C302.8 40.94 302.385 41.075 302.025 41.345C301.665 41.605 301.435 42.005 301.335 42.545H305.04C305.01 42.055 304.83 41.665 304.5 41.375C304.17 41.085 303.76 40.94 303.27 40.94ZM312.179 47V39.56H313.874L314.024 40.82C314.254 40.38 314.584 40.03 315.014 39.77C315.454 39.51 315.969 39.38 316.559 39.38C317.479 39.38 318.194 39.67 318.704 40.25C319.214 40.83 319.469 41.68 319.469 42.8V47H317.549V42.98C317.549 42.34 317.419 41.85 317.159 41.51C316.899 41.17 316.494 41 315.944 41C315.404 41 314.959 41.19 314.609 41.57C314.269 41.95 314.099 42.48 314.099 43.16V47H312.179ZM324.92 47.18C324.17 47.18 323.505 47.02 322.925 46.7C322.345 46.38 321.89 45.93 321.56 45.35C321.23 44.77 321.065 44.1 321.065 43.34C321.065 42.57 321.225 41.885 321.545 41.285C321.875 40.685 322.325 40.22 322.895 39.89C323.475 39.55 324.155 39.38 324.935 39.38C325.665 39.38 326.31 39.54 326.87 39.86C327.43 40.18 327.865 40.62 328.175 41.18C328.495 41.73 328.655 42.345 328.655 43.025C328.655 43.135 328.65 43.25 328.64 43.37C328.64 43.49 328.635 43.615 328.625 43.745H322.97C323.01 44.325 323.21 44.78 323.57 45.11C323.94 45.44 324.385 45.605 324.905 45.605C325.295 45.605 325.62 45.52 325.88 45.35C326.15 45.17 326.35 44.94 326.48 44.66H328.43C328.29 45.13 328.055 45.56 327.725 45.95C327.405 46.33 327.005 46.63 326.525 46.85C326.055 47.07 325.52 47.18 324.92 47.18ZM324.935 40.94C324.465 40.94 324.05 41.075 323.69 41.345C323.33 41.605 323.1 42.005 323 42.545H326.705C326.675 42.055 326.495 41.665 326.165 41.375C325.835 41.085 325.425 40.94 324.935 40.94ZM331.432 47L329.257 39.56H331.162L332.452 44.915L333.952 39.56H336.082L337.582 44.915L338.887 39.56H340.792L338.602 47H336.607L335.017 41.435L333.427 47H331.432ZM345.578 50.3V39.56H347.288L347.498 40.625C347.738 40.295 348.053 40.005 348.443 39.755C348.843 39.505 349.358 39.38 349.988 39.38C350.688 39.38 351.313 39.55 351.863 39.89C352.413 40.23 352.848 40.695 353.168 41.285C353.488 41.875 353.648 42.545 353.648 43.295C353.648 44.045 353.488 44.715 353.168 45.305C352.848 45.885 352.413 46.345 351.863 46.685C351.313 47.015 350.688 47.18 349.988 47.18C349.428 47.18 348.938 47.075 348.518 46.865C348.098 46.655 347.758 46.36 347.498 45.98V50.3H345.578ZM349.583 45.5C350.193 45.5 350.698 45.295 351.098 44.885C351.498 44.475 351.698 43.945 351.698 43.295C351.698 42.645 351.498 42.11 351.098 41.69C350.698 41.27 350.193 41.06 349.583 41.06C348.963 41.06 348.453 41.27 348.053 41.69C347.663 42.1 347.468 42.63 347.468 43.28C347.468 43.93 347.663 44.465 348.053 44.885C348.453 45.295 348.963 45.5 349.583 45.5ZM357.928 47.18C357.288 47.18 356.763 47.08 356.353 46.88C355.943 46.67 355.638 46.395 355.438 46.055C355.238 45.715 355.138 45.34 355.138 44.93C355.138 44.24 355.408 43.68 355.948 43.25C356.488 42.82 357.298 42.605 358.378 42.605H360.268V42.425C360.268 41.915 360.123 41.54 359.833 41.3C359.543 41.06 359.183 40.94 358.753 40.94C358.363 40.94 358.023 41.035 357.733 41.225C357.443 41.405 357.263 41.675 357.193 42.035H355.318C355.368 41.495 355.548 41.025 355.858 40.625C356.178 40.225 356.588 39.92 357.088 39.71C357.588 39.49 358.148 39.38 358.768 39.38C359.828 39.38 360.663 39.645 361.273 40.175C361.883 40.705 362.188 41.455 362.188 42.425V47H360.553L360.373 45.8C360.153 46.2 359.843 46.53 359.443 46.79C359.053 47.05 358.548 47.18 357.928 47.18ZM358.363 45.68C358.913 45.68 359.338 45.5 359.638 45.14C359.948 44.78 360.143 44.335 360.223 43.805H358.588C358.078 43.805 357.713 43.9 357.493 44.09C357.273 44.27 357.163 44.495 357.163 44.765C357.163 45.055 357.273 45.28 357.493 45.44C357.713 45.6 358.003 45.68 358.363 45.68ZM367.232 47C366.452 47 365.827 46.81 365.357 46.43C364.887 46.05 364.652 45.375 364.652 44.405V41.165H363.377V39.56H364.652L364.877 37.565H366.572V39.56H368.582V41.165H366.572V44.42C366.572 44.78 366.647 45.03 366.797 45.17C366.957 45.3 367.227 45.365 367.607 45.365H368.537V47H367.232ZM371.266 38.405C370.916 38.405 370.626 38.3 370.396 38.09C370.176 37.88 370.066 37.615 370.066 37.295C370.066 36.975 370.176 36.715 370.396 36.515C370.626 36.305 370.916 36.2 371.266 36.2C371.616 36.2 371.901 36.305 372.121 36.515C372.351 36.715 372.466 36.975 372.466 37.295C372.466 37.615 372.351 37.88 372.121 38.09C371.901 38.3 371.616 38.405 371.266 38.405ZM370.306 47V39.56H372.226V47H370.306ZM377.845 47.18C377.095 47.18 376.43 47.02 375.85 46.7C375.27 46.38 374.815 45.93 374.485 45.35C374.155 44.77 373.99 44.1 373.99 43.34C373.99 42.57 374.15 41.885 374.47 41.285C374.8 40.685 375.25 40.22 375.82 39.89C376.4 39.55 377.08 39.38 377.86 39.38C378.59 39.38 379.235 39.54 379.795 39.86C380.355 40.18 380.79 40.62 381.1 41.18C381.42 41.73 381.58 42.345 381.58 43.025C381.58 43.135 381.575 43.25 381.565 43.37C381.565 43.49 381.56 43.615 381.55 43.745H375.895C375.935 44.325 376.135 44.78 376.495 45.11C376.865 45.44 377.31 45.605 377.83 45.605C378.22 45.605 378.545 45.52 378.805 45.35C379.075 45.17 379.275 44.94 379.405 44.66H381.355C381.215 45.13 380.98 45.56 380.65 45.95C380.33 46.33 379.93 46.63 379.45 46.85C378.98 47.07 378.445 47.18 377.845 47.18ZM377.86 40.94C377.39 40.94 376.975 41.075 376.615 41.345C376.255 41.605 376.025 42.005 375.925 42.545H379.63C379.6 42.055 379.42 41.665 379.09 41.375C378.76 41.085 378.35 40.94 377.86 40.94ZM383.195 47V39.56H384.89L385.04 40.82C385.27 40.38 385.6 40.03 386.03 39.77C386.47 39.51 386.985 39.38 387.575 39.38C388.495 39.38 389.21 39.67 389.72 40.25C390.23 40.83 390.485 41.68 390.485 42.8V47H388.565V42.98C388.565 42.34 388.435 41.85 388.175 41.51C387.915 41.17 387.51 41 386.96 41C386.42 41 385.975 41.19 385.625 41.57C385.285 41.95 385.115 42.48 385.115 43.16V47H383.195ZM395.636 47C394.856 47 394.231 46.81 393.761 46.43C393.291 46.05 393.056 45.375 393.056 44.405V41.165H391.781V39.56H393.056L393.281 37.565H394.976V39.56H396.986V41.165H394.976V44.42C394.976 44.78 395.051 45.03 395.201 45.17C395.361 45.3 395.631 45.365 396.011 45.365H396.941V47H395.636ZM401.709 47.18C401.049 47.18 400.469 47.075 399.969 46.865C399.469 46.645 399.069 46.345 398.769 45.965C398.469 45.585 398.289 45.145 398.229 44.645H400.164C400.224 44.935 400.384 45.185 400.644 45.395C400.914 45.595 401.259 45.695 401.679 45.695C402.099 45.695 402.404 45.61 402.594 45.44C402.794 45.27 402.894 45.075 402.894 44.855C402.894 44.535 402.754 44.32 402.474 44.21C402.194 44.09 401.804 43.975 401.304 43.865C400.984 43.795 400.659 43.71 400.329 43.61C399.999 43.51 399.694 43.385 399.414 43.235C399.144 43.075 398.924 42.875 398.754 42.635C398.584 42.385 398.499 42.08 398.499 41.72C398.499 41.06 398.759 40.505 399.279 40.055C399.809 39.605 400.549 39.38 401.499 39.38C402.379 39.38 403.079 39.585 403.599 39.995C404.129 40.405 404.444 40.97 404.544 41.69H402.729C402.619 41.14 402.204 40.865 401.484 40.865C401.124 40.865 400.844 40.935 400.644 41.075C400.454 41.215 400.359 41.39 400.359 41.6C400.359 41.82 400.504 41.995 400.794 42.125C401.084 42.255 401.469 42.375 401.949 42.485C402.469 42.605 402.944 42.74 403.374 42.89C403.814 43.03 404.164 43.245 404.424 43.535C404.684 43.815 404.814 44.22 404.814 44.75C404.824 45.21 404.704 45.625 404.454 45.995C404.204 46.365 403.844 46.655 403.374 46.865C402.904 47.075 402.349 47.18 401.709 47.18ZM413.404 47C412.624 47 411.999 46.81 411.529 46.43C411.059 46.05 410.824 45.375 410.824 44.405V41.165H409.549V39.56H410.824L411.049 37.565H412.744V39.56H414.754V41.165H412.744V44.42C412.744 44.78 412.819 45.03 412.969 45.17C413.129 45.3 413.399 45.365 413.779 45.365H414.709V47H413.404ZM419.782 47.18C419.062 47.18 418.412 47.015 417.832 46.685C417.262 46.355 416.807 45.9 416.467 45.32C416.137 44.73 415.972 44.05 415.972 43.28C415.972 42.51 416.142 41.835 416.482 41.255C416.822 40.665 417.277 40.205 417.847 39.875C418.427 39.545 419.077 39.38 419.797 39.38C420.507 39.38 421.147 39.545 421.717 39.875C422.297 40.205 422.752 40.665 423.082 41.255C423.422 41.835 423.592 42.51 423.592 43.28C423.592 44.05 423.422 44.73 423.082 45.32C422.752 45.9 422.297 46.355 421.717 46.685C421.137 47.015 420.492 47.18 419.782 47.18ZM419.782 45.515C420.282 45.515 420.717 45.33 421.087 44.96C421.457 44.58 421.642 44.02 421.642 43.28C421.642 42.54 421.457 41.985 421.087 41.615C420.717 41.235 420.287 41.045 419.797 41.045C419.287 41.045 418.847 41.235 418.477 41.615C418.117 41.985 417.937 42.54 417.937 43.28C417.937 44.02 418.117 44.58 418.477 44.96C418.847 45.33 419.282 45.515 419.782 45.515ZM432.513 47.18C431.743 47.18 431.063 47.05 430.473 46.79C429.883 46.52 429.418 46.14 429.078 45.65C428.738 45.15 428.563 44.545 428.553 43.835H430.578C430.598 44.325 430.773 44.74 431.103 45.08C431.443 45.41 431.908 45.575 432.498 45.575C433.008 45.575 433.413 45.455 433.713 45.215C434.013 44.965 434.163 44.635 434.163 44.225C434.163 43.795 434.028 43.46 433.758 43.22C433.498 42.98 433.148 42.785 432.708 42.635C432.268 42.485 431.798 42.325 431.298 42.155C430.488 41.875 429.868 41.515 429.438 41.075C429.018 40.635 428.808 40.05 428.808 39.32C428.798 38.7 428.943 38.17 429.243 37.73C429.553 37.28 429.973 36.935 430.503 36.695C431.033 36.445 431.643 36.32 432.333 36.32C433.033 36.32 433.648 36.445 434.178 36.695C434.718 36.945 435.138 37.295 435.438 37.745C435.748 38.195 435.913 38.73 435.933 39.35H433.878C433.868 38.98 433.723 38.655 433.443 38.375C433.173 38.085 432.793 37.94 432.303 37.94C431.883 37.93 431.528 38.035 431.238 38.255C430.958 38.465 430.818 38.775 430.818 39.185C430.818 39.535 430.928 39.815 431.148 40.025C431.368 40.225 431.668 40.395 432.048 40.535C432.428 40.675 432.863 40.825 433.353 40.985C433.873 41.165 434.348 41.375 434.778 41.615C435.208 41.855 435.553 42.175 435.813 42.575C436.073 42.965 436.203 43.47 436.203 44.09C436.203 44.64 436.063 45.15 435.783 45.62C435.503 46.09 435.088 46.47 434.538 46.76C433.988 47.04 433.313 47.18 432.513 47.18ZM440.623 47.18C439.693 47.18 438.973 46.89 438.463 46.31C437.963 45.73 437.713 44.88 437.713 43.76V39.56H439.618V43.58C439.618 44.22 439.748 44.71 440.008 45.05C440.268 45.39 440.678 45.56 441.238 45.56C441.768 45.56 442.203 45.37 442.543 44.99C442.893 44.61 443.068 44.08 443.068 43.4V39.56H444.988V47H443.293L443.143 45.74C442.913 46.18 442.578 46.53 442.138 46.79C441.708 47.05 441.203 47.18 440.623 47.18ZM446.959 50.3V39.56H448.669L448.879 40.625C449.119 40.295 449.434 40.005 449.824 39.755C450.224 39.505 450.739 39.38 451.369 39.38C452.069 39.38 452.694 39.55 453.244 39.89C453.794 40.23 454.229 40.695 454.549 41.285C454.869 41.875 455.029 42.545 455.029 43.295C455.029 44.045 454.869 44.715 454.549 45.305C454.229 45.885 453.794 46.345 453.244 46.685C452.694 47.015 452.069 47.18 451.369 47.18C450.809 47.18 450.319 47.075 449.899 46.865C449.479 46.655 449.139 46.36 448.879 45.98V50.3H446.959ZM450.964 45.5C451.574 45.5 452.079 45.295 452.479 44.885C452.879 44.475 453.079 43.945 453.079 43.295C453.079 42.645 452.879 42.11 452.479 41.69C452.079 41.27 451.574 41.06 450.964 41.06C450.344 41.06 449.834 41.27 449.434 41.69C449.044 42.1 448.849 42.63 448.849 43.28C448.849 43.93 449.044 44.465 449.434 44.885C449.834 45.295 450.344 45.5 450.964 45.5ZM460.36 47.18C459.61 47.18 458.945 47.02 458.365 46.7C457.785 46.38 457.33 45.93 457 45.35C456.67 44.77 456.505 44.1 456.505 43.34C456.505 42.57 456.665 41.885 456.985 41.285C457.315 40.685 457.765 40.22 458.335 39.89C458.915 39.55 459.595 39.38 460.375 39.38C461.105 39.38 461.75 39.54 462.31 39.86C462.87 40.18 463.305 40.62 463.615 41.18C463.935 41.73 464.095 42.345 464.095 43.025C464.095 43.135 464.09 43.25 464.08 43.37C464.08 43.49 464.075 43.615 464.065 43.745H458.41C458.45 44.325 458.65 44.78 459.01 45.11C459.38 45.44 459.825 45.605 460.345 45.605C460.735 45.605 461.06 45.52 461.32 45.35C461.59 45.17 461.79 44.94 461.92 44.66H463.87C463.73 45.13 463.495 45.56 463.165 45.95C462.845 46.33 462.445 46.63 461.965 46.85C461.495 47.07 460.96 47.18 460.36 47.18ZM460.375 40.94C459.905 40.94 459.49 41.075 459.13 41.345C458.77 41.605 458.54 42.005 458.44 42.545H462.145C462.115 42.055 461.935 41.665 461.605 41.375C461.275 41.085 460.865 40.94 460.375 40.94ZM465.709 47V39.56H467.419L467.599 40.955C467.869 40.475 468.234 40.095 468.694 39.815C469.164 39.525 469.714 39.38 470.344 39.38V41.405H469.804C469.384 41.405 469.009 41.47 468.679 41.6C468.349 41.73 468.089 41.955 467.899 42.275C467.719 42.595 467.629 43.04 467.629 43.61V47H465.709ZM471.702 47V36.5H475.587C476.427 36.5 477.122 36.64 477.672 36.92C478.222 37.2 478.632 37.585 478.902 38.075C479.172 38.565 479.307 39.115 479.307 39.725C479.307 40.305 479.177 40.84 478.917 41.33C478.657 41.81 478.252 42.2 477.702 42.5C477.152 42.79 476.447 42.935 475.587 42.935H473.622V47H471.702ZM473.622 41.375H475.467C476.137 41.375 476.617 41.23 476.907 40.94C477.207 40.64 477.357 40.235 477.357 39.725C477.357 39.205 477.207 38.8 476.907 38.51C476.617 38.21 476.137 38.06 475.467 38.06H473.622V41.375ZM482.864 47.18C482.224 47.18 481.699 47.08 481.289 46.88C480.879 46.67 480.574 46.395 480.374 46.055C480.174 45.715 480.074 45.34 480.074 44.93C480.074 44.24 480.344 43.68 480.884 43.25C481.424 42.82 482.234 42.605 483.314 42.605H485.204V42.425C485.204 41.915 485.059 41.54 484.769 41.3C484.479 41.06 484.119 40.94 483.689 40.94C483.299 40.94 482.959 41.035 482.669 41.225C482.379 41.405 482.199 41.675 482.129 42.035H480.254C480.304 41.495 480.484 41.025 480.794 40.625C481.114 40.225 481.524 39.92 482.024 39.71C482.524 39.49 483.084 39.38 483.704 39.38C484.764 39.38 485.599 39.645 486.209 40.175C486.819 40.705 487.124 41.455 487.124 42.425V47H485.489L485.309 45.8C485.089 46.2 484.779 46.53 484.379 46.79C483.989 47.05 483.484 47.18 482.864 47.18ZM483.299 45.68C483.849 45.68 484.274 45.5 484.574 45.14C484.884 44.78 485.079 44.335 485.159 43.805H483.524C483.014 43.805 482.649 43.9 482.429 44.09C482.209 44.27 482.099 44.495 482.099 44.765C482.099 45.055 482.209 45.28 482.429 45.44C482.649 45.6 482.939 45.68 483.299 45.68ZM489.637 50.3L491.362 46.505H490.912L488.017 39.56H490.102L492.187 44.795L494.362 39.56H496.402L491.677 50.3H489.637ZM498.738 43.73L498.678 41.255H499.368C499.878 41.255 500.343 41.21 500.763 41.12C501.183 41.03 501.518 40.855 501.768 40.595C502.018 40.335 502.143 39.955 502.143 39.455C502.143 38.975 501.998 38.6 501.708 38.33C501.418 38.05 501.033 37.91 500.553 37.91C500.053 37.91 499.663 38.05 499.383 38.33C499.103 38.6 498.963 38.97 498.963 39.44H497.148C497.138 38.84 497.268 38.305 497.538 37.835C497.808 37.365 498.198 36.995 498.708 36.725C499.228 36.455 499.848 36.32 500.568 36.32C501.238 36.32 501.828 36.445 502.338 36.695C502.858 36.945 503.263 37.305 503.553 37.775C503.853 38.235 504.003 38.8 504.003 39.47C504.003 40.16 503.848 40.73 503.538 41.18C503.238 41.63 502.823 41.965 502.293 42.185C501.773 42.405 501.168 42.52 500.478 42.53L500.433 43.73H498.738ZM499.593 47.105C499.243 47.105 498.953 46.995 498.723 46.775C498.503 46.555 498.393 46.29 498.393 45.98C498.393 45.66 498.503 45.39 498.723 45.17C498.953 44.95 499.243 44.84 499.593 44.84C499.943 44.84 500.228 44.95 500.448 45.17C500.668 45.39 500.778 45.66 500.778 45.98C500.778 46.29 500.668 46.555 500.448 46.775C500.228 46.995 499.943 47.105 499.593 47.105ZM512.622 47.18C511.852 47.18 511.182 47.04 510.612 46.76C510.042 46.48 509.602 46.09 509.292 45.59C508.982 45.09 508.827 44.51 508.827 43.85H510.147C510.147 44.26 510.242 44.64 510.432 44.99C510.622 45.33 510.897 45.605 511.257 45.815C511.627 46.015 512.082 46.115 512.622 46.115C513.332 46.115 513.882 45.945 514.272 45.605C514.662 45.265 514.857 44.84 514.857 44.33C514.857 43.91 514.767 43.575 514.587 43.325C514.407 43.065 514.162 42.855 513.852 42.695C513.552 42.535 513.202 42.395 512.802 42.275C512.412 42.155 512.002 42.02 511.572 41.87C510.762 41.59 510.162 41.245 509.772 40.835C509.382 40.415 509.187 39.87 509.187 39.2C509.177 38.64 509.307 38.145 509.577 37.715C509.847 37.275 510.227 36.935 510.717 36.695C511.217 36.445 511.807 36.32 512.487 36.32C513.157 36.32 513.737 36.445 514.227 36.695C514.727 36.945 515.112 37.29 515.382 37.73C515.662 38.17 515.807 38.67 515.817 39.23H514.497C514.497 38.94 514.422 38.655 514.272 38.375C514.122 38.085 513.892 37.85 513.582 37.67C513.282 37.49 512.902 37.4 512.442 37.4C511.872 37.39 511.402 37.535 511.032 37.835C510.672 38.135 510.492 38.55 510.492 39.08C510.492 39.53 510.617 39.875 510.867 40.115C511.127 40.355 511.487 40.555 511.947 40.715C512.407 40.865 512.937 41.04 513.537 41.24C514.037 41.42 514.487 41.63 514.887 41.87C515.287 42.11 515.597 42.42 515.817 42.8C516.047 43.18 516.162 43.665 516.162 44.255C516.162 44.755 516.032 45.23 515.772 45.68C515.512 46.12 515.117 46.48 514.587 46.76C514.067 47.04 513.412 47.18 512.622 47.18ZM520.814 47C520.134 47 519.599 46.835 519.209 46.505C518.819 46.175 518.624 45.58 518.624 44.72V40.625H517.334V39.56H518.624L518.789 37.775H519.884V39.56H522.074V40.625H519.884V44.72C519.884 45.19 519.979 45.51 520.169 45.68C520.359 45.84 520.694 45.92 521.174 45.92H521.954V47H520.814ZM523.675 47V39.56H524.815L524.92 40.985C525.15 40.495 525.5 40.105 525.97 39.815C526.44 39.525 527.02 39.38 527.71 39.38V40.7H527.365C526.925 40.7 526.52 40.78 526.15 40.94C525.78 41.09 525.485 41.35 525.265 41.72C525.045 42.09 524.935 42.6 524.935 43.25V47H523.675ZM532.191 47.18C531.481 47.18 530.851 47.02 530.301 46.7C529.751 46.37 529.316 45.915 528.996 45.335C528.686 44.755 528.531 44.07 528.531 43.28C528.531 42.5 528.686 41.82 528.996 41.24C529.306 40.65 529.736 40.195 530.286 39.875C530.846 39.545 531.491 39.38 532.221 39.38C532.941 39.38 533.561 39.545 534.081 39.875C534.611 40.195 535.016 40.62 535.296 41.15C535.576 41.68 535.716 42.25 535.716 42.86C535.716 42.97 535.711 43.08 535.701 43.19C535.701 43.3 535.701 43.425 535.701 43.565H529.776C529.806 44.135 529.936 44.61 530.166 44.99C530.406 45.36 530.701 45.64 531.051 45.83C531.411 46.02 531.791 46.115 532.191 46.115C532.711 46.115 533.146 45.995 533.496 45.755C533.846 45.515 534.101 45.19 534.261 44.78H535.506C535.306 45.47 534.921 46.045 534.351 46.505C533.791 46.955 533.071 47.18 532.191 47.18ZM532.191 40.445C531.591 40.445 531.056 40.63 530.586 41C530.126 41.36 529.861 41.89 529.791 42.59H534.471C534.441 41.92 534.211 41.395 533.781 41.015C533.351 40.635 532.821 40.445 532.191 40.445ZM539.861 47.18C539.241 47.18 538.726 47.075 538.316 46.865C537.906 46.655 537.601 46.375 537.401 46.025C537.201 45.675 537.101 45.295 537.101 44.885C537.101 44.125 537.391 43.54 537.971 43.13C538.551 42.72 539.341 42.515 540.341 42.515H542.351V42.425C542.351 41.775 542.181 41.285 541.841 40.955C541.501 40.615 541.046 40.445 540.476 40.445C539.986 40.445 539.561 40.57 539.201 40.82C538.851 41.06 538.631 41.415 538.541 41.885H537.251C537.301 41.345 537.481 40.89 537.791 40.52C538.111 40.15 538.506 39.87 538.976 39.68C539.446 39.48 539.946 39.38 540.476 39.38C541.516 39.38 542.296 39.66 542.816 40.22C543.346 40.77 543.611 41.505 543.611 42.425V47H542.486L542.411 45.665C542.201 46.085 541.891 46.445 541.481 46.745C541.081 47.035 540.541 47.18 539.861 47.18ZM540.056 46.115C540.536 46.115 540.946 45.99 541.286 45.74C541.636 45.49 541.901 45.165 542.081 44.765C542.261 44.365 542.351 43.945 542.351 43.505V43.49H540.446C539.706 43.49 539.181 43.62 538.871 43.88C538.571 44.13 538.421 44.445 538.421 44.825C538.421 45.215 538.561 45.53 538.841 45.77C539.131 46 539.536 46.115 540.056 46.115ZM545.501 47V39.56H546.641L546.731 40.64C546.971 40.24 547.291 39.93 547.691 39.71C548.091 39.49 548.541 39.38 549.041 39.38C549.631 39.38 550.136 39.5 550.556 39.74C550.986 39.98 551.316 40.345 551.546 40.835C551.806 40.385 552.161 40.03 552.611 39.77C553.071 39.51 553.566 39.38 554.096 39.38C554.986 39.38 555.696 39.65 556.226 40.19C556.756 40.72 557.021 41.54 557.021 42.65V47H555.776V42.785C555.776 42.015 555.621 41.435 555.311 41.045C555.001 40.655 554.556 40.46 553.976 40.46C553.376 40.46 552.876 40.695 552.476 41.165C552.086 41.625 551.891 42.285 551.891 43.145V47H550.631V42.785C550.631 42.015 550.476 41.435 550.166 41.045C549.856 40.655 549.411 40.46 548.831 40.46C548.241 40.46 547.746 40.695 547.346 41.165C546.956 41.625 546.761 42.285 546.761 43.145V47H545.501ZM558.919 47V36.2H560.179V47H558.919ZM563.009 37.91C562.759 37.91 562.549 37.83 562.379 37.67C562.219 37.5 562.139 37.29 562.139 37.04C562.139 36.8 562.219 36.6 562.379 36.44C562.549 36.28 562.759 36.2 563.009 36.2C563.249 36.2 563.454 36.28 563.624 36.44C563.794 36.6 563.879 36.8 563.879 37.04C563.879 37.29 563.794 37.5 563.624 37.67C563.454 37.83 563.249 37.91 563.009 37.91ZM562.379 47V39.56H563.639V47H562.379ZM565.833 47V39.56H566.973L567.048 40.895C567.288 40.425 567.633 40.055 568.083 39.785C568.533 39.515 569.043 39.38 569.613 39.38C570.493 39.38 571.193 39.65 571.713 40.19C572.243 40.72 572.508 41.54 572.508 42.65V47H571.248V42.785C571.248 41.235 570.608 40.46 569.328 40.46C568.688 40.46 568.153 40.695 567.723 41.165C567.303 41.625 567.093 42.285 567.093 43.145V47H565.833ZM577.762 47.18C577.052 47.18 576.422 47.02 575.872 46.7C575.322 46.37 574.887 45.915 574.567 45.335C574.257 44.755 574.102 44.07 574.102 43.28C574.102 42.5 574.257 41.82 574.567 41.24C574.877 40.65 575.307 40.195 575.857 39.875C576.417 39.545 577.062 39.38 577.792 39.38C578.512 39.38 579.132 39.545 579.652 39.875C580.182 40.195 580.587 40.62 580.867 41.15C581.147 41.68 581.287 42.25 581.287 42.86C581.287 42.97 581.282 43.08 581.272 43.19C581.272 43.3 581.272 43.425 581.272 43.565H575.347C575.377 44.135 575.507 44.61 575.737 44.99C575.977 45.36 576.272 45.64 576.622 45.83C576.982 46.02 577.362 46.115 577.762 46.115C578.282 46.115 578.717 45.995 579.067 45.755C579.417 45.515 579.672 45.19 579.832 44.78H581.077C580.877 45.47 580.492 46.045 579.922 46.505C579.362 46.955 578.642 47.18 577.762 47.18ZM577.762 40.445C577.162 40.445 576.627 40.63 576.157 41C575.697 41.36 575.432 41.89 575.362 42.59H580.042C580.012 41.92 579.782 41.395 579.352 41.015C578.922 40.635 578.392 40.445 577.762 40.445ZM589.867 47C589.187 47 588.652 46.835 588.262 46.505C587.872 46.175 587.677 45.58 587.677 44.72V40.625H586.387V39.56H587.677L587.842 37.775H588.937V39.56H591.127V40.625H588.937V44.72C588.937 45.19 589.032 45.51 589.222 45.68C589.412 45.84 589.747 45.92 590.227 45.92H591.007V47H589.867ZM592.727 47V36.2H593.987V40.835C594.237 40.375 594.592 40.02 595.052 39.77C595.512 39.51 596.012 39.38 596.552 39.38C597.412 39.38 598.102 39.65 598.622 40.19C599.142 40.72 599.402 41.54 599.402 42.65V47H598.157V42.785C598.157 41.235 597.532 40.46 596.282 40.46C595.632 40.46 595.087 40.695 594.647 41.165C594.207 41.625 593.987 42.285 593.987 43.145V47H592.727ZM604.656 47.18C603.946 47.18 603.316 47.02 602.766 46.7C602.216 46.37 601.781 45.915 601.461 45.335C601.151 44.755 600.996 44.07 600.996 43.28C600.996 42.5 601.151 41.82 601.461 41.24C601.771 40.65 602.201 40.195 602.751 39.875C603.311 39.545 603.956 39.38 604.686 39.38C605.406 39.38 606.026 39.545 606.546 39.875C607.076 40.195 607.481 40.62 607.761 41.15C608.041 41.68 608.181 42.25 608.181 42.86C608.181 42.97 608.176 43.08 608.166 43.19C608.166 43.3 608.166 43.425 608.166 43.565H602.241C602.271 44.135 602.401 44.61 602.631 44.99C602.871 45.36 603.166 45.64 603.516 45.83C603.876 46.02 604.256 46.115 604.656 46.115C605.176 46.115 605.611 45.995 605.961 45.755C606.311 45.515 606.566 45.19 606.726 44.78H607.971C607.771 45.47 607.386 46.045 606.816 46.505C606.256 46.955 605.536 47.18 604.656 47.18ZM604.656 40.445C604.056 40.445 603.521 40.63 603.051 41C602.591 41.36 602.326 41.89 602.256 42.59H606.936C606.906 41.92 606.676 41.395 606.246 41.015C605.816 40.635 605.286 40.445 604.656 40.445ZM613.821 50.3V39.56H614.961L615.081 40.79C615.321 40.43 615.661 40.105 616.101 39.815C616.551 39.525 617.121 39.38 617.811 39.38C618.551 39.38 619.196 39.55 619.746 39.89C620.296 40.23 620.721 40.695 621.021 41.285C621.331 41.875 621.486 42.545 621.486 43.295C621.486 44.045 621.331 44.715 621.021 45.305C620.721 45.885 620.291 46.345 619.731 46.685C619.181 47.015 618.536 47.18 617.796 47.18C617.186 47.18 616.641 47.055 616.161 46.805C615.691 46.555 615.331 46.205 615.081 45.755V50.3H613.821ZM617.661 46.085C618.161 46.085 618.601 45.97 618.981 45.74C619.361 45.5 619.661 45.17 619.881 44.75C620.101 44.33 620.211 43.84 620.211 43.28C620.211 42.72 620.101 42.23 619.881 41.81C619.661 41.39 619.361 41.065 618.981 40.835C618.601 40.595 618.161 40.475 617.661 40.475C617.161 40.475 616.721 40.595 616.341 40.835C615.961 41.065 615.661 41.39 615.441 41.81C615.221 42.23 615.111 42.72 615.111 43.28C615.111 43.84 615.221 44.33 615.441 44.75C615.661 45.17 615.961 45.5 616.341 45.74C616.721 45.97 617.161 46.085 617.661 46.085ZM625.715 47.18C625.095 47.18 624.58 47.075 624.17 46.865C623.76 46.655 623.455 46.375 623.255 46.025C623.055 45.675 622.955 45.295 622.955 44.885C622.955 44.125 623.245 43.54 623.825 43.13C624.405 42.72 625.195 42.515 626.195 42.515H628.205V42.425C628.205 41.775 628.035 41.285 627.695 40.955C627.355 40.615 626.9 40.445 626.33 40.445C625.84 40.445 625.415 40.57 625.055 40.82C624.705 41.06 624.485 41.415 624.395 41.885H623.105C623.155 41.345 623.335 40.89 623.645 40.52C623.965 40.15 624.36 39.87 624.83 39.68C625.3 39.48 625.8 39.38 626.33 39.38C627.37 39.38 628.15 39.66 628.67 40.22C629.2 40.77 629.465 41.505 629.465 42.425V47H628.34L628.265 45.665C628.055 46.085 627.745 46.445 627.335 46.745C626.935 47.035 626.395 47.18 625.715 47.18ZM625.91 46.115C626.39 46.115 626.8 45.99 627.14 45.74C627.49 45.49 627.755 45.165 627.935 44.765C628.115 44.365 628.205 43.945 628.205 43.505V43.49H626.3C625.56 43.49 625.035 43.62 624.725 43.88C624.425 44.13 624.275 44.445 624.275 44.825C624.275 45.215 624.415 45.53 624.695 45.77C624.985 46 625.39 46.115 625.91 46.115ZM634.09 47C633.41 47 632.875 46.835 632.485 46.505C632.095 46.175 631.9 45.58 631.9 44.72V40.625H630.61V39.56H631.9L632.065 37.775H633.16V39.56H635.35V40.625H633.16V44.72C633.16 45.19 633.255 45.51 633.445 45.68C633.635 45.84 633.97 45.92 634.45 45.92H635.23V47H634.09ZM637.716 37.91C637.466 37.91 637.256 37.83 637.086 37.67C636.926 37.5 636.846 37.29 636.846 37.04C636.846 36.8 636.926 36.6 637.086 36.44C637.256 36.28 637.466 36.2 637.716 36.2C637.956 36.2 638.161 36.28 638.331 36.44C638.501 36.6 638.586 36.8 638.586 37.04C638.586 37.29 638.501 37.5 638.331 37.67C638.161 37.83 637.956 37.91 637.716 37.91ZM637.086 47V39.56H638.346V47H637.086ZM643.885 47.18C643.175 47.18 642.545 47.02 641.995 46.7C641.445 46.37 641.01 45.915 640.69 45.335C640.38 44.755 640.225 44.07 640.225 43.28C640.225 42.5 640.38 41.82 640.69 41.24C641 40.65 641.43 40.195 641.98 39.875C642.54 39.545 643.185 39.38 643.915 39.38C644.635 39.38 645.255 39.545 645.775 39.875C646.305 40.195 646.71 40.62 646.99 41.15C647.27 41.68 647.41 42.25 647.41 42.86C647.41 42.97 647.405 43.08 647.395 43.19C647.395 43.3 647.395 43.425 647.395 43.565H641.47C641.5 44.135 641.63 44.61 641.86 44.99C642.1 45.36 642.395 45.64 642.745 45.83C643.105 46.02 643.485 46.115 643.885 46.115C644.405 46.115 644.84 45.995 645.19 45.755C645.54 45.515 645.795 45.19 645.955 44.78H647.2C647 45.47 646.615 46.045 646.045 46.505C645.485 46.955 644.765 47.18 643.885 47.18ZM643.885 40.445C643.285 40.445 642.75 40.63 642.28 41C641.82 41.36 641.555 41.89 641.485 42.59H646.165C646.135 41.92 645.905 41.395 645.475 41.015C645.045 40.635 644.515 40.445 643.885 40.445ZM649.08 47V39.56H650.22L650.295 40.895C650.535 40.425 650.88 40.055 651.33 39.785C651.78 39.515 652.29 39.38 652.86 39.38C653.74 39.38 654.44 39.65 654.96 40.19C655.49 40.72 655.755 41.54 655.755 42.65V47H654.495V42.785C654.495 41.235 653.855 40.46 652.575 40.46C651.935 40.46 651.4 40.695 650.97 41.165C650.55 41.625 650.34 42.285 650.34 43.145V47H649.08ZM660.604 47C659.924 47 659.389 46.835 658.999 46.505C658.609 46.175 658.414 45.58 658.414 44.72V40.625H657.124V39.56H658.414L658.579 37.775H659.674V39.56H661.864V40.625H659.674V44.72C659.674 45.19 659.769 45.51 659.959 45.68C660.149 45.84 660.484 45.92 660.964 45.92H661.744V47H660.604ZM670.824 47.18C670.124 47.18 669.494 47.02 668.934 46.7C668.374 46.38 667.929 45.93 667.599 45.35C667.279 44.76 667.119 44.07 667.119 43.28C667.119 42.49 667.284 41.805 667.614 41.225C667.944 40.635 668.389 40.18 668.949 39.86C669.519 39.54 670.154 39.38 670.854 39.38C671.554 39.38 672.184 39.54 672.744 39.86C673.304 40.18 673.744 40.635 674.064 41.225C674.394 41.805 674.559 42.49 674.559 43.28C674.559 44.07 674.394 44.76 674.064 45.35C673.734 45.93 673.284 46.38 672.714 46.7C672.154 47.02 671.524 47.18 670.824 47.18ZM670.824 46.1C671.254 46.1 671.654 45.995 672.024 45.785C672.394 45.575 672.694 45.26 672.924 44.84C673.154 44.42 673.269 43.9 673.269 43.28C673.269 42.66 673.154 42.14 672.924 41.72C672.704 41.3 672.409 40.985 672.039 40.775C671.669 40.565 671.274 40.46 670.854 40.46C670.424 40.46 670.024 40.565 669.654 40.775C669.284 40.985 668.984 41.3 668.754 41.72C668.524 42.14 668.409 42.66 668.409 43.28C668.409 43.9 668.524 44.42 668.754 44.84C668.984 45.26 669.279 45.575 669.639 45.785C670.009 45.995 670.404 46.1 670.824 46.1ZM676.311 47V39.56H677.451L677.526 40.895C677.766 40.425 678.111 40.055 678.561 39.785C679.011 39.515 679.521 39.38 680.091 39.38C680.971 39.38 681.671 39.65 682.191 40.19C682.721 40.72 682.986 41.54 682.986 42.65V47H681.726V42.785C681.726 41.235 681.086 40.46 679.806 40.46C679.166 40.46 678.631 40.695 678.201 41.165C677.781 41.625 677.571 42.285 677.571 43.145V47H676.311ZM688.87 47.18C688.26 47.18 687.715 47.055 687.235 46.805C686.765 46.555 686.405 46.205 686.155 45.755L686.035 47H684.895V36.2H686.155V40.79C686.395 40.43 686.735 40.105 687.175 39.815C687.625 39.525 688.195 39.38 688.885 39.38C689.625 39.38 690.27 39.55 690.82 39.89C691.37 40.23 691.795 40.695 692.095 41.285C692.405 41.875 692.56 42.545 692.56 43.295C692.56 44.045 692.405 44.715 692.095 45.305C691.795 45.885 691.365 46.345 690.805 46.685C690.255 47.015 689.61 47.18 688.87 47.18ZM688.735 46.085C689.235 46.085 689.675 45.97 690.055 45.74C690.435 45.5 690.735 45.17 690.955 44.75C691.175 44.33 691.285 43.84 691.285 43.28C691.285 42.72 691.175 42.23 690.955 41.81C690.735 41.39 690.435 41.065 690.055 40.835C689.675 40.595 689.235 40.475 688.735 40.475C688.235 40.475 687.795 40.595 687.415 40.835C687.035 41.065 686.735 41.39 686.515 41.81C686.295 42.23 686.185 42.72 686.185 43.28C686.185 43.84 686.295 44.33 686.515 44.75C686.735 45.17 687.035 45.5 687.415 45.74C687.795 45.97 688.235 46.085 688.735 46.085ZM697.704 47.18C697.004 47.18 696.374 47.02 695.814 46.7C695.254 46.38 694.809 45.93 694.479 45.35C694.159 44.76 693.999 44.07 693.999 43.28C693.999 42.49 694.164 41.805 694.494 41.225C694.824 40.635 695.269 40.18 695.829 39.86C696.399 39.54 697.034 39.38 697.734 39.38C698.434 39.38 699.064 39.54 699.624 39.86C700.184 40.18 700.624 40.635 700.944 41.225C701.274 41.805 701.439 42.49 701.439 43.28C701.439 44.07 701.274 44.76 700.944 45.35C700.614 45.93 700.164 46.38 699.594 46.7C699.034 47.02 698.404 47.18 697.704 47.18ZM697.704 46.1C698.134 46.1 698.534 45.995 698.904 45.785C699.274 45.575 699.574 45.26 699.804 44.84C700.034 44.42 700.149 43.9 700.149 43.28C700.149 42.66 700.034 42.14 699.804 41.72C699.584 41.3 699.289 40.985 698.919 40.775C698.549 40.565 698.154 40.46 697.734 40.46C697.304 40.46 696.904 40.565 696.534 40.775C696.164 40.985 695.864 41.3 695.634 41.72C695.404 42.14 695.289 42.66 695.289 43.28C695.289 43.9 695.404 44.42 695.634 44.84C695.864 45.26 696.159 45.575 696.519 45.785C696.889 45.995 697.284 46.1 697.704 46.1ZM705.666 47.18C705.046 47.18 704.531 47.075 704.121 46.865C703.711 46.655 703.406 46.375 703.206 46.025C703.006 45.675 702.906 45.295 702.906 44.885C702.906 44.125 703.196 43.54 703.776 43.13C704.356 42.72 705.146 42.515 706.146 42.515H708.156V42.425C708.156 41.775 707.986 41.285 707.646 40.955C707.306 40.615 706.851 40.445 706.281 40.445C705.791 40.445 705.366 40.57 705.006 40.82C704.656 41.06 704.436 41.415 704.346 41.885H703.056C703.106 41.345 703.286 40.89 703.596 40.52C703.916 40.15 704.311 39.87 704.781 39.68C705.251 39.48 705.751 39.38 706.281 39.38C707.321 39.38 708.101 39.66 708.621 40.22C709.151 40.77 709.416 41.505 709.416 42.425V47H708.291L708.216 45.665C708.006 46.085 707.696 46.445 707.286 46.745C706.886 47.035 706.346 47.18 705.666 47.18ZM705.861 46.115C706.341 46.115 706.751 45.99 707.091 45.74C707.441 45.49 707.706 45.165 707.886 44.765C708.066 44.365 708.156 43.945 708.156 43.505V43.49H706.251C705.511 43.49 704.986 43.62 704.676 43.88C704.376 44.13 704.226 44.445 704.226 44.825C704.226 45.215 704.366 45.53 704.646 45.77C704.936 46 705.341 46.115 705.861 46.115ZM711.306 47V39.56H712.446L712.551 40.985C712.781 40.495 713.131 40.105 713.601 39.815C714.071 39.525 714.651 39.38 715.341 39.38V40.7H714.996C714.556 40.7 714.151 40.78 713.781 40.94C713.411 41.09 713.116 41.35 712.896 41.72C712.676 42.09 712.566 42.6 712.566 43.25V47H711.306ZM719.852 47.18C719.112 47.18 718.462 47.01 717.902 46.67C717.352 46.33 716.922 45.865 716.612 45.275C716.312 44.685 716.162 44.015 716.162 43.265C716.162 42.515 716.317 41.85 716.627 41.27C716.937 40.68 717.367 40.22 717.917 39.89C718.467 39.55 719.117 39.38 719.867 39.38C720.477 39.38 721.017 39.505 721.487 39.755C721.957 40.005 722.322 40.355 722.582 40.805V36.2H723.842V47H722.702L722.582 45.77C722.342 46.13 721.997 46.455 721.547 46.745C721.097 47.035 720.532 47.18 719.852 47.18ZM719.987 46.085C720.487 46.085 720.927 45.97 721.307 45.74C721.697 45.5 721.997 45.17 722.207 44.75C722.427 44.33 722.537 43.84 722.537 43.28C722.537 42.72 722.427 42.23 722.207 41.81C721.997 41.39 721.697 41.065 721.307 40.835C720.927 40.595 720.487 40.475 719.987 40.475C719.497 40.475 719.057 40.595 718.667 40.835C718.287 41.065 717.987 41.39 717.767 41.81C717.557 42.23 717.452 42.72 717.452 43.28C717.452 43.84 717.557 44.33 717.767 44.75C717.987 45.17 718.287 45.5 718.667 45.74C719.057 45.97 719.497 46.085 719.987 46.085ZM726.661 37.91C726.411 37.91 726.201 37.83 726.031 37.67C725.871 37.5 725.791 37.29 725.791 37.04C725.791 36.8 725.871 36.6 726.031 36.44C726.201 36.28 726.411 36.2 726.661 36.2C726.901 36.2 727.106 36.28 727.276 36.44C727.446 36.6 727.531 36.8 727.531 37.04C727.531 37.29 727.446 37.5 727.276 37.67C727.106 37.83 726.901 37.91 726.661 37.91ZM726.031 47V39.56H727.291V47H726.031ZM729.485 47V39.56H730.625L730.7 40.895C730.94 40.425 731.285 40.055 731.735 39.785C732.185 39.515 732.695 39.38 733.265 39.38C734.145 39.38 734.845 39.65 735.365 40.19C735.895 40.72 736.16 41.54 736.16 42.65V47H734.9V42.785C734.9 41.235 734.26 40.46 732.98 40.46C732.34 40.46 731.805 40.695 731.375 41.165C730.955 41.625 730.745 42.285 730.745 43.145V47H729.485ZM741.009 44.66C740.589 44.66 740.204 44.605 739.854 44.495L739.104 45.2C739.214 45.28 739.349 45.35 739.509 45.41C739.679 45.46 739.919 45.51 740.229 45.56C740.539 45.6 740.974 45.645 741.534 45.695C742.534 45.765 743.249 45.995 743.679 46.385C744.109 46.775 744.324 47.285 744.324 47.915C744.324 48.345 744.204 48.755 743.964 49.145C743.734 49.535 743.374 49.855 742.884 50.105C742.404 50.355 741.784 50.48 741.024 50.48C740.354 50.48 739.759 50.39 739.239 50.21C738.719 50.04 738.314 49.775 738.024 49.415C737.734 49.065 737.589 48.62 737.589 48.08C737.589 47.8 737.664 47.495 737.814 47.165C737.964 46.845 738.244 46.54 738.654 46.25C738.434 46.16 738.244 46.065 738.084 45.965C737.934 45.855 737.794 45.735 737.664 45.605V45.26L738.939 44C738.349 43.5 738.054 42.84 738.054 42.02C738.054 41.53 738.169 41.085 738.399 40.685C738.629 40.285 738.964 39.97 739.404 39.74C739.844 39.5 740.379 39.38 741.009 39.38C741.439 39.38 741.829 39.44 742.179 39.56H744.924V40.505L743.529 40.565C743.819 40.985 743.964 41.47 743.964 42.02C743.964 42.51 743.844 42.955 743.604 43.355C743.374 43.755 743.039 44.075 742.599 44.315C742.169 44.545 741.639 44.66 741.009 44.66ZM741.009 43.625C741.539 43.625 741.959 43.49 742.269 43.22C742.589 42.94 742.749 42.54 742.749 42.02C742.749 41.51 742.589 41.12 742.269 40.85C741.959 40.57 741.539 40.43 741.009 40.43C740.469 40.43 740.039 40.57 739.719 40.85C739.409 41.12 739.254 41.51 739.254 42.02C739.254 42.54 739.409 42.94 739.719 43.22C740.039 43.49 740.469 43.625 741.009 43.625ZM738.819 47.96C738.819 48.46 739.029 48.83 739.449 49.07C739.869 49.32 740.394 49.445 741.024 49.445C741.644 49.445 742.139 49.31 742.509 49.04C742.889 48.77 743.079 48.41 743.079 47.96C743.079 47.64 742.949 47.36 742.689 47.12C742.429 46.89 741.949 46.755 741.249 46.715C740.699 46.675 740.224 46.625 739.824 46.565C739.414 46.785 739.144 47.02 739.014 47.27C738.884 47.53 738.819 47.76 738.819 47.96ZM750.315 50.3V39.56H751.455L751.575 40.79C751.815 40.43 752.155 40.105 752.595 39.815C753.045 39.525 753.615 39.38 754.305 39.38C755.045 39.38 755.69 39.55 756.24 39.89C756.79 40.23 757.215 40.695 757.515 41.285C757.825 41.875 757.98 42.545 757.98 43.295C757.98 44.045 757.825 44.715 757.515 45.305C757.215 45.885 756.785 46.345 756.225 46.685C755.675 47.015 755.03 47.18 754.29 47.18C753.68 47.18 753.135 47.055 752.655 46.805C752.185 46.555 751.825 46.205 751.575 45.755V50.3H750.315ZM754.155 46.085C754.655 46.085 755.095 45.97 755.475 45.74C755.855 45.5 756.155 45.17 756.375 44.75C756.595 44.33 756.705 43.84 756.705 43.28C756.705 42.72 756.595 42.23 756.375 41.81C756.155 41.39 755.855 41.065 755.475 40.835C755.095 40.595 754.655 40.475 754.155 40.475C753.655 40.475 753.215 40.595 752.835 40.835C752.455 41.065 752.155 41.39 751.935 41.81C751.715 42.23 751.605 42.72 751.605 43.28C751.605 43.84 751.715 44.33 751.935 44.75C752.155 45.17 752.455 45.5 752.835 45.74C753.215 45.97 753.655 46.085 754.155 46.085ZM759.734 47V39.56H760.874L760.979 40.985C761.209 40.495 761.559 40.105 762.029 39.815C762.499 39.525 763.079 39.38 763.769 39.38V40.7H763.424C762.984 40.7 762.579 40.78 762.209 40.94C761.839 41.09 761.544 41.35 761.324 41.72C761.104 42.09 760.994 42.6 760.994 43.25V47H759.734ZM768.295 47.18C767.595 47.18 766.965 47.02 766.405 46.7C765.845 46.38 765.4 45.93 765.07 45.35C764.75 44.76 764.59 44.07 764.59 43.28C764.59 42.49 764.755 41.805 765.085 41.225C765.415 40.635 765.86 40.18 766.42 39.86C766.99 39.54 767.625 39.38 768.325 39.38C769.025 39.38 769.655 39.54 770.215 39.86C770.775 40.18 771.215 40.635 771.535 41.225C771.865 41.805 772.03 42.49 772.03 43.28C772.03 44.07 771.865 44.76 771.535 45.35C771.205 45.93 770.755 46.38 770.185 46.7C769.625 47.02 768.995 47.18 768.295 47.18ZM768.295 46.1C768.725 46.1 769.125 45.995 769.495 45.785C769.865 45.575 770.165 45.26 770.395 44.84C770.625 44.42 770.74 43.9 770.74 43.28C770.74 42.66 770.625 42.14 770.395 41.72C770.175 41.3 769.88 40.985 769.51 40.775C769.14 40.565 768.745 40.46 768.325 40.46C767.895 40.46 767.495 40.565 767.125 40.775C766.755 40.985 766.455 41.3 766.225 41.72C765.995 42.14 765.88 42.66 765.88 43.28C765.88 43.9 765.995 44.42 766.225 44.84C766.455 45.26 766.75 45.575 767.11 45.785C767.48 45.995 767.875 46.1 768.295 46.1ZM777.202 47.18C776.492 47.18 775.852 47.02 775.282 46.7C774.722 46.37 774.277 45.915 773.947 45.335C773.627 44.745 773.467 44.06 773.467 43.28C773.467 42.5 773.627 41.82 773.947 41.24C774.277 40.65 774.722 40.195 775.282 39.875C775.852 39.545 776.492 39.38 777.202 39.38C778.082 39.38 778.822 39.61 779.422 40.07C780.032 40.53 780.417 41.145 780.577 41.915H779.287C779.187 41.455 778.942 41.1 778.552 40.85C778.162 40.59 777.707 40.46 777.187 40.46C776.767 40.46 776.372 40.565 776.002 40.775C775.632 40.985 775.332 41.3 775.102 41.72C774.872 42.14 774.757 42.66 774.757 43.28C774.757 43.9 774.872 44.42 775.102 44.84C775.332 45.26 775.632 45.58 776.002 45.8C776.372 46.01 776.767 46.115 777.187 46.115C777.707 46.115 778.162 45.99 778.552 45.74C778.942 45.48 779.187 45.115 779.287 44.645H780.577C780.427 45.395 780.047 46.005 779.437 46.475C778.827 46.945 778.082 47.18 777.202 47.18ZM785.682 47.18C784.972 47.18 784.342 47.02 783.792 46.7C783.242 46.37 782.807 45.915 782.487 45.335C782.177 44.755 782.022 44.07 782.022 43.28C782.022 42.5 782.177 41.82 782.487 41.24C782.797 40.65 783.227 40.195 783.777 39.875C784.337 39.545 784.982 39.38 785.712 39.38C786.432 39.38 787.052 39.545 787.572 39.875C788.102 40.195 788.507 40.62 788.787 41.15C789.067 41.68 789.207 42.25 789.207 42.86C789.207 42.97 789.202 43.08 789.192 43.19C789.192 43.3 789.192 43.425 789.192 43.565H783.267C783.297 44.135 783.427 44.61 783.657 44.99C783.897 45.36 784.192 45.64 784.542 45.83C784.902 46.02 785.282 46.115 785.682 46.115C786.202 46.115 786.637 45.995 786.987 45.755C787.337 45.515 787.592 45.19 787.752 44.78H788.997C788.797 45.47 788.412 46.045 787.842 46.505C787.282 46.955 786.562 47.18 785.682 47.18ZM785.682 40.445C785.082 40.445 784.547 40.63 784.077 41C783.617 41.36 783.352 41.89 783.282 42.59H787.962C787.932 41.92 787.702 41.395 787.272 41.015C786.842 40.635 786.312 40.445 785.682 40.445ZM793.727 47.18C792.837 47.18 792.097 46.955 791.507 46.505C790.917 46.055 790.572 45.445 790.472 44.675H791.762C791.842 45.065 792.047 45.405 792.377 45.695C792.717 45.975 793.172 46.115 793.742 46.115C794.272 46.115 794.662 46.005 794.912 45.785C795.162 45.555 795.287 45.285 795.287 44.975C795.287 44.525 795.122 44.225 794.792 44.075C794.472 43.925 794.017 43.79 793.427 43.67C793.027 43.59 792.627 43.475 792.227 43.325C791.827 43.175 791.492 42.965 791.222 42.695C790.952 42.415 790.817 42.05 790.817 41.6C790.817 40.95 791.057 40.42 791.537 40.01C792.027 39.59 792.687 39.38 793.517 39.38C794.307 39.38 794.952 39.58 795.452 39.98C795.962 40.37 796.257 40.93 796.337 41.66H795.092C795.042 41.28 794.877 40.985 794.597 40.775C794.327 40.555 793.962 40.445 793.502 40.445C793.052 40.445 792.702 40.54 792.452 40.73C792.212 40.92 792.092 41.17 792.092 41.48C792.092 41.78 792.247 42.015 792.557 42.185C792.877 42.355 793.307 42.5 793.847 42.62C794.307 42.72 794.742 42.845 795.152 42.995C795.572 43.135 795.912 43.35 796.172 43.64C796.442 43.92 796.577 44.33 796.577 44.87C796.587 45.54 796.332 46.095 795.812 46.535C795.302 46.965 794.607 47.18 793.727 47.18ZM801.227 47.18C800.337 47.18 799.597 46.955 799.007 46.505C798.417 46.055 798.072 45.445 797.972 44.675H799.262C799.342 45.065 799.547 45.405 799.877 45.695C800.217 45.975 800.672 46.115 801.242 46.115C801.772 46.115 802.162 46.005 802.412 45.785C802.662 45.555 802.787 45.285 802.787 44.975C802.787 44.525 802.622 44.225 802.292 44.075C801.972 43.925 801.517 43.79 800.927 43.67C800.527 43.59 800.127 43.475 799.727 43.325C799.327 43.175 798.992 42.965 798.722 42.695C798.452 42.415 798.317 42.05 798.317 41.6C798.317 40.95 798.557 40.42 799.037 40.01C799.527 39.59 800.187 39.38 801.017 39.38C801.807 39.38 802.452 39.58 802.952 39.98C803.462 40.37 803.757 40.93 803.837 41.66H802.592C802.542 41.28 802.377 40.985 802.097 40.775C801.827 40.555 801.462 40.445 801.002 40.445C800.552 40.445 800.202 40.54 799.952 40.73C799.712 40.92 799.592 41.17 799.592 41.48C799.592 41.78 799.747 42.015 800.057 42.185C800.377 42.355 800.807 42.5 801.347 42.62C801.807 42.72 802.242 42.845 802.652 42.995C803.072 43.135 803.412 43.35 803.672 43.64C803.942 43.92 804.077 44.33 804.077 44.87C804.087 45.54 803.832 46.095 803.312 46.535C802.802 46.965 802.107 47.18 801.227 47.18ZM813.822 47.18C813.212 47.18 812.667 47.055 812.187 46.805C811.717 46.555 811.357 46.205 811.107 45.755L810.987 47H809.847V36.2H811.107V40.79C811.347 40.43 811.687 40.105 812.127 39.815C812.577 39.525 813.147 39.38 813.837 39.38C814.577 39.38 815.222 39.55 815.772 39.89C816.322 40.23 816.747 40.695 817.047 41.285C817.357 41.875 817.512 42.545 817.512 43.295C817.512 44.045 817.357 44.715 817.047 45.305C816.747 45.885 816.317 46.345 815.757 46.685C815.207 47.015 814.562 47.18 813.822 47.18ZM813.687 46.085C814.187 46.085 814.627 45.97 815.007 45.74C815.387 45.5 815.687 45.17 815.907 44.75C816.127 44.33 816.237 43.84 816.237 43.28C816.237 42.72 816.127 42.23 815.907 41.81C815.687 41.39 815.387 41.065 815.007 40.835C814.627 40.595 814.187 40.475 813.687 40.475C813.187 40.475 812.747 40.595 812.367 40.835C811.987 41.065 811.687 41.39 811.467 41.81C811.247 42.23 811.137 42.72 811.137 43.28C811.137 43.84 811.247 44.33 811.467 44.75C811.687 45.17 811.987 45.5 812.367 45.74C812.747 45.97 813.187 46.085 813.687 46.085ZM819.475 50.3L821.32 46.28H820.885L817.93 39.56H819.295L821.755 45.35L824.365 39.56H825.67L820.795 50.3H819.475ZM834.315 47.18C833.605 47.18 832.975 47.02 832.425 46.7C831.875 46.37 831.44 45.915 831.12 45.335C830.81 44.755 830.655 44.07 830.655 43.28C830.655 42.5 830.81 41.82 831.12 41.24C831.43 40.65 831.86 40.195 832.41 39.875C832.97 39.545 833.615 39.38 834.345 39.38C835.065 39.38 835.685 39.545 836.205 39.875C836.735 40.195 837.14 40.62 837.42 41.15C837.7 41.68 837.84 42.25 837.84 42.86C837.84 42.97 837.835 43.08 837.825 43.19C837.825 43.3 837.825 43.425 837.825 43.565H831.9C831.93 44.135 832.06 44.61 832.29 44.99C832.53 45.36 832.825 45.64 833.175 45.83C833.535 46.02 833.915 46.115 834.315 46.115C834.835 46.115 835.27 45.995 835.62 45.755C835.97 45.515 836.225 45.19 836.385 44.78H837.63C837.43 45.47 837.045 46.045 836.475 46.505C835.915 46.955 835.195 47.18 834.315 47.18ZM834.315 40.445C833.715 40.445 833.18 40.63 832.71 41C832.25 41.36 831.985 41.89 831.915 42.59H836.595C836.565 41.92 836.335 41.395 835.905 41.015C835.475 40.635 834.945 40.445 834.315 40.445ZM839.51 47V39.56H840.65L840.725 40.895C840.965 40.425 841.31 40.055 841.76 39.785C842.21 39.515 842.72 39.38 843.29 39.38C844.17 39.38 844.87 39.65 845.39 40.19C845.92 40.72 846.185 41.54 846.185 42.65V47H844.925V42.785C844.925 41.235 844.285 40.46 843.005 40.46C842.365 40.46 841.83 40.695 841.4 41.165C840.98 41.625 840.77 42.285 840.77 43.145V47H839.51ZM850.569 47.18C849.949 47.18 849.434 47.075 849.024 46.865C848.614 46.655 848.309 46.375 848.109 46.025C847.909 45.675 847.809 45.295 847.809 44.885C847.809 44.125 848.099 43.54 848.679 43.13C849.259 42.72 850.049 42.515 851.049 42.515H853.059V42.425C853.059 41.775 852.889 41.285 852.549 40.955C852.209 40.615 851.754 40.445 851.184 40.445C850.694 40.445 850.269 40.57 849.909 40.82C849.559 41.06 849.339 41.415 849.249 41.885H847.959C848.009 41.345 848.189 40.89 848.499 40.52C848.819 40.15 849.214 39.87 849.684 39.68C850.154 39.48 850.654 39.38 851.184 39.38C852.224 39.38 853.004 39.66 853.524 40.22C854.054 40.77 854.319 41.505 854.319 42.425V47H853.194L853.119 45.665C852.909 46.085 852.599 46.445 852.189 46.745C851.789 47.035 851.249 47.18 850.569 47.18ZM850.764 46.115C851.244 46.115 851.654 45.99 851.994 45.74C852.344 45.49 852.609 45.165 852.789 44.765C852.969 44.365 853.059 43.945 853.059 43.505V43.49H851.154C850.414 43.49 849.889 43.62 849.579 43.88C849.279 44.13 849.129 44.445 849.129 44.825C849.129 45.215 849.269 45.53 849.549 45.77C849.839 46 850.244 46.115 850.764 46.115ZM860.184 47.18C859.574 47.18 859.029 47.055 858.549 46.805C858.079 46.555 857.719 46.205 857.469 45.755L857.349 47H856.209V36.2H857.469V40.79C857.709 40.43 858.049 40.105 858.489 39.815C858.939 39.525 859.509 39.38 860.199 39.38C860.939 39.38 861.584 39.55 862.134 39.89C862.684 40.23 863.109 40.695 863.409 41.285C863.719 41.875 863.874 42.545 863.874 43.295C863.874 44.045 863.719 44.715 863.409 45.305C863.109 45.885 862.679 46.345 862.119 46.685C861.569 47.015 860.924 47.18 860.184 47.18ZM860.049 46.085C860.549 46.085 860.989 45.97 861.369 45.74C861.749 45.5 862.049 45.17 862.269 44.75C862.489 44.33 862.599 43.84 862.599 43.28C862.599 42.72 862.489 42.23 862.269 41.81C862.049 41.39 861.749 41.065 861.369 40.835C860.989 40.595 860.549 40.475 860.049 40.475C859.549 40.475 859.109 40.595 858.729 40.835C858.349 41.065 858.049 41.39 857.829 41.81C857.609 42.23 857.499 42.72 857.499 43.28C857.499 43.84 857.609 44.33 857.829 44.75C858.049 45.17 858.349 45.5 858.729 45.74C859.109 45.97 859.549 46.085 860.049 46.085ZM865.628 47V36.2H866.888V47H865.628ZM869.718 37.91C869.468 37.91 869.258 37.83 869.088 37.67C868.928 37.5 868.848 37.29 868.848 37.04C868.848 36.8 868.928 36.6 869.088 36.44C869.258 36.28 869.468 36.2 869.718 36.2C869.958 36.2 870.163 36.28 870.333 36.44C870.503 36.6 870.588 36.8 870.588 37.04C870.588 37.29 870.503 37.5 870.333 37.67C870.163 37.83 869.958 37.91 869.718 37.91ZM869.088 47V39.56H870.348V47H869.088ZM872.542 47V39.56H873.682L873.757 40.895C873.997 40.425 874.342 40.055 874.792 39.785C875.242 39.515 875.752 39.38 876.322 39.38C877.202 39.38 877.902 39.65 878.422 40.19C878.952 40.72 879.217 41.54 879.217 42.65V47H877.957V42.785C877.957 41.235 877.317 40.46 876.037 40.46C875.397 40.46 874.862 40.695 874.432 41.165C874.012 41.625 873.802 42.285 873.802 43.145V47H872.542ZM884.066 44.66C883.646 44.66 883.261 44.605 882.911 44.495L882.161 45.2C882.271 45.28 882.406 45.35 882.566 45.41C882.736 45.46 882.976 45.51 883.286 45.56C883.596 45.6 884.031 45.645 884.591 45.695C885.591 45.765 886.306 45.995 886.736 46.385C887.166 46.775 887.381 47.285 887.381 47.915C887.381 48.345 887.261 48.755 887.021 49.145C886.791 49.535 886.431 49.855 885.941 50.105C885.461 50.355 884.841 50.48 884.081 50.48C883.411 50.48 882.816 50.39 882.296 50.21C881.776 50.04 881.371 49.775 881.081 49.415C880.791 49.065 880.646 48.62 880.646 48.08C880.646 47.8 880.721 47.495 880.871 47.165C881.021 46.845 881.301 46.54 881.711 46.25C881.491 46.16 881.301 46.065 881.141 45.965C880.991 45.855 880.851 45.735 880.721 45.605V45.26L881.996 44C881.406 43.5 881.111 42.84 881.111 42.02C881.111 41.53 881.226 41.085 881.456 40.685C881.686 40.285 882.021 39.97 882.461 39.74C882.901 39.5 883.436 39.38 884.066 39.38C884.496 39.38 884.886 39.44 885.236 39.56H887.981V40.505L886.586 40.565C886.876 40.985 887.021 41.47 887.021 42.02C887.021 42.51 886.901 42.955 886.661 43.355C886.431 43.755 886.096 44.075 885.656 44.315C885.226 44.545 884.696 44.66 884.066 44.66ZM884.066 43.625C884.596 43.625 885.016 43.49 885.326 43.22C885.646 42.94 885.806 42.54 885.806 42.02C885.806 41.51 885.646 41.12 885.326 40.85C885.016 40.57 884.596 40.43 884.066 40.43C883.526 40.43 883.096 40.57 882.776 40.85C882.466 41.12 882.311 41.51 882.311 42.02C882.311 42.54 882.466 42.94 882.776 43.22C883.096 43.49 883.526 43.625 884.066 43.625ZM881.876 47.96C881.876 48.46 882.086 48.83 882.506 49.07C882.926 49.32 883.451 49.445 884.081 49.445C884.701 49.445 885.196 49.31 885.566 49.04C885.946 48.77 886.136 48.41 886.136 47.96C886.136 47.64 886.006 47.36 885.746 47.12C885.486 46.89 885.006 46.755 884.306 46.715C883.756 46.675 883.281 46.625 882.881 46.565C882.471 46.785 882.201 47.02 882.071 47.27C881.941 47.53 881.876 47.76 881.876 47.96ZM895.847 47.18C895.227 47.18 894.712 47.075 894.302 46.865C893.892 46.655 893.587 46.375 893.387 46.025C893.187 45.675 893.087 45.295 893.087 44.885C893.087 44.125 893.377 43.54 893.957 43.13C894.537 42.72 895.327 42.515 896.327 42.515H898.337V42.425C898.337 41.775 898.167 41.285 897.827 40.955C897.487 40.615 897.032 40.445 896.462 40.445C895.972 40.445 895.547 40.57 895.187 40.82C894.837 41.06 894.617 41.415 894.527 41.885H893.237C893.287 41.345 893.467 40.89 893.777 40.52C894.097 40.15 894.492 39.87 894.962 39.68C895.432 39.48 895.932 39.38 896.462 39.38C897.502 39.38 898.282 39.66 898.802 40.22C899.332 40.77 899.597 41.505 899.597 42.425V47H898.472L898.397 45.665C898.187 46.085 897.877 46.445 897.467 46.745C897.067 47.035 896.527 47.18 895.847 47.18ZM896.042 46.115C896.522 46.115 896.932 45.99 897.272 45.74C897.622 45.49 897.887 45.165 898.067 44.765C898.247 44.365 898.337 43.945 898.337 43.505V43.49H896.432C895.692 43.49 895.167 43.62 894.857 43.88C894.557 44.13 894.407 44.445 894.407 44.825C894.407 45.215 894.547 45.53 894.827 45.77C895.117 46 895.522 46.115 896.042 46.115ZM904.202 47.18C903.322 47.18 902.622 46.915 902.102 46.385C901.582 45.845 901.322 45.02 901.322 43.91V39.56H902.582V43.775C902.582 45.325 903.217 46.1 904.487 46.1C905.137 46.1 905.672 45.87 906.092 45.41C906.522 44.94 906.737 44.275 906.737 43.415V39.56H907.997V47H906.857L906.767 45.665C906.537 46.135 906.192 46.505 905.732 46.775C905.282 47.045 904.772 47.18 904.202 47.18ZM913.011 47C912.331 47 911.796 46.835 911.406 46.505C911.016 46.175 910.821 45.58 910.821 44.72V40.625H909.531V39.56H910.821L910.986 37.775H912.081V39.56H914.271V40.625H912.081V44.72C912.081 45.19 912.176 45.51 912.366 45.68C912.556 45.84 912.891 45.92 913.371 45.92H914.151V47H913.011ZM919.057 47.18C918.357 47.18 917.727 47.02 917.167 46.7C916.607 46.38 916.162 45.93 915.832 45.35C915.512 44.76 915.352 44.07 915.352 43.28C915.352 42.49 915.517 41.805 915.847 41.225C916.177 40.635 916.622 40.18 917.182 39.86C917.752 39.54 918.387 39.38 919.087 39.38C919.787 39.38 920.417 39.54 920.977 39.86C921.537 40.18 921.977 40.635 922.297 41.225C922.627 41.805 922.792 42.49 922.792 43.28C922.792 44.07 922.627 44.76 922.297 45.35C921.967 45.93 921.517 46.38 920.947 46.7C920.387 47.02 919.757 47.18 919.057 47.18ZM919.057 46.1C919.487 46.1 919.887 45.995 920.257 45.785C920.627 45.575 920.927 45.26 921.157 44.84C921.387 44.42 921.502 43.9 921.502 43.28C921.502 42.66 921.387 42.14 921.157 41.72C920.937 41.3 920.642 40.985 920.272 40.775C919.902 40.565 919.507 40.46 919.087 40.46C918.657 40.46 918.257 40.565 917.887 40.775C917.517 40.985 917.217 41.3 916.987 41.72C916.757 42.14 916.642 42.66 916.642 43.28C916.642 43.9 916.757 44.42 916.987 44.84C917.217 45.26 917.512 45.575 917.872 45.785C918.242 45.995 918.637 46.1 919.057 46.1ZM924.394 43.175V42.11H930.334V43.175H924.394ZM932.999 37.91C932.749 37.91 932.539 37.83 932.369 37.67C932.209 37.5 932.129 37.29 932.129 37.04C932.129 36.8 932.209 36.6 932.369 36.44C932.539 36.28 932.749 36.2 932.999 36.2C933.239 36.2 933.444 36.28 933.614 36.44C933.784 36.6 933.869 36.8 933.869 37.04C933.869 37.29 933.784 37.5 933.614 37.67C933.444 37.83 933.239 37.91 932.999 37.91ZM932.369 47V39.56H933.629V47H932.369ZM935.823 47V39.56H936.963L937.038 40.895C937.278 40.425 937.623 40.055 938.073 39.785C938.523 39.515 939.033 39.38 939.603 39.38C940.483 39.38 941.183 39.65 941.703 40.19C942.233 40.72 942.498 41.54 942.498 42.65V47H941.238V42.785C941.238 41.235 940.598 40.46 939.318 40.46C938.678 40.46 938.143 40.695 937.713 41.165C937.293 41.625 937.083 42.285 937.083 43.145V47H935.823ZM946.406 47L943.586 39.56H944.906L947.141 45.785L949.391 39.56H950.681L947.861 47H946.406ZM952.848 37.91C952.598 37.91 952.388 37.83 952.218 37.67C952.058 37.5 951.978 37.29 951.978 37.04C951.978 36.8 952.058 36.6 952.218 36.44C952.388 36.28 952.598 36.2 952.848 36.2C953.088 36.2 953.293 36.28 953.463 36.44C953.633 36.6 953.718 36.8 953.718 37.04C953.718 37.29 953.633 37.5 953.463 37.67C953.293 37.83 953.088 37.91 952.848 37.91ZM952.218 47V39.56H953.478V47H952.218ZM958.612 47C957.932 47 957.397 46.835 957.007 46.505C956.617 46.175 956.422 45.58 956.422 44.72V40.625H955.132V39.56H956.422L956.587 37.775H957.682V39.56H959.872V40.625H957.682V44.72C957.682 45.19 957.777 45.51 957.967 45.68C958.157 45.84 958.492 45.92 958.972 45.92H959.752V47H958.612ZM964.612 47.18C963.902 47.18 963.272 47.02 962.722 46.7C962.172 46.37 961.737 45.915 961.417 45.335C961.107 44.755 960.952 44.07 960.952 43.28C960.952 42.5 961.107 41.82 961.417 41.24C961.727 40.65 962.157 40.195 962.707 39.875C963.267 39.545 963.912 39.38 964.642 39.38C965.362 39.38 965.982 39.545 966.502 39.875C967.032 40.195 967.437 40.62 967.717 41.15C967.997 41.68 968.137 42.25 968.137 42.86C968.137 42.97 968.132 43.08 968.122 43.19C968.122 43.3 968.122 43.425 968.122 43.565H962.197C962.227 44.135 962.357 44.61 962.587 44.99C962.827 45.36 963.122 45.64 963.472 45.83C963.832 46.02 964.212 46.115 964.612 46.115C965.132 46.115 965.567 45.995 965.917 45.755C966.267 45.515 966.522 45.19 966.682 44.78H967.927C967.727 45.47 967.342 46.045 966.772 46.505C966.212 46.955 965.492 47.18 964.612 47.18ZM964.612 40.445C964.012 40.445 963.477 40.63 963.007 41C962.547 41.36 962.282 41.89 962.212 42.59H966.892C966.862 41.92 966.632 41.395 966.202 41.015C965.772 40.635 965.242 40.445 964.612 40.445ZM970.242 47.075C969.992 47.075 969.782 46.995 969.612 46.835C969.452 46.665 969.372 46.46 969.372 46.22C969.372 45.98 969.452 45.78 969.612 45.62C969.782 45.45 969.992 45.365 970.242 45.365C970.482 45.365 970.682 45.45 970.842 45.62C971.012 45.78 971.097 45.98 971.097 46.22C971.097 46.46 971.012 46.665 970.842 46.835C970.682 46.995 970.482 47.075 970.242 47.075Z" fill="#38395B"/>
<rect x="1016" y="22" width="292" height="35" rx="17.5" fill="url(#paint0_linear_11867_14273)"/>
<path d="M1039.56 46L1043.41 34.825H1046.05L1049.91 46H1047.69L1046.89 43.6H1042.57L1041.76 46H1039.56ZM1043.16 41.8H1046.31L1044.45 36.235H1045.02L1043.16 41.8ZM1055.16 46.18C1054.3 46.18 1053.54 46 1052.87 45.64C1052.21 45.28 1051.69 44.785 1051.31 44.155C1050.93 43.525 1050.74 42.81 1050.74 42.01V34.825H1052.78V41.905C1052.78 42.365 1052.88 42.78 1053.08 43.15C1053.29 43.52 1053.57 43.81 1053.93 44.02C1054.29 44.22 1054.7 44.32 1055.16 44.32C1055.63 44.32 1056.04 44.22 1056.39 44.02C1056.75 43.81 1057.03 43.52 1057.23 43.15C1057.44 42.78 1057.55 42.365 1057.55 41.905V34.825H1059.59V42.01C1059.59 42.81 1059.4 43.525 1059.02 44.155C1058.64 44.785 1058.11 45.28 1057.44 45.64C1056.78 46 1056.02 46.18 1055.16 46.18ZM1063.6 46V36.625H1060.71V34.825H1068.51V36.625H1065.66V46H1063.6ZM1074.81 46.18C1073.99 46.18 1073.22 46.035 1072.51 45.745C1071.8 45.455 1071.18 45.05 1070.65 44.53C1070.12 44.01 1069.71 43.4 1069.41 42.7C1069.12 41.99 1068.97 41.225 1068.97 40.405C1068.97 39.575 1069.12 38.81 1069.41 38.11C1069.7 37.41 1070.11 36.8 1070.64 36.28C1071.17 35.76 1071.79 35.36 1072.5 35.08C1073.21 34.79 1073.98 34.645 1074.81 34.645C1075.64 34.645 1076.41 34.79 1077.12 35.08C1077.83 35.37 1078.45 35.775 1078.98 36.295C1079.51 36.805 1079.92 37.41 1080.21 38.11C1080.51 38.81 1080.66 39.575 1080.66 40.405C1080.66 41.225 1080.51 41.99 1080.21 42.7C1079.91 43.4 1079.49 44.01 1078.96 44.53C1078.43 45.05 1077.81 45.455 1077.1 45.745C1076.4 46.035 1075.64 46.18 1074.81 46.18ZM1074.81 44.32C1075.36 44.32 1075.86 44.225 1076.32 44.035C1076.78 43.835 1077.18 43.56 1077.52 43.21C1077.87 42.86 1078.14 42.445 1078.32 41.965C1078.51 41.485 1078.6 40.965 1078.6 40.405C1078.6 39.845 1078.51 39.33 1078.32 38.86C1078.14 38.38 1077.87 37.965 1077.52 37.615C1077.18 37.255 1076.78 36.98 1076.32 36.79C1075.86 36.6 1075.36 36.505 1074.81 36.505C1074.27 36.505 1073.77 36.6 1073.31 36.79C1072.85 36.98 1072.44 37.255 1072.09 37.615C1071.75 37.965 1071.49 38.38 1071.3 38.86C1071.11 39.33 1071.01 39.845 1071.01 40.405C1071.01 40.965 1071.11 41.485 1071.3 41.965C1071.49 42.445 1071.75 42.86 1072.09 43.21C1072.44 43.56 1072.85 43.835 1073.31 44.035C1073.77 44.225 1074.27 44.32 1074.81 44.32ZM1082.71 42.79V41.065H1089.08V42.79H1082.71ZM1091.46 46V34.825H1093.5V46H1091.46ZM1095.65 46V34.825H1097.24L1103.39 43.105L1102.57 43.27V34.825H1104.61V46H1103L1096.94 37.66L1097.69 37.495V46H1095.65ZM1109.76 46L1105.86 34.825H1108.08L1111.14 44.08H1110.7L1113.76 34.825H1115.98L1112.1 46H1109.76ZM1117.23 46V34.825H1119.27V46H1117.23ZM1123.4 46V36.625H1120.5V34.825H1128.3V36.625H1125.45V46H1123.4ZM1129.55 46V34.825H1136.97V36.625H1131.59V39.49H1136.67V41.29H1131.59V44.2H1136.97V46H1129.55ZM1145.13 46.18C1144.42 46.18 1143.76 46.05 1143.15 45.79C1142.55 45.53 1142.03 45.17 1141.59 44.71C1141.16 44.24 1140.84 43.695 1140.64 43.075L1142.34 42.34C1142.61 42.98 1143 43.485 1143.51 43.855C1144.02 44.215 1144.59 44.395 1145.23 44.395C1145.59 44.395 1145.9 44.34 1146.16 44.23C1146.43 44.11 1146.64 43.95 1146.78 43.75C1146.93 43.55 1147 43.31 1147 43.03C1147 42.7 1146.9 42.43 1146.7 42.22C1146.51 42 1146.22 41.83 1145.83 41.71L1143.69 41.02C1142.82 40.75 1142.16 40.345 1141.72 39.805C1141.28 39.265 1141.06 38.63 1141.06 37.9C1141.06 37.26 1141.22 36.695 1141.53 36.205C1141.85 35.715 1142.29 35.335 1142.85 35.065C1143.42 34.785 1144.07 34.645 1144.8 34.645C1145.47 34.645 1146.08 34.765 1146.64 35.005C1147.2 35.235 1147.68 35.56 1148.08 35.98C1148.49 36.39 1148.8 36.875 1149 37.435L1147.32 38.185C1147.1 37.625 1146.77 37.195 1146.33 36.895C1145.89 36.585 1145.38 36.43 1144.8 36.43C1144.46 36.43 1144.16 36.49 1143.9 36.61C1143.64 36.72 1143.43 36.88 1143.28 37.09C1143.14 37.29 1143.07 37.53 1143.07 37.81C1143.07 38.12 1143.17 38.395 1143.37 38.635C1143.57 38.865 1143.88 39.045 1144.29 39.175L1146.34 39.82C1147.23 40.11 1147.9 40.51 1148.34 41.02C1148.79 41.53 1149.01 42.16 1149.01 42.91C1149.01 43.55 1148.85 44.115 1148.52 44.605C1148.19 45.095 1147.73 45.48 1147.15 45.76C1146.57 46.04 1145.9 46.18 1145.13 46.18ZM1150.85 46V34.825H1158.27V36.625H1152.89V39.49H1157.97V41.29H1152.89V44.2H1158.27V46H1150.85ZM1159.77 46V34.825H1161.81V44.2H1166.59V46H1159.77ZM1167.91 46V34.825H1175.37V36.625H1169.95V39.715H1174.69V41.515H1169.95V46H1167.91ZM1176.94 42.79V41.065H1183.32V42.79H1176.94ZM1185.7 46V34.825H1189.87C1190.63 34.825 1191.3 34.965 1191.88 35.245C1192.47 35.515 1192.93 35.915 1193.26 36.445C1193.59 36.965 1193.75 37.6 1193.75 38.35C1193.75 39.09 1193.58 39.725 1193.24 40.255C1192.91 40.775 1192.46 41.175 1191.88 41.455C1191.3 41.735 1190.63 41.875 1189.87 41.875H1187.74V46H1185.7ZM1187.74 40.075H1189.9C1190.27 40.075 1190.59 40.005 1190.86 39.865C1191.13 39.715 1191.34 39.51 1191.49 39.25C1191.64 38.99 1191.71 38.69 1191.71 38.35C1191.71 38 1191.64 37.7 1191.49 37.45C1191.34 37.19 1191.13 36.99 1190.86 36.85C1190.59 36.7 1190.27 36.625 1189.9 36.625H1187.74V40.075ZM1193.62 46L1197.47 34.825H1200.11L1203.97 46H1201.75L1200.95 43.6H1196.63L1195.82 46H1193.62ZM1197.22 41.8H1200.37L1198.51 36.235H1199.08L1197.22 41.8ZM1207 46V41.05L1203.24 34.825H1205.56L1208.44 39.685H1207.62L1210.48 34.825H1212.81L1209.06 41.035V46H1207ZM1216.72 46V34.825H1220.89C1221.65 34.825 1222.32 34.965 1222.9 35.245C1223.49 35.515 1223.95 35.915 1224.28 36.445C1224.61 36.965 1224.78 37.6 1224.78 38.35C1224.78 39.09 1224.61 39.725 1224.27 40.255C1223.94 40.775 1223.48 41.175 1222.9 41.455C1222.32 41.735 1221.65 41.875 1220.89 41.875H1218.76V46H1216.72ZM1218.76 40.075H1220.92C1221.29 40.075 1221.61 40.005 1221.88 39.865C1222.15 39.715 1222.36 39.51 1222.51 39.25C1222.66 38.99 1222.74 38.69 1222.74 38.35C1222.74 38 1222.66 37.7 1222.51 37.45C1222.36 37.19 1222.15 36.99 1221.88 36.85C1221.61 36.7 1221.29 36.625 1220.92 36.625H1218.76V40.075ZM1224.64 46L1228.5 34.825H1231.14L1234.99 46H1232.77L1231.98 43.6H1227.66L1226.85 46H1224.64ZM1228.24 41.8H1231.39L1229.53 36.235H1230.1L1228.24 41.8ZM1237.47 46V36.625H1234.57V34.825H1242.37V36.625H1239.52V46H1237.47ZM1243.62 46V34.825H1245.66V46H1243.62ZM1247.81 46V34.825H1255.23V36.625H1249.85V39.49H1254.93V41.29H1249.85V44.2H1255.23V46H1247.81ZM1256.73 46V34.825H1258.32L1264.47 43.105L1263.64 43.27V34.825H1265.68V46H1264.08L1258.02 37.66L1258.77 37.495V46H1256.73ZM1269.83 46V36.625H1266.93V34.825H1274.73V36.625H1271.88V46H1269.83ZM1279.97 46.18C1279.26 46.18 1278.6 46.05 1277.99 45.79C1277.39 45.53 1276.87 45.17 1276.43 44.71C1276 44.24 1275.68 43.695 1275.48 43.075L1277.18 42.34C1277.45 42.98 1277.84 43.485 1278.35 43.855C1278.86 44.215 1279.43 44.395 1280.07 44.395C1280.43 44.395 1280.74 44.34 1281 44.23C1281.27 44.11 1281.48 43.95 1281.62 43.75C1281.77 43.55 1281.84 43.31 1281.84 43.03C1281.84 42.7 1281.74 42.43 1281.54 42.22C1281.35 42 1281.06 41.83 1280.67 41.71L1278.53 41.02C1277.66 40.75 1277 40.345 1276.56 39.805C1276.12 39.265 1275.9 38.63 1275.9 37.9C1275.9 37.26 1276.06 36.695 1276.37 36.205C1276.69 35.715 1277.13 35.335 1277.69 35.065C1278.26 34.785 1278.91 34.645 1279.64 34.645C1280.31 34.645 1280.92 34.765 1281.48 35.005C1282.04 35.235 1282.52 35.56 1282.92 35.98C1283.33 36.39 1283.64 36.875 1283.84 37.435L1282.16 38.185C1281.94 37.625 1281.61 37.195 1281.17 36.895C1280.73 36.585 1280.22 36.43 1279.64 36.43C1279.3 36.43 1279 36.49 1278.74 36.61C1278.48 36.72 1278.27 36.88 1278.12 37.09C1277.98 37.29 1277.91 37.53 1277.91 37.81C1277.91 38.12 1278.01 38.395 1278.21 38.635C1278.41 38.865 1278.72 39.045 1279.13 39.175L1281.18 39.82C1282.07 40.11 1282.74 40.51 1283.18 41.02C1283.63 41.53 1283.85 42.16 1283.85 42.91C1283.85 43.55 1283.69 44.115 1283.36 44.605C1283.03 45.095 1282.57 45.48 1281.99 45.76C1281.41 46.04 1280.74 46.18 1279.97 46.18Z" fill="white"/>
<defs>
<filter id="filter0_d_11867_14273" x="0.5" y="0.5" width="1338" height="90" filterUnits="userSpaceOnUse" color-interpolation-filters="sRGB">
<feFlood flood-opacity="0" result="BackgroundImageFix"/>
<feColorMatrix in="SourceAlpha" type="matrix" values="0 0 0 0 0 0 0 0 0 0 0 0 0 0 0 0 0 0 127 0" result="hardAlpha"/>
<feOffset dy="4"/>
<feGaussianBlur stdDeviation="7.5"/>
<feComposite in2="hardAlpha" operator="out"/>
<feColorMatrix type="matrix" values="0 0 0 0 0 0 0 0 0 0 0 0 0 0 0 0 0 0 0.15 0"/>
<feBlend mode="normal" in2="BackgroundImageFix" result="effect1_dropShadow_11867_14273"/>
<feBlend mode="normal" in="SourceGraphic" in2="effect1_dropShadow_11867_14273" result="shape"/>
</filter>
<linearGradient id="paint0_linear_11867_14273" x1="1016" y1="57" x2="1301" y2="27.5" gradientUnits="userSpaceOnUse">
<stop stop-color="#4A43CD"/>
<stop offset="1" stop-color="#AB60BB"/>
</linearGradient>
</defs>
</svg>
