<svg xmlns="http://www.w3.org/2000/svg" viewBox="0 0 1449.33 526.24"><g id="Vector_layer-3" data-name="Vector layer"><path d="M885.13,415.75c3.6-6.48,8.26-12.92,8.27-20.63-27-11.15-53.26-24-80.43-34.72-34.92-13-69.56-26.83-104.49-39.84-4.38,7.43-7.15,15.65-11.34,23.18,9.92,5.2,20.39,8.09,30.82,11.63l7.06,2.46.44.16c20.2,7.05,40.34,14.21,60.36,21.79,11.43,4.49,23.08,8.37,34.56,12.74C848.69,400.1,866.47,409,885.13,415.75Zm1.06-32.23c5.58,3.07,16.44,3.51,15.21,12.06-.09,7.42-3.42,14.17-7.18,20.4-2.1,3.31-3.73,9.14-8.71,8.08-18.66-5.6-36-15-54-22.41-30.16-11.43-60.38-22.84-90.9-33.29-16.5-6.59-34.12-10.31-49.77-18.89-4.93-3-1.33-8.56.75-12.23,1.36-2.72,2.36-5.6,3.92-8.22a94.35,94.35,0,0,1,5.86-12.1c1.15-2.78,3.54-6.24,6.94-4.41,2.94-.74,5.17,2.07,8,2.62,19.71,7.25,39.55,14.19,58.86,22.49,26.47,9.87,53,19.66,78.66,31.46C864.72,373.56,875.33,378.81,886.19,383.52Z"/><path d="M715.64,334c7.07,2.1,2,11.68-4,8.26C706.11,339.42,710,331.74,715.64,334Z"/><path d="M874.87,406c-6-.61-6.41-10,.15-9.81C882.83,396,882.38,406.45,874.87,406Z"/><path d="M397.05,247.58c5.48,3.45-.65,11-5.7,8.34C384.71,252.33,391.37,244.25,397.05,247.58Z"/><path d="M700.93,246.65c5.47,3.61-1.42,13.69-6.56,8.28C689.28,250,695.17,243.7,700.93,246.65Z"/><path d="M381.9,323.94c-7.12-1.5-4.19-10.86,2.46-9.27C389.58,316,386.87,324.92,381.9,323.94Z"/><path d="M223.31,409.2c-7.35-2.86-.16-12.38,5.2-7.82C231.76,404.65,227.35,410.44,223.31,409.2Z"/><path d="M858.5,190.69c-3.75-2.54-7.27-15.45-9.11-20.18-4.2-9.94-6.41-20.51-10-30.66-8-25.7-16.73-51.34-23-77.56-1.16-2.93.88-6.54,4.27-6,4.93.84,3.72,9.76,5.77,13.56q6.09,21.21,12.53,42.33c1.8,7.77,5.27,15,7.35,22.64,3.28,9.8,5.57,19.93,9.34,29.55,2.2,6.2,4.17,12.46,7,18.41.42.91.75,1.86,1.18,2.77C865.29,188.69,861.59,192.22,858.5,190.69Z"/><path d="M860.18,191.31c-3.78-2.13-1.59-8.39,2.72-7.53,6-1.77,11.82-5,18.16-5.33,5.19-.55,6.13,7.28,1,7.94C875.09,186.22,866,193.67,860.18,191.31Z"/><path d="M879.26,182.89c-2.57-3.77-2.29-8.87-4.13-13C871.74,159,868,148.22,864,137.49c-7.7-21.66-13.66-42.89-20.25-64.78-1.9-7.42-4.34-14.7-6.83-21.93-1.94-4.78,5.46-7.86,7.43-3,8.81,26,15.35,52.68,24.28,78.66,4.92,14.09,10.14,28,14.51,42.29,1,3.06,1.63,6.23,2.44,9.33a4.12,4.12,0,0,1-.7,4.92A4,4,0,0,1,879.26,182.89Z"/><path d="M864,172.66c-1.8-6,7.87-8.28,8.19-1.74C872.76,176.11,865.38,177.81,864,172.66Z"/><path d="M973.3,238.73c-9.14-1.65-18.33-.22-27.56-1.42-17.81-1.5-35.64-2.4-53.44-4-5.18-.41-4.7-8.29.53-8,2.35.2,4.71.34,7.06.51,23.93,1.85,47.87,4,71.87,4.37C980.36,229.7,981,239.92,973.3,238.73Z"/><path d="M1121.64,236.08c-4.92-.46-3.31-6-4.09-9.4a116.2,116.2,0,0,0-11.18-30.91h0c-14.52-24.76-29.39-35.17-56.75-42.56-11.28-2.65-22.71-5.48-34.37-5.5-19.62.41-38.52,6.44-55.64,15.56-15.91,9.69-27.18,24.9-37.82,39.83-2.79,5-6.28,9.43-9.6,14-3.58,5.75-7.53,12.23-14.35,14.4-2.59.77-5.6,2.08-8.15.58a4.07,4.07,0,0,1,.89-7.19,16.25,16.25,0,0,0,6.4-1.71c4.13-2.67,6.33-7.25,9-11.2,5.84-7.49,10.38-15.85,16.33-23.27,10.31-13.56,21.88-27,37.45-34.58,27.1-13.65,56.3-18.52,85.79-10.11,13.89,3.32,28.09,7.68,39.94,15.84,8,5.26,14.08,12.82,20.17,20.07,5.52,7.72,10.53,15.93,13.59,25C1121.13,210.72,1132,235.67,1121.64,236.08Z"/><path d="M1066.9,238.79a15.25,15.25,0,0,1,0-6c-1.13-6.15-5.68-11.51-9.39-16.37-10.33-13.54-29.67-14.9-45-11.29-13.63,3.4-26.22,12.47-31.29,25.73-.72,2.29-.06,4.44-1.89,6.12a4,4,0,0,1-5.65-.3c-3.35-6.66,3.2-15.15,6.94-20.55,15.15-19.28,43.53-25.21,66.12-17.32,13.39,5.14,23.28,18.12,27.94,31.33a15.55,15.55,0,0,1-.07,5.65c.31,2.2-.21,4.71-2.61,5.5A4,4,0,0,1,1066.9,238.79Z"/><path d="M1072.28,247.92c-3.69-1.49-3.56-7.12-3-10.43,1.52-4.49,8.56-2.65,7.71,2,7.12-1.37,14-3.74,21.16-5,7-1,13.89-1.53,20.8-3,5.14-.88,6.61,6.87,1.47,7.86-7.91,1.83-16.09,2-24,3.72C1088.37,244.32,1080.41,248.26,1072.28,247.92Z"/><path d="M1072.78,256.94c-2-4.57,3.48-6.2,6.88-7,13.38-4.4,27.37-6,41.23-8.11,3.35-1.29,7.72,1.1,6.37,5-1.35,3.49-5.72,2.6-8.67,3.51-6,.65-11.92,1.57-17.85,2.65a138,138,0,0,0-18.54,4.51C1079.06,258.34,1074.76,261,1072.78,256.94Z"/><path d="M997.57,320.17c-9.42-2.37-18.74-5.74-26.14-12.26-2.12-1.59-4.14-3.38-6.22-5-2.29-1.35-4.07-4.07-2.28-6.58,2-2.73,5.37-1.69,7.36.42,5.21,4.24,10.18,8.65,16.29,11.54,6.4,2.22,12.92,4.87,19.77,5.17,30.43-.28,49.88-4.18,63.58-34,3.25-7.4,4.22-15.49,4.93-23.41a4.05,4.05,0,0,1,5.11-2.42c3.1,1.09,2.69,4.48,2.49,7.13-1.55,20.56-12.71,41.21-30.47,52.11C1038.3,320.46,1012.88,323.23,997.57,320.17Z"/><path d="M940.4,339.58c-3.54-.77-3.69-4.71-2.2-7.39A71.33,71.33,0,0,1,946,316.37a111.11,111.11,0,0,1,18.19-20.76c3.13-2.82,8.23,1.13,6.14,4.89-2.67,2.8-5.59,5.39-8.09,8.4a74.81,74.81,0,0,0-14.38,20.56C945.76,332.91,945.9,340.36,940.4,339.58Z"/><path d="M1131.74,256.7c3,32.22-13.23,63.85-36.47,85.4-18.33,19.33-44.24,31.37-71,30.92-9.87.09-19.61-1.82-29.42-2.68-10.83-1.08-20.81-6-30.47-10.62-6.58-2.1-28.75-15.14-26.48-22.62,1.34-3.75,6.74-3.25,7.74.43a56.29,56.29,0,0,0,21.82,14.83c6.57,3.15,13.13,6.32,20.13,8.45,8.07,2.09,16.5,2.35,24.74,3.48,18.22,2.15,37-.4,53-9.32,17.52-9.83,32.49-24.58,43.45-41.34,9.92-16,15.22-31.88,15.49-50.82.13-4.63-1.52-9-2.78-13.37-1.61-4.91,6-7.45,7.61-2.47A100,100,0,0,1,1131.74,256.7Z"/><path d="M1045.84,247.43c.69,15.77-11.35,29.56-27.65,28-10.73.94-21.69-7.62-21.76-18.7-.34-8.75,3.2-18.27,11-22.91,4.72-2.31,9.14-6.15,14.71-5.69C1034.48,228.6,1044.78,234,1045.84,247.43Z"/><path d="M935.67,319.88c-3.29-.61-6.43-3-6.25-6.59-.28-3.22-.83-6.29-1.16-9.49a55.18,55.18,0,0,0-8-1.67c-5.27-1-4.13-5.72-2.65-9.46a77.77,77.77,0,0,0,2.08-8.75c-11.27-6.06-14.53-7-6.53-18.68a63.76,63.76,0,0,1-7.79-9.4c-2.69-3.45.22-7.13,2.18-10.12a32.7,32.7,0,0,1,5.29-6.27c3.74-3.29,9,2.11,5.59,5.77a27.61,27.61,0,0,0-5.69,7.23c1.44,1.88,2.88,3.77,4.47,5.53,1.94,2.1,5,4.21,4.7,7.42-.74,3-3,5.4-4.41,8.16,2.78,2.05,6.23,3,8.91,5.18,3.49,3.82-.28,11.59-1.14,16.1,5,1.12,11.06,1.65,11,8.18.34,3,.87,6.22,1.11,9.09C941.78,313.54,940.28,320.44,935.67,319.88Z"/><path d="M1099.48,226.34c-6.64-1.44-2-9.66-2-14.12-15.12-7.35-16.21-1.89-16.6-20.59l.09,0c-16.9-4.25-10.8.08-18.25-15.47-19.26,1.26-10.62,4.47-24-8.77-4.79,1.11-12.85,7.82-16.59,2.57a44.32,44.32,0,0,0-5.87-6.3c-3.09,2-6.3,3.87-9.45,5.82-2.52,1.41-5.14,3.89-8.23,2.75-3-1.43-5.53-3.41-8.28-5-3.29,3.48-6.07,10.33-10.72,11.67-3.34.09-6.49-1.56-9.84-1.66-5,16.62-4.08,12.2-19.45,15.53-3,22-.93,13.65-17.93,21.7,2.59,10.88-8.72,10.69-7.68,3.41-.53-3.9-1-8.24,3.32-10.14A46.29,46.29,0,0,1,940.51,203c3.71-17.67-1.47-17,18.74-19.8,4.93-13.47,2-16.35,18.42-12.52,9.92-12.09,7.44-16.85,22.58-6.55,4.23-2.68,8.63-5.08,12.77-7.89,5.07-4.55,10.8,3.91,14,7.28,14.93-6.28,13.21-6.83,24.25,5.79,16.38-2,16.4-3.45,22.55,12.55,15.78,2.95,14.74,3,15.5,18.37,4.73,2,9.74,3.54,14.11,6.27,2.52,1.84,2.18,5,1.8,7.73-.34,2.38-.84,4.73-1.24,7C1104.11,223.91,1102.44,226.65,1099.48,226.34Z"/><path d="M988.69,121.75c-3.69-3.91,1.56-7.66,5.09-8.94,3.84-1.89,7.65-3.81,11.56-5.54,9-4.6,17.58-9.74,26.78-13.9,5.93-3.65,12.52-5.65,18.9-8.29,4.76-2.08,8,5.08,3.3,7.29-1.08.47-2.18.92-3.28,1.36-17.07,6-32.11,16.31-48.55,23.68-2.61,1.45-5.44,2.52-8,4.08A4.1,4.1,0,0,1,988.69,121.75Z"/><path d="M1037.57,147.87c-3.61-3.07,2.9-12,3.35-16.4,1.22-7.71-6.66-10.55-13-8.88-6,1.35-11.49,4.08-17.07,6.5-4.62,2.84-10.25,4.28-15.56,2.68a12.41,12.41,0,0,1-7.88-8.37c-1.79-2.76.23-6.76,3.66-6.41,3.85.18,3.28,4.89,5.73,6.65,4.73,2.57,9.39-1.49,13.68-3.17,5-2,9.89-4.48,15.23-5.56,12.09-3.15,24.62,3.58,23.18,17.21-.74,4.43-2.76,8.53-4.25,12.73C1044.12,148.14,1040.27,150.43,1037.57,147.87Z"/><path d="M1109.13,123.32c-13.79-8.47-28.77-15.25-43.33-22.37-4.78-2.78-10-4.61-14.94-7-2.87-1.87-1.68-6.75,1.68-7.18,3.31,0,6,2.09,9,3.24,12,5.77,24,11.34,35.67,17.77,5.94,3.29,12.87,5.43,17.81,10.2,3.1,3.84-2.37,8.84-5.92,5.36Z"/><path d="M1132.15,137.94c-2.31-7.69-3.76-10-12.05-11.28-2.36-.55-5,.66-7.13-.81a4,4,0,0,1-.88-5.59c4.11-3.85,12.15-.87,16.93.57,5.66,1.93,8.6,7.46,10,12.91,1.19,2.17.85,5.1-1.62,6.2A4,4,0,0,1,1132.15,137.94Z"/><path d="M1155.13,151.27c-1.39-7.74-7.39-11.32-14.74-8.2-3.34,2.28-7.71-1.71-5.73-5.25,4.6-5.13,13.53-4.45,19.39-1.87,5.06,2.71,7.76,8.59,9,14C1163.83,155.06,1156.08,156.42,1155.13,151.27Z"/><path d="M1176.93,173.6c-2.87-2.7-1.84-7.41-3.24-10.87s-6.13-3.92-9.43-4.81c-1.67-.17-3.49.13-4.79-1.21a4.12,4.12,0,0,1-.78-4.88c2.48-4.75,14.53-.12,17.93,2.2,5.35,3.39,5.45,10.09,6.61,15.66C1184,173.08,1179.63,175.73,1176.93,173.6Z"/><path d="M1151.46,257.68a4,4,0,0,1-1.26-7.26,31.28,31.28,0,0,1,4.57-6.33c4.27-5.17,7.49-11.06,11.08-16.7,2.84-4.08,6-7.93,8.38-12.34,4.39-7.8,10.1-14.77,14.47-22.55,4.22-9,1.17-8.93-5.57-14.06a9.23,9.23,0,0,0-3.34-1.37c-4.49-1.72-2.55-8.44,2.12-7.87,5.72,1.79,10.87,5.94,14.92,10.3,7.27,12-8.88,26.66-14.07,37-5.24,9-11.71,17.14-17,26.11-2.21,3.6-5.17,6.85-7.64,10.11C1156.78,255.22,1154.88,258.59,1151.46,257.68Z"/><path d="M1129.8,263a4,4,0,0,1,.3-7.86,110.29,110.29,0,0,1,20.52-3.18,4,4,0,0,1,4.16,3.84c0,4.92-5.72,4.15-9.12,4.68C1140.26,260.51,1135.09,262.84,1129.8,263Z"/><path d="M1122.86,232.48a4.06,4.06,0,0,1-2.33-5.16c1.68-4.8,14.38-3.67,18.87-5.36,5-1.44,7.32,6,2.34,7.65a33.19,33.19,0,0,1-6.2,1.13c-3.07.43-6.15.76-9.19,1.41A4.12,4.12,0,0,1,1122.86,232.48Z"/><path d="M1075.48,159.46c-5.1-3.33.8-8.81,2.58-12.45,2.43-3,4.19-9.87,9.14-8.33,5,2.43,1.55,6.76-.67,9.81-1.86,3.12-3.92,6.14-5.63,9.35A4,4,0,0,1,1075.48,159.46Z"/><path d="M1101.27,153.78c-3.12-3.79-7.91-5.18-12.11-7.4-2.7-.65-5.51-2.85-4.3-5.92,2.93-5.88,9.62.16,13.7,1.58a24.57,24.57,0,0,1,8.22,5.94C1110.56,151.54,1105.09,157.37,1101.27,153.78Z"/><path d="M1112.82,171.59c-5.35-2.21-9.9-6.61-10.4-12.62-.24-2.23-1.08-4.5-.8-6.75,1.05-4.46,7.66-3.85,7.9.69.7,4.84.84,9.25,6.13,11.2a4.16,4.16,0,0,0,3.3.53,4.05,4.05,0,0,1,5,2.66C1125.28,173.45,1116.64,173.73,1112.82,171.59Z"/><path d="M1129.45,183.17a12.72,12.72,0,0,1-9.66-11c-.32-1.12-.89-2.24-.53-3.43.8-4,6.76-4.08,7.73-.2v-.07l-.18-.47c.93,1.79.82,4,1.83,5.73,3,3.81,9-1,10.36,4.88C1139.63,183.88,1133.09,184,1129.45,183.17Z"/><path d="M1143.48,197.92c-8.55-1.51-13-10.81-11.83-18.82a4,4,0,0,1,7.76,1.47c.7,15.79,11.33,4.78,12.87,13.38C1152.34,198.57,1146.81,198.58,1143.48,197.92Z"/><path d="M1141.37,229.3c-5.49-1.63-2-7.8-.93-11.45.49-1.68.82-3.42,1.21-5.13,1.36-5.58,2.5-11.22,4-16.78.17-2.85,2.67-5.53,5.66-4.38a4,4,0,0,1,2.37,5.05q-1.67,6.48-3.05,13c-1.24,5.12-2.21,10.32-4.09,15.26C1146.25,227.52,1144.19,230,1141.37,229.3Z"/><path d="M1110.68,152.59c-4.12-1.67-2.11-5.89-1-8.93A32.5,32.5,0,0,0,1111,131.2c-2.06-4.77,5.1-8,7.3-3.28,2.24,7.31,0,15.34-2.48,22.33A4,4,0,0,1,1110.68,152.59Z"/><path d="M1127.26,169.06c-3.39-3.32,1-6.39,2.38-9.42a51.67,51.67,0,0,0,4.24-19.87c1.34-3.68,7-3.22,7.67.63C1143.22,145.92,1136.13,176.07,1127.26,169.06Z"/><path d="M1146,181c-2.83-2-1.4-5.39.48-7.55,1.44-2.43,2.73-5,3.93-7.53,2.08-4.51,3.11-9.42,5.19-13.91,1.47-3.11,6.49-2.55,7.35.73a4.49,4.49,0,0,1-.51,3.48c-1.52,3.83-2.48,7.88-4.18,11.66C1156,171.74,1151.94,185,1146,181Z"/><path d="M1160.63,196c-3.14-4.18,2.75-7.1,4.8-10.16,4.38-5.19,6.72-11.58,8.93-17.9,1.89-4.86,9.28-2.09,7.49,2.82-2.23,6.51-4.67,12.71-8.7,18.21C1170.17,192.12,1165.41,201,1160.63,196Z"/><path d="M978.81,292.65c-9.51-7.77-15.38-19.53-16.91-31.64,0-4.55-2.6-16.94,3.76-17.67a4,4,0,0,1,4.28,3.7,55.51,55.51,0,0,0-.52,6.32c0,9.87,2.77,19.74,9,27.51a38.41,38.41,0,0,0,4.77,5.1C987.56,288.81,983.21,295.52,978.81,292.65Z"/><path d="M187,251.34c-6.77-.38-12.63-4.79-17.12-9.58-6.88-6.65-10-15.67-12.36-24.71-6.57-21.53,0-44,9-63.79,6.17-11.14,19.22-30.14,33.93-26.08,5.34,1.94,2.57,9.79-2.75,7.62-5.37-1.32-9.91,4.16-13.61,7.38-7,7.13-11.39,16.14-14.94,25.38-5.5,15-8.7,31-4.14,46.64,2.38,9.7,6.09,19.5,14.48,25.58,6.88,6,14.77,4.19,10.8-6-1.23-2.91-3.45-5.22-5.23-7.77a35.56,35.56,0,0,1-5.4-13.51c-1.29-9.69-3.8-19.7-1.13-29.36,3.21-11.41,6.15-23.5,13.19-33.25,3.83-5,8-10.07,13.51-13.38a4,4,0,0,1,5.37,1.79c2.3,4.79-5.5,7.17-7.52,10.35-6.77,6.75-10.59,15.46-13.26,24.5-3.78,9.68-5.57,19.37-3.54,29.67.9,6.84,1.81,14.44,6.31,19.94C201.29,231.75,203.34,250.55,187,251.34Z"/><path d="M207.82,252.7c-.81-4.67,4-4.21,6.35-6.69,6.72-8.57-8.44-19.22-10.68-27.58-6.78-15.28-5.31-32.77.11-48.24,4.74-11.16,8.82-25.41,20.61-30.93,6.37-1.28,8.36,7.8,1.6,8.08-7.44,5.87-10.48,15.43-14.05,23.88-5.88,15.39-7.26,33.44,1.09,48.22,5.28,7.58,12.34,14.89,10.82,24.81C223.54,250.26,211.33,261.37,207.82,252.7Z"/><path d="M221.18,273.6c-9.54-4-21-7-26-17-2.5-4.39,3.85-8.43,6.76-4.28,3.69,7.71,12.58,9.48,19.65,12.89,12.1,4.6,28.42-1.37,39.06-7.67,28.31-17.26,47.8-40.88,41.43-75.81a33.27,33.27,0,0,0-2.07-8.22c-1.44-2.13-1.18-5.21,1.29-6.42,8.26-3,8.37,14.72,9.69,19.75.71,10.09,0,20.59-3.46,30.18-5.32,16.13-16.83,29-30.41,38.84-9.94,7.52-20.69,14.62-33.12,17C236.57,274.85,228.62,276,221.18,273.6Z"/><path d="M246.83,247.79c-1.73-5.8,7.89-6.42,11.28-9.27,21.35-13.43,32.85-31.23,28.25-56.9.31-5.12,8.08-4.84,8,.32,4.75,25.53-6.9,45.86-27.43,60.39a67.1,67.1,0,0,1-15,7.93A4,4,0,0,1,246.83,247.79Z"/><path d="M231.86,240.37c-.86-5,5-4.79,8.2-6.25,10.95-5.07,20.12-13.52,27.42-23,3.7-4.7,5.82-10.4,9-15.33a4,4,0,0,1,5.65.3c3.27,3.4-3.51,11.66-5.18,15.23a85.7,85.7,0,0,1-26.89,26.54C245.85,240,234.2,247.76,231.86,240.37Z"/><path d="M220.85,223.93c-.15-5.2,6.39-4.22,9.66-6.25,7.91-3.36,15-8.34,21.74-13.56,13.32-11.73,28.34-26.58,33.46-44,3.71-12.08-2.56-26.88-15.37-29.78-4,3-8.81-2.77-5.11-6.15,5.31-4.33,12.22-.38,16.83,3.12,17.25,11.43,14.88,36.2,3.87,51.25a140.79,140.79,0,0,1-31.81,34.15C249.25,216.3,222.83,235.19,220.85,223.93Z"/><path d="M220.57,209.71c-1.64-5.85,7.54-6.29,10.9-9.11a44.07,44.07,0,0,0,9.7-7.94c14.59-14.63,28.29-41.58,13.32-60.12-1.49-1.82-3.09-3.55-4.66-5.3-3.45-3.89,2.4-9.21,5.94-5.35,23.83,21.43,11.42,55.89-8.21,75.64a53.86,53.86,0,0,1-21.9,14.65A4,4,0,0,1,220.57,209.71Z"/><path d="M216.74,200.35c-1.54-3.12,1.18-5.4,3.85-6.44A45.46,45.46,0,0,0,232.53,183c12.13-17.06,14.36-49-7.78-58.89-1.62-.88-3.5-.31-5.07-1.26-3-1.72-2.1-6.77,1.35-7.28,6-.48,11.71,3.21,16,7.1,19.06,16.87,14.64,51.62-1.45,69.12C232,195.08,220.84,207.22,216.74,200.35Z"/><path d="M216.94,186.34c-3.57-3.27.4-6.53,2.53-9.19,2.1-2.94,3.49-6.28,5.15-9.47A115.06,115.06,0,0,0,230,154.92c1.22-3.36,2.58-9.4,7.42-7.38,2.63,1.22,2.73,4.33,1.38,6.57-1.25,3.47-2.53,6.95-3.91,10.38C232.34,169.39,224.18,191.8,216.94,186.34Z"/><path d="M729.79,363.71c-1.75-.44-3.52-.85-5.27-1.3l-1.61-.43c1-1.35,2-2.71,3-4.1a2,2,0,0,0,1.06.48,3.1,3.1,0,0,0,1.51-.12l.42-.2a2.51,2.51,0,0,0,1,.66l.14.05a2.11,2.11,0,0,0,1.77,1,2.9,2.9,0,0,0,1.45-.31,4.49,4.49,0,0,0,1.15-.89,13,13,0,0,0,1.17-1.39v.07c0,.31-.07.61-.1.92-1.4,2-2.81,4-4.24,5.89Z"/><path d="M750.55,331.49a2,2,0,0,0-1.24-.22h0a3.21,3.21,0,0,0,0-.62c.93.28,1.85.56,2.77.86l-.6,1.05A2,2,0,0,0,750.55,331.49Z"/><path d="M744.55,331.93l-1.71-1.11,1-1.77,1.88.53a2.2,2.2,0,0,0-.17.25,7.87,7.87,0,0,0-.86,2.18Z"/><path d="M749.36,318.87c6.52-12.28,12.29-24,17.44-33.35,21.9-43.78,36.77-92.16,68.77-130.08.35-.4.7-.79,1.06-1.18.19.61.39,1.21.59,1.82,0-.09-.06-.18-.08-.26.77,2.29,1.58,4.58,2.52,6.83,0,.1.08.2.13.3a191.12,191.12,0,0,0-21.35,31.85c-16.23,27.44-36.21,80.85-61.12,127.17C754.68,320.91,752,319.87,749.36,318.87Z"/><path d="M843.8,153.88h0c-.31-.88-.61-1.76-.93-2.63h0a.76.76,0,0,0,0-.11l0-.09c-.3-.82-.61-1.62-.93-2.41q2-2.1,4.12-4.15c0,.92-.1,1.83-.14,2.75s0,1.73-.05,2.6,0,1.59,0,2.39l0,3.85-.86.94Z"/><path d="M842.87,151.24v0Z"/><path d="M876.9,128c-.26-1.58-.52-3.16-.77-4.74l-.39-2.43c17.81-11.17,37.75-18.45,58.81-18.26a4,4,0,0,1,3.77,4.22c-.4,4.5-5.08,3.72-8.35,3.69-11.63.2-22.87,4-33.46,8.56a143.34,143.34,0,0,0-19.36,10.49C877.07,129,877,128.46,876.9,128Z"/><path d="M869.07,125.21l.17-.12c0,.41,0,.82.08,1.23h0c0,.13,0,.26,0,.38C869.25,126.2,869.16,125.7,869.07,125.21Z"/><path d="M842.78,151s0,0,0,.05l0,.09,0,.09Z"/><path d="M331.32,258.89c4.33-39.87,17.08-81.84,1.94-120.68C320.59,107.64,285.12,92,253.4,96.37c-13.17,2.37-26.67,6.54-37.67,14.32-1.59,1.29-3.11,3.31-5.43,2.76-12.15-6.39,13.17-16.28,18.22-18.38a91.47,91.47,0,0,1,75.73,1.87c50,24.2,47.6,83.07,39.75,130.1-4.21,28.07-8.56,58.34-7.66,87.76l-1.18.75c-1.84,1.18-3.64,2.39-5.43,3.64l-1.13.65,0,0C327.64,299.55,329.27,279,331.32,258.89Z"/><path d="M562,254.24Z"/><path d="M556.42,235.73h0Z"/><path d="M562.89,228.78h0Z"/><path d="M1108.66,432.38c-2-17.43,9.28-33.19,20.8-45.11,23.93-24.57,57.08-38.72,91.08-41.17,7.19-34.21,1.79-73.9-22.15-100.47-4.9-2.52-1.41-9.88,3.59-7.28,27.58,26.33,33.85,71.17,26.81,107.33a116.23,116.23,0,0,1,26.79,2.36q-1.17,2.16-2.36,4.32l-1.68,3.06a109.18,109.18,0,0,0-24.63-1.67c-10.65,39.3-44.59,100.2-90.5,101.16h-.05C1123.42,454.91,1110.15,445.8,1108.66,432.38Zm34.07-46.6c-10.12,9-19.78,19.36-24.47,32.23-6.62,16.15,4.16,30.45,21.47,28.85,40-5.41,68.24-57.31,78.7-92.58C1190.8,356.91,1163.76,367.47,1142.73,385.78Z"/><path d="M1307.5,382.61a115.28,115.28,0,0,0-12.46-9.56c.79-1.15,1.56-2.3,2.33-3.46l2.11-3.2a124.63,124.63,0,0,1,16.38,13,4,4,0,0,1,0,5.65,3.64,3.64,0,0,1-2.58,1.16C1311.13,386.24,1309.08,384.16,1307.5,382.61Z"/><path d="M169.89,482.2c-4.87-.76-7.35-5.87-9-10-2.34-4.57-5.34-8.79-6.77-13.79-.05-.13-.09-.26-.13-.39a4,4,0,0,1-.49-.7,4,4,0,0,1,1.55-5.44c6.91-3.8,14.11-7,21.19-10.49,11.23-5.48,22.17-11.53,33.19-17.42-2.41-5.67-5.85-10.87-8.3-16.53-.84-1.89-2.08-4.28-1.71-6.26a4.12,4.12,0,0,1,2-4.25c6.49-4,13.17-7.6,19.81-11.3,10.38-5.73,20.67-11.64,31.28-16.95,42.91-22.25,85.59-45,127.59-68.94,3.19-1.38,6.17-4.56,9.82-4a3,3,0,0,1,.67.25,3.79,3.79,0,0,1,4.71,1.8c2.87,8,11.05,13.22,13.05,21.66a3.89,3.89,0,0,1,.33,2.77,4,4,0,0,1-2,4.34c-3.73,2.07-7.47,4.15-11.06,6.45-1,.56-2.21,1.43-3.46,2.25.1.25.18.5.26.75,3.26,6.6,7.18,12.82,9.66,19.77a4.06,4.06,0,0,1,.24,2.16,3.78,3.78,0,0,1-1.38,5.53c-12.06,7.56-23.82,15.16-36.2,22-12.26,5.37-23.3,12.77-35.57,18.07-30.77,16.29-62.19,32-93.36,47.34-14,7.64-28.69,13.86-42.92,21-5.17,2.61-10.43,5.05-15.58,7.71a11.91,11.91,0,0,1-4.6,1.84,4.21,4.21,0,0,1-2.49.77Zm2.59-20.87a5,5,0,0,0,1.63,3.47,5.14,5.14,0,0,0,3.59,1.3,5,5,0,0,0,3.15-8.69,5.18,5.18,0,0,0-3.6-1.3A5,5,0,0,0,172.48,461.33ZM385.66,305.79c-5.14,2.83-10.24,5.74-15.37,8.59-27.83,15.91-56.09,31-84.45,45.89-21,11-42.11,21.7-62.7,33.44-5.16,2.86-10.34,5.7-15.41,8.73.59,1.34,1.08,2.74,1.62,3.79,2.31,4.68,5.08,9.2,7.16,14,4.67-2.44,9.37-4.83,14.13-7.09,51.65-25.74,102-53.9,152.82-81.27,1.21-2.13,4.65-3.37,6.41-4.61,3.45-2.26,7-4.35,10.6-6.37-1.86-4.49-5.18-8.19-8.13-12.07a56.74,56.74,0,0,1-3.19-4.83A19.49,19.49,0,0,0,385.66,305.79ZM373.8,355a5,5,0,0,0,3.11,8.72,5.21,5.21,0,0,0,3.57-1.27,5,5,0,0,0-3.1-8.72A5.21,5.21,0,0,0,373.8,355Zm20.13-51.89a3.34,3.34,0,0,0,1-1A4.17,4.17,0,0,1,393.93,303.1Z"/><path d="M441.74,453.27c-36.25-2.21-68.65-22.71-88.73-52,.87-.48,1.73-1,2.59-1.48,1.48-.87,2.93-1.77,4.37-2.71,1.52,2.24,3.13,4.46,4.83,6.63,24.6,33,67.73,46.52,107.62,41.29,48.27-8.36,84.8-47.16,108.41-87.95a200.73,200.73,0,0,1-24.87-72c1.62.14,3.24.26,4.85.33h.26l.52,0h.21l.45,0,.66,0c.3,0,.6,0,.9,0h-.26l.62,0a192.42,192.42,0,0,0,21.25,63.4c12.67-23.95,23-49.78,28.53-76.46-12.9-.25-25.8-.17-38.7-.09-7.93.05-15.86.09-23.79.07q-49.05-1.18-98.11-1.07c-21.67-.21-43.29-1.8-65-1.44-1.8,0-3.63,0-5.46,0-2.72,0-5.46,0-8.12,0a4.62,4.62,0,0,1-5.36-3.84c.14-8.08,1.34-16.58,1.18-24.28a4.05,4.05,0,0,1,.61-2.17c-.19-3.19,3.23-4.7,6.22-4.32A180.94,180.94,0,0,1,399.88,234q12.51,0,25,0c0-7.35-1.46-14.69-1.35-22.08a4,4,0,0,1,1.82-5.55c2-2.9,8-1.94,11.28-2.29,12-.13,24-.35,36-.22,15,.2,30.07-.22,45.11-.63,17.12-.47,34.25-.94,51.38-.51,14.72.3,29.46.66,44.19.76-4.31-12.08-11.62-21.9-23.09-19.28a27.19,27.19,0,0,0-13.12,9.66l-.69,0c-2.84-.15-5.68-.3-8.52-.37C584.62,166,611.28,170.82,622,203.49c9.82,0,19.63-.14,29.45-.51a324.76,324.76,0,0,1,36.52-.21,26.34,26.34,0,0,0,4.25.15c3.36,0,7.18-.09,8.94,1.77a3.91,3.91,0,0,1,3.73,4.47c-1.2,7,.63,14.22.45,21.29q4.65-.06,9.32,0a4,4,0,0,1,3.59,2.25c2.77.56,5.07,3.48,2.79,6.42.44,7.87,1.64,15.71,1.72,23.59.66,5.24-2.86,7.5-7.69,7.22-30.15.73-60.22,4.57-90.45,2.83l-2.27-.07c-6,29.5-18.26,58.13-32.17,84.16,16,24.59,44.27,42.13,74,42,20.87.52,38.43-12.21,53.33-30,1.14.36,2.27.72,3.41,1.05,1.58.45,3.17.9,4.76,1.32-16.53,20.34-34.82,34.16-55.08,35.31-33.14,3-65.94-15.31-84.85-42-27.1,46.37-73.75,89.69-129.41,89.7A107.63,107.63,0,0,1,441.74,453.27Zm182-188.5c11.81.3,23.61.52,35.42,0,9,0,18-.72,27-1.43,9.52-.76,19-1.53,28.59-1.43,0-5.66-1-11.25-1.25-16.91,0-2-.53-4.28-.55-6.42-1.06,0-2.17-.05-3.25-.13a21.74,21.74,0,0,0-4.34,0l-1.25,0a4.47,4.47,0,0,1-2.45.79,3.86,3.86,0,0,1-2.19-.67c-10.29.35-20.57,1.14-30.87.76-12.06-.32-24.08.73-36.13,1.07-2.11,0-4.23,0-6.34,0A182.34,182.34,0,0,1,623.78,264.77Zm-8.32-.22a210.67,210.67,0,0,0,2.77-24.16c-16,.17-32,.89-48,1.17-12.58.05-25.15,0-37.73-.08-20.17-.1-40.35-.21-60.51.17-24.46.31-48.9.3-73.36.38a130.89,130.89,0,0,0-17.7,1.05c-.71,0-1.48.12-2.28.21.24,6.25-1.35,12.35-.86,18.64,15.58-.31,31.15.18,46.71.68,13,.41,26,.83,39.06.77,18.94-.17,37.87.16,56.8.5,21.86.39,43.72.78,65.59.39q3.94-.07,7.89-.07C601.07,264.2,608.26,264.36,615.46,264.55Zm-171-42.62a5,5,0,1,0,4.95-5.05A5,5,0,0,0,444.44,221.93ZM674,220.45a5,5,0,1,0,5-5A5,5,0,0,0,674,220.45Z"/><path d="M1255.25,429.73c-5.63-1.63-10.57-5.19-15.56-8.18-5.17-1.33-8.91-4.67-6.29-10.25,8.53-20.65,18.43-40.8,28.61-60.68,13.36-25.24,29.12-49,44.38-73.07,9.71-14.19,17.56-29.6,26.71-44.09,4.1-4.66,10.21.69,14.6,2.36,4,1.67,9.54,2.47,11.54,6.68,5.47,4.33.34,10.11-2.32,14.4a172.13,172.13,0,0,1-9.35,16c-10.3,19.75-22,38.68-32.59,58.3-12.49,20.6-26,40.57-37.43,61.79-4.54,9.14-9.65,18-13.72,27.41-1.43,3.94-3.18,9.38-8.15,9.38Zm-7.61-24a5,5,0,1,0,5-5A5.05,5.05,0,0,0,1247.64,405.76ZM1333,251.81a5,5,0,0,0,3.1,8.72,5.17,5.17,0,0,0,3.57-1.27,5,5,0,0,0-3.1-8.72A5.19,5.19,0,0,0,1333,251.81Z"/><path d="M816.54,60.21c-2.62-6,6.28-7,9.87-9.34,4.28-2.35,15.17-10.63,15.84-.94-.58,3.82-5.13,3.17-7.52,5.3-3.78,2.65-8.12,4.28-12.26,6.27A4.13,4.13,0,0,1,816.54,60.21Z"/><path d="M830.73,69.7c1-4.83,8.57-6.43,9.38-.55C840.81,76,830.46,76.74,830.73,69.7Zm7.92.28v-.14l-.09-.52v0a5.1,5.1,0,0,0-.37-.94h0a1.3,1.3,0,0,1-.1-.15A4.24,4.24,0,0,1,838.65,70Z"/></g></svg>