<svg xmlns="http://www.w3.org/2000/svg" viewBox="0 0 1449.33 526.24"><g id="Vector_layer-9" data-name="Vector layer"><path d="M623.73,175.66c-2.26-1.56-2.1-4.58-.4-6.5a47.12,47.12,0,0,0,3.12-7.86c4.82-17,13.81-32.43,20.15-48.87a142.85,142.85,0,0,1,8.12-18.13c3.29-6.46,6.6-13.23,12-18.21,3.76-3.3,9.29-3.62,14-3,7,1.49,10.07,9.39,9.92,15.9-.53,8.27-4.38,15.83-7.61,23.32-4.46,11.53-10.1,22.54-15,33.89-2.32,4.64-9.48,1.1-7.14-3.6,4.64-10.86,10.17-21.52,14.36-32.43,3-7.83,8.42-15.91,7-24.6-.86-5.27-4.78-5.34-9.15-4.22-5.89,4.08-8.54,11.53-11.87,17.65-4.29,7.4-6.65,15.62-10.22,23.36-4.35,10-9.13,19.76-13.08,29.92C634.76,157.33,632.12,180.5,623.73,175.66Z"/><path d="M686.7,165.45a4,4,0,0,1-2.47-5.08c2.55-7.74,8.59-14.32,9.73-22.44.64-8-11.5-11.06-16.51-6.16-3,4.28-9.51-.2-6.59-4.53,8.45-11,30.57-5.45,31,9.07.67,8-4.66,14.66-7.84,21.59C692.38,161.05,691.47,166.93,686.7,165.45Z"/><path d="M703.18,186.35c-6.33-3.07.57-9.86,2-14.11,2-5.77,7.53-12.09,3.87-18.25-6.7-7.3-9.63,3-14.84-.17-6.7-6.85,8.28-12.06,13.55-9.95,8.74,2.4,12.53,12.46,9.51,20.59-2.14,5.57-4.54,10.52-7.12,15.73C708.55,183,707.31,187.77,703.18,186.35Z"/><path d="M653.49,256.68c-14.21-2.18-38.6-12.05-46.76-24.21-8.58-12.25-7.7-28.07-12-42-2.48-8.9-3.41-18.11-5.47-27.11-1.31-10.32-6.89-24.56,3.8-31.63,8.56-5.54,19.67-.19,24.65,7.72,4.6,9.71,9.06,19.52,11.85,29.93,1.52,5-6,7.4-7.62,2.45a108.08,108.08,0,0,0-7.08-19.2c-1.79-3.66-2.73-7.91-5.51-11-3.81-4.38-12.79-6.77-14.55.64-.41,8.56,2,16.94,3.49,25.32,2.78,16.44,7.18,32.54,9.95,49,3,14.83,16,21.62,28.64,26.83,13.25,6.06,25,7.43,38.36.62,5.09-2.63,8.82-6.94,12.22-11.43,7.8-8.89,13.61-19.27,19.55-29.44,3.17-6.7,16-21.6,10.37-28.28-2.6,0-4.44,3.08-7.25,1a4,4,0,0,1-1-5.56c1.7-2.17,4.61-3.1,7.26-3.42,5.57-.66,9.55,4.6,10.32,9.63,1.35,10.46-6.4,19.29-11.18,27.92-7,12.15-13.94,24.44-23.3,35C683.69,251.73,668.08,257.41,653.49,256.68Z"/><path d="M380.63,77.92c-2.29-.11-4.7.35-6.91-.32h.08c-4.41-1.36-3.06-8.13,1.52-7.78,4.94.17,9.95.33,14.9.07,1.84-.22,4-.61,5.44.81,3.27,3.39,0,7.56-4.23,7.1A86.48,86.48,0,0,1,380.63,77.92Z"/><path d="M376.59,201.77c-2.44-18.47,0-37,1-55.49.65-12.44.39-24.87.42-37.32.61-7.64,2-15.19,2.17-22.88a40,40,0,0,0,.45-6.56,4,4,0,0,1,.56-3.32c4.43-4.64,8.42.65,7.46,5.68-.62,9.44-1.8,18.81-2.67,28.22,0,7.69,0,15.25.07,22.89-.07,15-1.81,29.74-2.52,44.7a219.05,219.05,0,0,0,1.09,23.62C384.86,206.46,377,207,376.59,201.77ZM381.5,81.18a4.32,4.32,0,0,1-.84-1.38c.06.14.12.31.17.43A3.55,3.55,0,0,0,381.5,81.18Z"/><path d="M371.57,209.39a4,4,0,0,1-2.25-5.59c1-2.21,3.73-2.45,5.8-2.83a49.22,49.22,0,0,1,10.31-1.28c2-.05,3.92,1.21,5.84.39,8.11-1.18,7.37,11.43-5.86,7.63C380.69,207.17,376.13,210,371.57,209.39Z"/><path d="M380.17,84c-.07-2.51-.7-5.16-3.41-6-8.85-.42-3.29-15.29,8-4,5.7-6.56,12.43.35,7.05,4.65-3,1.51-2.92,5.72-5.64,7.56A4.07,4.07,0,0,1,380.17,84Z"/><path d="M370.2,209.53c-3.36-.95-3.51-6.14-.39-7.4,3.66-1.56,4.76-4.33,5.64-7.92,2.23-4.36,8.94-1.47,7.33,3.14A15.41,15.41,0,0,1,375.62,208C374,209,372.18,210.24,370.2,209.53Z"/><path d="M387.59,206.48c-3.36-.55-5.82-3.34-8.38-5.39-3.46-3.8-1.6-9.73,4-7.82a4.55,4.55,0,0,1,2.19,2.67c1.3.82,2.45,2.11,3.82,2.7C394.32,199.79,392.75,207.38,387.59,206.48Z"/><path d="M356.62,187.62c-17.54-1.25-35.08-2.32-52.61-3.65-6.79-1.15-14.05.39-20.61-1.7-3.55-2.41-2.8-9.37-3.38-13.29-.41-11.07.06-22.18.3-33.27-.37-10.42.78-20.67,2.15-31,.52-4.23-1.54-9,.83-12.89,4.23-4.1,11.18-2.5,16.57-3.41a134.16,134.16,0,0,1,17.58-1c5.73-.6,11.47-.3,17.21-.3a203.35,203.35,0,0,1,30-1.14c5.19.06,5.25,7.91,0,8a78.48,78.48,0,0,0-14.7.21c-19.93,1.06-39.9.81-59.77,3,1.12,9.13-1.45,18.06-1.89,27.14.57,16.94-1.71,34.05.39,50.9,19.85.32,39.76,3,59.53,3.66,3.15.11,6.27.49,9.41.78C362.79,180.32,361.82,188.27,356.62,187.62Z"/><path d="M592.31,92.12h0Z"/><path d="M580.35,191.24c-31.06-1.79-62.36-.89-93.42-2.59-19.06-.54-38.11-1.59-57.19-1.8-7.21-.08-14.39,1.38-21.59.39-6.83-.76-5.25-10.1,3.88-7.7,35.35-1.64,70.71,1.49,106.08,2.25,16.5-.47,32.93,1,49.44.75,4.62.76,16.33-1.71,16.76,4.65A4.05,4.05,0,0,1,580.35,191.24Z"/><path d="M342.27,159.73c-10.37-4.36-3.21-22.38-4.44-31.44-.19-2.95.53-8-3.1-9-5.48-.58-11.16-1-16.56.36-6.7,1.84-8.16-8,.37-8.26,16.57-1.76,28.5-1.76,27.31,18.66-.05,5.92-.89,11.6-1.13,17.44.14,1.49-.79,4,.75,4.87,2.4-.51,5.2,0,5.93,2.69C352.61,160.18,345.85,161.31,342.27,159.73Z"/><path d="M320.12,157.87c-15.87-.4-15.59-21.59-3-26.54,3.54-1,7.26-1.11,10.91-1.44,2.94-.09,5.95.78,8.82-.17,6.41-5.77,11.52,6.06,1.23,8-4.82,1.14-9.74-.37-14.59.69-1.81.24-4,0-5.34,1.48-1.64,2.25-2.95,5.52-1.75,8.24,2.7,3.12,7.48,1.29,11.06,1.47a29.53,29.53,0,0,0,8.63-1.13c2.3-1.33,5.49-1.15,6.62,1.57C345.27,159,325.46,157.28,320.12,157.87Z"/><path d="M224.7,352.07c-2.2-56.25-5.5-112.1-3.68-168.33.13-17.26-.72-34.53-.29-51.79-.5-7.09,6.87-7.9,12.3-7.7,12.82-1.18,25.19-.56,38-.54,5.16,0,5.2,8,0,8-14.1-.12-28.35-.51-42.31.8,1,51.8-1.7,103.65,1.41,155.4.56,21.41,2.2,42.75,2.59,64.16C232.75,357.19,224.66,357.29,224.7,352.07Z"/><path d="M636.64,349.75c.55-27.57,1.07-55.22,2.37-82.73,0-5.15,8-5.2,8,0-.53,19.53-2,39-1.84,58.56.14,8.07-.48,16.11-.54,24.17a4,4,0,1,1-8,0Z"/><path d="M449,358.87c-16.78-2-33.54-.48-50.36-.79-25.11-1.35-50.22-.68-75.36-.76-16.37,0-32.72.23-49.1.25-11.54-.4-23.23,2-34.57-1-3.22-1.1-6.3.75-9.42,1.16-4.73.07-5.42-7.35-.58-8,6.44-3,12.93-.39,19.53.24,14.33-.1,28.68-.66,43-.49,39.45-.53,78.92-.48,118.37.69,19.91-1.87,39.72,1.78,59.65.53,35.78-1.31,71.62-1,107.36-2.61a174,174,0,0,1,28.31,1.48c11,.11,22.09.09,33.14.1,5-.07,5.27,8,0,8-15.27-.21-30.6.72-45.76-1.43-18.94-1.06-37.77,1.12-56.66,1.35C507.32,356.74,478.16,359.37,449,358.87Z"/><path d="M413.09,478.55a174.57,174.57,0,0,0-20.58-.54c-6.19.09-12.39.17-18.56-.34-9-1.11-18.3-.15-27-2.95-15.91-5.62-30.85-18.21-29.83-36.51.26-11.49,7.63-22.94,17.75-28.29,12.68-7.11,27.62-7.1,41.67-9.18,15.27-.37,31-1,46.2-.15,12-.44,23.86.64,35.78,1.82,7.2.5,14.41-.07,21.6.58,5.45.62,10.85,1.65,16.35,1.78a17.18,17.18,0,0,0,3.11-.08c2.26-.19,4.54-.39,6.19,1.36,15.28,0,27.62,12.24,32.64,26,7.29,18.73-5.64,33.69-22.27,40.72-12.6,5.78-26.46,5.71-40.12,5.65-3.15,0-6.3,0-9.42,0-8.45-.09-16.82,0-25.17.08-5.92.07-11.84.13-17.76.13C420.13,478.63,416.61,478.61,413.09,478.55Zm68.19-27.11a6,6,0,0,0-1.12,1.56,4.48,4.48,0,0,0,.49,4.56,4.74,4.74,0,0,0,2.89,1.77,4.28,4.28,0,0,0,.72.06,4.55,4.55,0,0,0,2.68-.88,4.48,4.48,0,0,0,.77-.74,4.41,4.41,0,0,0,1-1.34,4.56,4.56,0,0,0-2.26-5.95,4.23,4.23,0,0,0-1.83-.41A4.51,4.51,0,0,0,481.28,451.44Zm-92-25.66c-.05.58-.12,1.17-.2,1.75-.4,1.91-.88,3.78-1.45,5.65-.8,2.31-1.73,4.54-2.74,6.77-.81,1.72-1.65,3.43-2.35,5.2a12.7,12.7,0,0,0-1.09,5,9.22,9.22,0,0,0,1.88,5.58,8.11,8.11,0,0,0,4.89,2.95,6.92,6.92,0,0,0,1.37.14,10.86,10.86,0,0,0,4.9-1.32,32.41,32.41,0,0,0,7.84-6.31,109.19,109.19,0,0,0,7.16-8.46c2.27-2.8,4.61-5.53,7.1-8.14l1.15-1.1-.14.13.25-.24.07-.07,0,0h0l.16-.15c1.76-1.55,3.55-3,5.45-4.36a62.12,62.12,0,0,1,6.73-3.84l.79-.34-.54.23.84-.36c1.06-.41,2.11-.79,3.2-1.11l.17,0c-.09.38-.2.75-.31,1.13-.4,1.08-.84,2.13-1.32,3.18a56.92,56.92,0,0,0-3.81,8.29c-.89,2.8-1.36,6.14-.07,8.9a9.31,9.31,0,0,0,2.87,3.65,10.6,10.6,0,0,0,4.39,1.8,18.82,18.82,0,0,0,10.3-1.43,31.11,31.11,0,0,0,5.81-3,47.27,47.27,0,0,0,7.34-6.13,4.5,4.5,0,1,0-6.49-6.23c-.53.53-1.05,1-1.59,1.55-1,.87-2,1.69-3,2.49s-2.16,1.41-3.29,2c-.74.36-1.48.7-2.24,1s-1.38.46-2.09.65c-.49.09-1,.18-1.47.25s-.72,0-1.09,0l-.54-.05.26.05h0l.31.06a6.81,6.81,0,0,1-1-.2,1.21,1.21,0,0,0-.2-.09s0,0,0-.05l0-.23c0-.11,0-.23,0-.34l.06-.53c.11-.53.24-1.05.4-1.56.27-.73.56-1.44.86-2.15a65.49,65.49,0,0,0,4.54-10.2,13.56,13.56,0,0,0,.58-4.61,8.17,8.17,0,0,0-2.64-5.67c-2.64-2.42-6.55-1.94-9.72-1a45.28,45.28,0,0,0-10.62,4.9,53.25,53.25,0,0,0-9.12,7h0l-.05,0,0,0-.18.17-.17.17.1-.09a94.51,94.51,0,0,0-7.86,8.64c-2.49,3.07-5,6.14-7.59,9.08-1.12,1.14-2.26,2.26-3.49,3.29-.47.35-.94.69-1.42,1l-.52.29c.31-.95.7-1.85,1.1-2.76,1.3-2.79,2.61-5.57,3.73-8.45a52.75,52.75,0,0,0,2.07-6.87c.92-3.85,1.48-8.34-.86-11.81a6.94,6.94,0,0,0-3.14-2.63,8.61,8.61,0,0,0-1.9-.56,13.63,13.63,0,0,0-2.3-.11,14.51,14.51,0,0,0-4.71,1.14,31,31,0,0,0-6.6,3.4,48.3,48.3,0,0,0-11,10.09c-1.45,1.9-2.74,3.92-4,5.94a65.21,65.21,0,0,0-3.5,6.06,4.5,4.5,0,0,0,8.13,3.86c.25-.51.52-1,.8-1.53a94.79,94.79,0,0,1,6-9.24c1.17-1.35,2.38-2.62,3.67-3.86a54,54,0,0,1,5.92-4.51c1-.55,2-1,3-1.51.68-.26,1.36-.51,2.07-.71l.2,0C389.3,425.44,389.3,425.61,389.3,425.78Zm112-4.84a7.67,7.67,0,0,0-2.63,2.68c-1.1,1.55-2.24,3.09-3.36,4.64s-2.2,3.11-3.26,4.69a42.38,42.38,0,0,0-3,5.48,4.55,4.55,0,0,0,2.06,6,4.35,4.35,0,0,0,1.95.45,4.5,4.5,0,0,0,4.07-2.5c.47-1,.93-1.94,1.43-2.89,1.25-2.06,2.68-4,4.07-6,1.27-1.79,2.56-3.58,3.88-5.34a4.75,4.75,0,0,0,.57-.69,4.54,4.54,0,0,0-1.2-6.26,4.73,4.73,0,0,0-2.57-.76A4.49,4.49,0,0,0,501.33,420.94Z"/><path d="M486.25,458.73l-.08,0h0l-.06,0Z"/><path d="M486.15,458.78h0Z"/><path d="M486.16,458.78Z"/><path d="M486.16,458.77h0Z"/><path d="M486.72,458.5l0,0-.05,0Z"/><path d="M486.68,458.53h0Z"/><path d="M487.15,458.23Z"/><path d="M504.2,429.37l.1,0-.05,0Z"/><path d="M501.33,429h0l-.14-.08.17.08Z"/><path d="M411.76,426.79l.05,0h0l-.05,0Z"/><path d="M411.81,426.75Z"/><path d="M437.55,441.29h0l.16.05Z"/><path d="M437.17,441.16l.28.09h0Z"/><path d="M437.39,440.69l.09.39A2.74,2.74,0,0,1,437.39,440.69Z"/><path d="M384.86,440.07a1.13,1.13,0,0,0-.09.2A1.13,1.13,0,0,1,384.86,440.07Z"/><path d="M418,433.28l0,0h0Z"/><path d="M389.31,425.27h0c0,.07,0,.15,0,.23C389.32,425.42,389.32,425.34,389.31,425.27Z"/><path d="M389,424.09c0,.08.09.16.13.24Z"/><path d="M436.29,423.13h0Z"/><path d="M205.92,285.74c-4.41-.85-3.37-5.92-3.54-9.24.48-5.46-2.52-16.35,1.19-20.21-.34-2.4.55-5.13,3.22-5.65,4.08-.45,6.55,4.14,9.69,6.1,3.74,3.26,9.88,6,10.37,11.5-.32,3.35-3.87,4.75-5.91,7C216.71,278.74,211.71,285.7,205.92,285.74Z"/><path d="M203.56,268.35a40.22,40.22,0,0,1-.2-16.78,4,4,0,0,1,7.2,0,84.45,84.45,0,0,1,2.12,15.64C212.52,271.92,204.61,273.35,203.56,268.35Z"/><path d="M274.64,456.81c-7.35-.16-13.72.17-20.87.15-11.91-.36-23.64-2.91-35.38-4.74-19.11-3.16-38.5-7.47-54.2-19.45-35.65-23.33-55.33-63-39.69-104.6,8.26-18.33,19.95-36,36.77-47.44,8-5.94,17.27-9.62,26.61-12.78,5.18-1.32,26.54-7.71,22.44,3.46-2,3-5.8,1-8.73,1.83-10.49,1.32-20.83,5.23-30,10.3-22.81,13.44-44.19,43.75-44.17,70.78C124.94,391.46,154.18,421,185.55,436c12.74,4.63,26.08,6.92,39.35,9.24,10.83,1.58,21.64,4,32.65,3.75,11.08-.44,22.16,0,33.23.34,7.77-.18,15.42-1.73,23.16-2.35,3.62-.05,9.38-1.94,10.61,2.82a4,4,0,0,1-3.12,4.72C305.81,455.52,290.36,458.44,274.64,456.81Z"/><path d="M469.78,496.12a183.88,183.88,0,0,0-26.45-.05c-13.07-.62-26.12-1.75-39.21-2-18.77-1.89-37.54,1.81-56.27-1-15-2.22-34.8-1-42.28-17-5.51-12.29-7.48-35.14,4.57-44.05,3.36-3,12.28-4.12,11.94,2.33-1.86,7.05-9.24-1.53-11.82,12.5-1.88,10.31-1.34,23.28,6.55,31,6.91,5.71,16.81,4.85,25.2,6.5a176.58,176.58,0,0,0,42.79.92c13.34.27,26.66,1.08,40,1.54,12.09,1.6,24.19.62,36.31.83,14.7.26,49.32,3.09,52.47-15.86.75-5.14,8.67-4,7.92,1.15C517.62,496,488.14,495.8,469.78,496.12Z"/><path d="M309.64,467.09c-5.17-3.89,1.78-9.25,3.93-12.91,3-2.79,6-11.16,10.3-10.54,7.3,2.13.78,9.3-1.9,12.72C318.52,459.41,315,470.22,309.64,467.09Z"/><path d="M321.77,482.74c-4.33-2.85-.12-7.22,1.7-10.27,3.13-3.47,6.5-13.42,12.39-9.75,4.45,4.09-2.3,8.16-4.13,11.79C329,477.58,327.15,485.46,321.77,482.74Z"/><path d="M348.07,488.33c-5.48-4.18,3.14-11.28,4.67-15.86.62-3.43,5.17-5,7.36-2,2.26,3.16-.93,6.53-2.34,9.34C355.18,483,353.58,491.09,348.07,488.33Zm11.08-12.19a2.91,2.91,0,0,0,.87-.84A4.07,4.07,0,0,1,359.15,476.14Z"/><path d="M375.14,488.08c-4.6-3.14.46-8,2.18-11.36,1.35-2.22,2.8-5.18,5.79-5.18,3.68-.09,5.39,5,2.42,7.14C382.54,481.93,381,490.87,375.14,488.08Z"/><path d="M402.88,489.15c-5-3.64,1.36-8.72,3.32-12.31,1.74-2.17,3-5.77,6.28-5.77,4.78.43,4.82,5.49,1.75,8.2C410.93,482.53,408.8,491.8,402.88,489.15Z"/><path d="M427.59,486.94c-4.23-3.79,1.66-7.82,3.65-11.09,2.12-2.86,4.72-8.37,8.94-5.27,3.86,3.26-.78,7.31-2.68,10.26C435,483.7,432.13,490.17,427.59,486.94Z"/><path d="M452.77,490.22c-4.71-4.9,3.77-9.9,6.15-13.92,2.23-2.33,3.69-6.41,7.35-6.58a4.05,4.05,0,0,1,4,4c-.72,3.63-4.44,6-6.36,9.11C460.66,485.65,458,493.66,452.77,490.22Z"/><path d="M475.58,491c-4.07-4.83,5-9.68,6.87-14,1.62-3.1,4.84-7.45,8.44-4,3.32,3.9-2,8.06-3.89,11.37C484.13,487.4,480.4,495.17,475.58,491Z"/><path d="M228.84,351.47a4.05,4.05,0,0,1,1.68-5.4l30.2-17.22,127.7-72.8q42.16-24,84.32-48.07l41.61-23.72c2.24-1.77,5.83-2.44,7.37.56,6.36,5-37.58,24.3-42.51,28.68L351.52,286.29l-84.29,48.06-31.62,18C233.53,354.06,230.19,354.11,228.84,351.47Z"/><path d="M277.37,164.27l-50.44-27.4c-3-1.35-7.24-3.68-4.9-7.52a4,4,0,0,1,5.24-1.38q15.39,8.39,30.81,16.73c7.89,5.14,18.08,8.06,24.72,14.54C284.11,162.38,280.42,165.89,277.37,164.27Z"/><path d="M631.12,356.34,414.75,238.86l-10.58-5.75c-4.35-2.63-.1-9.62,4.3-6.75q81.95,44.49,163.91,89l56.92,30.91c2.4,1.65,5.93,2.26,7.24,5.05C637.84,354.45,634.17,358,631.12,356.34Z"/><path d="M340.43,198.5,313.77,184c-4.17-2.42-.48-9.22,3.82-7l13.15,7.14-.36-.2c4.89,3.36,11.79,4.87,15.47,9.52C347.17,196.62,343.46,200.12,340.43,198.5Z"/><path d="M782,500.59a4,4,0,0,1-3.79-4.23v-179c1-5.16-3.17-21.14,4.21-20.87a4.06,4.06,0,0,1,3.78,4.31V489.14C785.86,493.15,788,500.45,782,500.59Z"/><path d="M487.53,409.8a4.05,4.05,0,0,1-3.79-4.21V359.52c0-3.45,4.8-5.1,7-2.46a4.11,4.11,0,0,1,1,2.88v31.88C490.73,396.76,494.83,409.6,487.53,409.8Z"/><path d="M543.71,504.86c-3.43,0-5.11-4.79-2.46-7,14.91-2.77,31.34-.16,46.75-1l193.7,0c5.09.16,4.81,8.33-.42,8Z"/><path d="M643.22,296a4,4,0,0,1,4.21-3.78q44.61,0,89.23,0h45.12c3.43,0,5.1,4.79,2.46,7a4.17,4.17,0,0,1-2.89,1H659.19C654.3,299.23,643.79,303.23,643.22,296Z"/><path d="M525.47,397.84c-5.88-1.14-4.39-9-4.51-13.44.19-5.08-.31-10.13-.45-15.2-.14-4.13.41-8.25.24-12.38.23-5.14,8.25-4.78,8,.37-.49,10.87.35,21.72.17,32.59,8.23-1.31,16.53-.36,24.8-1.06,14.65-1.54,29.4-1.13,44.08,0,.57-9.55,1.18-19.11,1.48-28.68,0-1.41-.23-2.82-.24-4.25,0-3.44,4.81-5.09,7-2.46,1.74,2.39,1,5.41,1.26,8.16-.21,6.75-.71,13.51-1,20.26-.87,4.84,1.07,11.68-3.45,14.94-1.89,1-4,.08-6-.06-9.33-.67-18.71-.78-28.06-1C554.3,397,539.85,397,525.47,397.84Z"/><path d="M591.56,480.16c-7.73-.93-15.45,0-23.2-.09a134.59,134.59,0,0,0-23.75-.68c-5.62-.15-11.22-.68-16.77.54-7.57-.25-5.26-10.56-5-15.62a4,4,0,0,1,4.2-3.78c5.77.63,3,7.15,3.28,11a352.57,352.57,0,0,1,41.75.65c9.29-1.05,18.57.64,27.8-.63-.27-14.79,1-29.63.46-44.42-18,.74-35.93-.81-53.85.94-3.66.64-7.4.53-11.08.92a4,4,0,0,1-5.43-1.11c-3.45-7.25,7.08-7.22,11.67-7.3,10.94-1.72,22-1.3,33-1.13,7.27-.48,14.74-.12,22-.15,4.26-.1,11.15-1.87,11.61,4.33.87,16.8-.8,33.62-.24,50.41.56,4.09-3.51,6.08-7.07,5.44C597.79,479.56,594.71,480.33,591.56,480.16Z"/><path d="M665.17,337.79a4.07,4.07,0,0,1-3.79-3.65,4.13,4.13,0,0,1,5-4.28c7.34-.77,14.71-.57,22.07-.67,9.1-.44,18.18-1.41,27.3-1.19,10.09-.82,20.16-1.82,30.31-1.36,2.11.07,4.54-.67,6.31.85,2.63,2.1,1.17,6.9-2.27,7-11.64-.1-23.18.51-34.77,1.49-7.8-.16-15.56.48-23.33,1C683.06,337.24,674.1,337.28,665.17,337.79Z"/><path d="M664.79,362.65a4.07,4.07,0,0,1-.93-6.68c6.68-3.21,14.82-2.9,22.14-3.21,9.54-.51,19.11-.7,28.62-1.74,7.43-.4,14.89-.22,22.32-.7,4.59.61,15.84-3.47,16.58,3a4,4,0,0,1-3.64,4.33c-5,.22-10.06.62-15.11.78-17.58.15-35.07,2.06-52.65,2.38a81,81,0,0,0-13.7,1.72A4,4,0,0,1,664.79,362.65Z"/><path d="M645.59,389.24c-5.18-.27-4.9-8.15.34-8a327.78,327.78,0,0,1,35.18-1.05c14.41-.69,28.65-1.36,43.07-1.46,9.52-.52,19-1.05,28.55-.36,5.17.28,4.91,8.17-.34,8-10.15-.81-20.24.12-30.38.4-9.52.38-19.06,0-28.55.89C677.49,388.52,661.51,387.76,645.59,389.24Z"/><path d="M650.1,427.93c-3.24.29-6.58-.41-6.57-4.18.46-5.19,6.59-3.59,10.19-3.82,7.42-.1,14.83-.37,22.23-.86,23.41.15,46.76-3.87,70.11-4,3.12-.22,7.7-.74,8.11,3.48s-4.24,4.65-7.45,4.49c-15.24.06-30.41,1.8-45.59,3C684.16,427.17,667.11,427.57,650.1,427.93Z"/><path d="M647.61,449.12c-5.18-.32-4.91-8.19.34-8,7.75.14,15.5-.68,23.24-1q37.17-1.53,74.34-3c5-.94,6.65,6.66,1.6,7.84C714,446.29,680.77,447.9,647.61,449.12Z"/><path d="M644.07,476.57c-5.18-.26-4.9-8.13.34-8,10.19.09,20.36-.81,30.55-.66,24.86-1.69,49.73-3,74.64-3.49,5.17-.36,5.92,7.49.69,8C714.84,472.82,679.52,476.41,644.07,476.57Z"/><path d="M786.76,403.84c-5.74,1.26-7.68-7.36-1.51-7.94,7,.51,14-.58,20.94-1.41,6.58-.29,13.12.66,19.71.15,15.43,0,30.64-1.57,45.89-2.89,22.32-.17,49.7-3.35,62.6-24,7.58-10.72,10.43-23.5,11.85-36.33,3.15-18.22,2.25-37.42,5-55.55C953.11,260.78,958.07,245,969,234c9.6-9.2,20.87-17.54,34.46-19,8.91-2.45,18.1-2.36,27.19-1.11a4.21,4.21,0,0,1,5.05,3.83c-.76,8.17-14.25,1.78-19.62,3.25-8.54,1.38-17.57,2.11-25.29,6.29-13.34,7.57-23.9,18.82-28.25,33.68-5.93,18.36-4.37,37.79-6.61,56.7-3.53,51.72-20.39,79.3-75.37,82-16-.17-31.74,3.07-47.68,2.81-9,.79-18-.15-27,.12C799.5,403.33,793.17,404.52,786.76,403.84Z"/><path d="M1030,230.75c-1.25-5.64-.24-11.61-.46-17.37.07-2.6.08-5.34,1-7.79a4.16,4.16,0,0,1,6-4.65c2.2,1.44,3.36,4,5.7,5.36,2.94,1.82,6,3.53,9.08,5,3.47.91,7.69,4.06,4.94,7.9-4.31,3.78-9.69,6.35-14,9.93C1038.92,231.71,1032.83,236.43,1030,230.75Z"/><path d="M790.93,252c.14-6.6,0-13.21-.29-19.81-.91.63-1.79,1.29-2.69,1.92l.39-.28h0c-5,3.63-9.49-4.26-3.92-7,7-5.6,15.52-8,14.18,4.34.27,6.4.53,12.81.31,19.21.41,2.58-1,5.39-3.84,5.48A4.07,4.07,0,0,1,790.93,252Z"/><path d="M784.39,257.87c-4-.27-4.87-6.2-1.22-7.63,2.3-1.15,4.92-.34,7.38-.67,3.73-.69,7.52-.64,11.29-1,5.2-.21,5.52,7.78.29,8C796.21,257,790.28,257.59,784.39,257.87Z"/><path d="M825.4,255.15c-19.3-2.33-9.3-31.15,3.06-29.84,4-1.09,8.08,2.46,10.1,5.68,2.05,3.88,1.82,8.74,1,12.93C837.68,249.83,831.87,255.43,825.4,255.15Zm.74-8c5.8-1,8.91-11.82,2.9-14.24a3.82,3.82,0,0,1-1.58.28C823.79,236.15,818.93,245.82,826.14,247.18Z"/><path d="M860.38,252.26c-.84-6.53,0-13.11.15-19.66-3.25,2-7.95,1.41-7.78-3.21.43-3.57,4.63-4,7.37-5,3.57-1.23,8.78-.5,8.65,4.23-.16,7.43-1.17,14.91-.5,22.34C869.06,256.07,861.3,257.41,860.38,252.26Z"/><path d="M853.81,257.31c-3.82-4.83,1.52-7.77,6.13-7.24,3.88-.79,7.69-1.34,11.63-.54,5.18.54,4.4,8.39-.8,8-4.38-1.05-8.54.72-12.93.69A4,4,0,0,1,853.81,257.31Z"/><path d="M881.94,250c-4.08-6.89,5.54-28.38,14.31-20.94,3.18-.79,5.86,2.23,7.4,4.67,2.56,4.16,1.6,9.64-.8,13.64C898.89,254.16,886.39,258.26,881.94,250Zm7.94-3.42c5.63.19,10.48-8,4.42-11.06a4,4,0,0,1-1.14.19,13.43,13.43,0,0,0-4.06,10.71A2.09,2.09,0,0,0,889.88,246.61Z"/><path d="M922,253.85c-13.7-1.32-6.91-22.12,3.46-23.22,3.75-3,10-1.73,12.47,2.32C942.59,242.33,932.36,255.69,922,253.85Zm2.3-7.86c4-.5,6.73-5.15,6.83-8.79a1.09,1.09,0,0,0-.43-.18,4,4,0,0,1-4.66,1.64c-2.53,1.28-3.21,4.52-3.77,7.07A5.82,5.82,0,0,0,924.33,246Z"/><path d="M814,28.08c-.21-4,.06-8,.15-12-.28-3.37,1.8-7.22,5.65-5.82a4.19,4.19,0,0,1,2.39,5.22c-.2,4.09-.4,8.21-.2,12.3C822.17,33,814.3,33.31,814,28.08Z"/><path d="M807.62,146.2c-1.77-4.13,0-9,.07-13.31.78-4,.08-8.71,2.07-12.38,2.85-3.81,8.83-.27,6.88,4-.72,6.16-1.44,12.35-1.77,18.55C816.11,147.32,809.87,150.06,807.62,146.2Z"/><path d="M748.1,84.71c-2.55-.08-6-1-6.8-3.84a4,4,0,0,1,2.64-5,4.13,4.13,0,0,1,3.76.76,54.51,54.51,0,0,0,8.08-.07c4.22.56,12.32-3.22,13.54,2.55.64,5.3-5.81,5-9.45,5.27C756,84.53,752,84.88,748.1,84.71Z"/><path d="M860.57,84.52A4,4,0,0,1,857,80.14c.35-3.29,3.49-3.79,6.1-3.69,6.61-1,13.36-.6,19.93-1.94,5.14-.85,6.48,6.93,1.34,7.88C876.49,83.64,868.49,84,860.57,84.52Z"/><path d="M781.82,44.32c-6.24-1.26-11.06-5.61-16-9.25-6.19-3.09-.62-12.34,7.2-4.65,3.23,2.54,6.53,5.28,10.67,6.12C788.77,37.83,786.89,45.5,781.82,44.32Z"/><path d="M858.23,121.89A69,69,0,0,0,845.91,111c-4.16-1.86-2.8-8.2,1.87-7.81,6.23,2.58,11.32,8.13,16,12.9C867.49,119.7,862.07,125.44,858.23,121.89Z"/><path d="M762,129.26a4.05,4.05,0,0,1-3.58-4.39c.54-4.19,10.55-7.24,13.69-11,3.1-2.81,6.94-10.65,11.62-5.92,3,4-2.49,7-4.48,10a40.9,40.9,0,0,1-9.65,7.5C766.82,126.75,764.92,129.24,762,129.26Z"/><path d="M847.51,49.06a4,4,0,0,1-2.76-5.39c1.35-2.48,4.33-3.53,6.17-5.66,3.23-3,6.5-6,9.74-9,1.12-1.06,2.24-2.33,3.92-2.33,3.42-.26,5.55,4.35,3,6.75-4.32,4-8.7,8-13,12C852.51,47.05,850.4,49.71,847.51,49.06Z"/><path d="M927.82,90.44c-3.35-1.78-6.59-3.76-10-5.4-3.67-1.27-9.6-2.2-7.88-7.54,1.43-3.14,4.66-5,7-7.46,2.72-2.69,5.35-5.47,8.1-8.12a20.65,20.65,0,0,1,2.41-2.36c3.13-2.21,7.5,1.56,5.82,4.93,1.1,4.53-.18,9.43.74,14.07.26,2.52,1.08,5,1,7.54C935,89.7,931,92.39,927.82,90.44Z"/><path d="M1146.18,123.38c2.67-56.39-26.1-56.82-72.87-55.11-17.55.79-35,2.64-52.39,4.47-14.36.54-28.49,3.43-42.84,3.44-11.57.83-23.1,2.45-34.72,2.33-5.14.12-11.39,2.7-15.87-.73-3-3.16.78-8.29,4.7-6.39,7.33-.37,14.68-1,22-1.33,10.82-.34,21.52-2.27,32.38-2,7.81-.66,15.52-2.28,23.38-2.48,22-1.66,43.94-4.63,66.08-5.39,25.07-.33,59.55-3.43,72.14,23.62,4.94,10.09,5.8,21.62,6.1,32.7-.54,3.61,1.34,9.66-3.7,10.44A4.06,4.06,0,0,1,1146.18,123.38Z"/><path d="M1063.09,133.41c-5.15,0-5.27-7.94,0-8h42.45l165.17,0c5.13,0,5.29,7.94,0,8Z"/><path d="M1060,356.63a4,4,0,0,1,4-4h81.56l117.64,0a4,4,0,0,1,0,8l-122.69,0H1064A4,4,0,0,1,1060,356.63Z"/><path d="M1056.54,356V129.43c0-5.12,7.94-5.3,8,0V356C1064.5,361.1,1056.6,361.23,1056.54,356Z"/><path d="M1272.19,354.61V130c0-5.15,7.94-5.28,8,0V354.61C1280.14,359.73,1272.24,359.91,1272.19,354.61Z"/><path d="M1268.59,360.27c-6.21,1.33-8.33-7.28-1.82-8,4,.45,11.38-1.91,11.81,4C1278.36,361.53,1272.18,360.11,1268.59,360.27Z"/><path d="M1200.79,190.32c-2.77-1.61-2.12-4.9-.55-7.13,3-6.09,5-12.84,9.09-18.28,3.76-3.84,9.61,1.91,5.7,5.65-3.55,5.87-5.53,12.33-8.77,18.33A4,4,0,0,1,1200.79,190.32Z"/><path d="M1172.59,312.93c-13.61-.25-27.86-2.14-40-8.47-29.48-15.86-37.57-49.16-26.18-79.31,5.63-14.29,14.54-28.25,27.45-36.94,17.18-10,33.35-12.63,53-9.88,5,1.35,10.14,2,14.79,4.33,6.59,1.48,3.84,12.26-6.61,5.84-16.67-4.69-35.25-4.71-50.88,3.42-10.42,4.17-17.61,13.12-23.47,22.27-21,33.13-12.89,77.76,28.47,87.83,16.53,3.76,30.13,5.1,45.52-3.41,9.43-4.62,18.05-11.54,22.75-21.12,3.59-6.76,8.27-13.76,8-21.68,0-2.93.58-6.59,4.21-6.61a4,4,0,0,1,4,4c0,6.44-1.09,12.62-4.14,18.39-3.56,7.28-7.2,14.75-12.73,20.78C1206.28,303.11,1187.77,313.1,1172.59,312.93Z"/><path d="M1167.43,334.84c-8.94-.53-18.2.09-26.85-2.6-16.57-7.52-34-16.88-43.86-32.63a106.38,106.38,0,0,1-16.66-51,204.58,204.58,0,0,1,5.1-32,90.72,90.72,0,0,1,21-34.7,94.9,94.9,0,0,1,35.72-21.09c13.5-4.88,28.45-7.67,42.75-5.48,6.89,1.32,28.69,5.5,31.17,11.75,1.72,4.6-5.21,7.83-7.46,3.37a99.8,99.8,0,0,0-30.75-7.89,91.67,91.67,0,0,0-32.49,5.58,88.06,88.06,0,0,0-34,20.13c-6.09,5.8-9.83,13.42-14.1,20.54-6.37,12.17-7.23,26.36-8.88,39.78a107.46,107.46,0,0,0,4.87,25c4,9.5,7.84,19.42,14.69,27.3,10,11.17,23.07,18.22,36.6,24.05,6.81,1.79,13.43,1.11,20.31,1.82,18.26.38,37.49-2.37,52.75-13.09,12.41-11.36,25.74-23.85,30.3-40.59a61.65,61.65,0,0,0,1.22-20.76c-.79-3.17-2.53-6.83,1.67-8.4,8.82-1.86,6.51,18.17,6.21,23.36a50.32,50.32,0,0,1-8,23.07c-6.72,11.28-16.31,20.4-25.91,29.2C1206.89,331.25,1186.73,335,1167.43,334.84Z"/><path d="M1229.41,255.8c-1.68-6.42,10.5-7,14.57-9.11,2.15-.68,4.14-2.16,6.45-2.15a4,4,0,0,1,3.42,5.33c-1.67,4-12.75,5.67-16.8,7.53C1234.43,258.9,1230.53,259.33,1229.41,255.8Zm16.92-8.58a5.5,5.5,0,0,1,.44-.92l-.26.44-.19.45Z"/><path d="M1212.66,200.49c-4.94-3-.35-7.44,2.19-10.31,3.74-4.05,7-8.63,11.32-12.09,6.16-3.87,10,4.85,3.4,7.53-4,4.44-8,8.85-11.75,13.47A4,4,0,0,1,1212.66,200.49Zm12.8-21a4.1,4.1,0,0,1,1-1.27A3.88,3.88,0,0,0,1225.46,179.51Z"/><path d="M1249.32,226.77a69.58,69.58,0,0,0-13.26-33.48c-2.34-2.07-4.23-4.55-6.37-6.8a5,5,0,0,1-2-2.05c-1.84-3.64,3-7.36,5.92-5,3.36,2.43,5.58,6.07,8.7,8.8,4.39,5.61,7.34,12.27,10.5,18.62a81.75,81.75,0,0,1,4.14,17.48,4,4,0,0,1-2.62,5A4.08,4.08,0,0,1,1249.32,226.77Z"/><path d="M1228.66,235.24c-1.35-5.49,5.89-5.85,9.55-6.94,4.84-1.32,8.73-2.18,13.11-4.1,4.42-2.6,8.53,4,4.23,6.8-5.46,2.75-11.57,4-17.48,5.54C1234.9,237.46,1230.19,239.71,1228.66,235.24Z"/><path d="M1228.42,235.58c-.84-2.21-.61-4.63-1.11-6.93-1.82-6.22-3.65-12.46-7.87-17.52-1.75-2.88-3.15-5.65-5.44-8.09-1.28-1.54-2.13-2.38-2-4.28.16-3.38,4.94-5,7-2.27,3.44,3.67,5.7,8.08,8.45,12.22,2.86,3.25,4.2,7.4,5.59,11.42a48.55,48.55,0,0,1,2.9,12.84,4,4,0,0,1-7.5,2.61Z"/><path d="M1217.09,205.25a4,4,0,0,1,1.08-4.77c4.43-4.91,8.89-9.87,14.57-13.4,4.43-2.77,8.7,3.86,4.33,6.73a49.51,49.51,0,0,0-10.84,9.74C1223.9,206.75,1219.85,209.87,1217.09,205.25Z"/><path d="M1223.91,211.68c-4.17-4.32,2-7.55,5.26-9.6,3.48-2.22,6.78-4.68,10.16-7,4.42-2.78,8.7,3.84,4.34,6.72-4.78,3.41-9.29,6.48-14.16,9.66A4,4,0,0,1,1223.91,211.68Z"/><path d="M1228.17,217.76c-3.77-6.32,10.34-9.6,14.18-12.34,1.68-1.34,3.94-2.41,5.92-1a4.06,4.06,0,0,1-.28,6.85,34.1,34.1,0,0,1-4.81,2.65c-2.43,1.18-4.87,2.33-7.24,3.63C1233.55,219.34,1230.24,220.87,1228.17,217.76Z"/><path d="M1232.14,225.13c-1.33-6,7-5.93,10.92-7.39,3.81-1.21,11.38-3.36,11.39,2.92a4.22,4.22,0,0,1-4.69,3.7c-2.4.38-4.71,1.16-7.06,1.75C1239.14,226.8,1234,230.14,1232.14,225.13Z"/><path d="M1147.59,275.84a4,4,0,0,1-3.63-4.34c.32-3.8.46-7.61.58-11.42.5-11.61,1.16-23.23,1.85-34.84-2.2.73-4.28,2.4-6.7,2-3.37-.59-4.23-5.56-1.27-7.27,4.8-1.32,14.6-9.43,16.28-.68-.67,13.13-1.48,26.29-2.16,39.42-.08,4.51-.23,9-.61,13.52A4,4,0,0,1,1147.59,275.84Z"/><path d="M1157.16,279.72c-4.61-.07-9.1-1.31-13.69-1-4.13.27-14,2-13.8-4.31a4,4,0,0,1,4.34-3.63c4.21.79,8.4-.28,12.62-.06,5.28.39,10.54,1.45,15.85.84,5.23-.15,5.63,7.59.38,8A47.19,47.19,0,0,1,1157.16,279.72Z"/><path d="M1171.45,228.08c-3.73-.34-4.53-4.78-2.47-7.39a7.33,7.33,0,0,1,5.91-4.66c7-1.27,14.33.17,21.39.77,3.58.58,10-.47,9.72,4.88-1,6-8.47,2.8-12.56,2.84-5.56-.36-11.7-1.64-17.1-.61C1175.41,226,1174.15,228.4,1171.45,228.08Z"/><path d="M1186.1,282.77c-4.88-1.2-2.43-6.46-1.85-9.81,1.92-8.37,4.1-16.69,6.38-25,1.82-5.64,3.58-11.29,5.45-16.91,1.93-4.16,2.2-15.64,9.17-11.85,3.85,3.11-.29,8.24-.91,12-2,6.66-4.23,13.25-6.32,19.89-2,7.66-4,15.35-5.85,23.08C1191.4,277.71,1191.1,283.67,1186.1,282.77Z"/><path d="M1177.89,283.38a4,4,0,0,1-3.63-4.33c.22-2.65,2.71-3.89,5.13-3.67a43.66,43.66,0,0,1,17.71,0c5.07,1.19,3.33,8.88-1.78,7.8C1189.5,281.61,1183.72,283.14,1177.89,283.38Z"/><path d="M1204,252.25c-6-.55-12-.46-18-.91a4.49,4.49,0,0,1-3.6-1c-2.59-2.21-.93-6.94,2.52-6.94,5,.18,10.07.48,15.12.56,2.54.4,4.54-.17,6.43,1.39C1209.13,247.51,1207.47,252.26,1204,252.25Z"/><path d="M1157.08,279.15a18.6,18.6,0,0,1-7.28-3.31,23.92,23.92,0,0,1-2.15-1.73,15.09,15.09,0,0,1-10.37,3.74c-4.92-.46-4.68-7.83.25-8,6.39.74,8.52-11,14.39-4.49a6,6,0,0,1,.74,2.4,12,12,0,0,0,6.2,3.57C1164,272.55,1162.17,280.24,1157.08,279.15Z"/><path d="M1189.89,281.42a12.49,12.49,0,0,1-2.75-2.37l0,0c-3.18,2.84-10.77,4.64-10.77-1.66.31-3.89,4.18-3,6.29-5,1.54-1.52,2.36-3.82,4.57-4.53a4.18,4.18,0,0,1,5.31,2.68c.37,1.62,0,3.51,1.88,4.32C1202,276.73,1196.62,286.4,1189.89,281.42Z"/><path d="M977.21,461.68c-3.28-1.22-5.75-3.91-8.45-6a115.33,115.33,0,0,1-13.82-11.31c-4.79-4-5.24-8-2-13.18,3.67-6.2,8.39-11.38,12.82-16.85,2.45-3,5.19-5.74,7.39-8.91,3.09-4.2,9.53.34,6.53,4.62a34.26,34.26,0,0,1-2.48,3.27c-6.31,7.7-13.7,14.84-18.23,23.75,6.24,6.53,13.79,11.78,21,17.14C984.9,456,982.1,463.42,977.21,461.68Z"/><path d="M992.33,473a4.05,4.05,0,0,1-1-5.52c1.7-2.89,2.84-6.07,4.31-9.07,7.13-15.82,14.45-31.52,22.53-46.89a46.54,46.54,0,0,1,2.62-5.06c3.07-4.2,9.52.32,6.53,4.62-2.8,5.51-5.49,11.09-8.36,16.57-4.68,8.85-8.86,17.92-12.77,27.12-1.44,3.3-3.09,6.51-4.59,9.79C999.81,468.26,997.81,476.25,992.33,473Z"/><path d="M1038.84,467.85c-2.26-3.58,1.74-5.87,4-8,6.82-6.95,14.37-13.11,21.5-19.73-7.18-8.7-14.77-17.12-21-26.52-3.24-3.77,2.36-8.87,5.79-5.5a36.43,36.43,0,0,1,3.46,4.94c4.68,5.84,9.07,11.92,14.15,17.43,2.42,3.45,7.63,7,6.25,11.68-5.57,7.43-13.85,12.59-20.32,19.27C1048.94,464.27,1043.69,473.45,1038.84,467.85Z"/><path d="M1119.39,452.26c-1.68-13.21-.34-26.37-.06-39.54-.3-12-.15-24,.64-35.93.29-5.11.39-10.22.79-15.32a4.9,4.9,0,0,1,.81-4c4.3-4.4,8.42.27,7.11,5.41-1.61,22.81-1.42,45.63-1.89,68.46.07,5.67-.4,11.35,0,17,.2,1.81.78,3-.06,4.56C1125.27,455.94,1120.25,455.57,1119.39,452.26Z"/><path d="M1320.28,457.53c-66-1-133.11,2-198.63-1-2.56-2.21-.94-6.94,2.52-6.94h221.19c5.12-.32,5.61,7.84.39,8Z"/><path d="M1344.37,451q-1.87-65-3.84-130-.67-22.72-1.34-45.46a4.26,4.26,0,0,1,1-3.19,4,4,0,0,1,6.94,2.52q2.1,69.68,4.12,139.36l1.08,36.38C1352.64,455.76,1344.57,456.25,1344.37,451Z"/><path d="M1340.75,276.25q-30.37-.79-60.76-1.58c-3.45-.1-4.93-5-2.22-7.05a4.23,4.23,0,0,1,2.92-.92c13,.31,26,.67,38.93,1l21.83.57C1346.6,268.61,1345.92,276.78,1340.75,276.25Z"/><path d="M1306.94,346.06c-18-2.23-17.6-28.56-1.44-33.18,10.34-7.34,26,1.36,24.45,14.18C1329.35,338.93,1319.43,349.9,1306.94,346.06Zm5.36-7.27c6.92-.26,10.32-8.73,9.56-14.76-.71-3.91-5.26-6.43-9-5.71a4,4,0,0,1-4.1,2.63l-.15,0c-.25.35-.49.7-.72,1.06a4,4,0,0,1-4.36,1.52,11.31,11.31,0,0,0-1.29,11C1304.24,338,1308.67,338.37,1312.3,338.79Z"/><path d="M1122.07,426.34c-2.89-2.44-.76-5.84,1.31-8,3.36-3.77,6.85-7.43,10.43-11,8.24-8.24,16.17-16.81,24.8-24.66,10.8-9.6,20.76-20.84,32.55-29,3.89-1,6.67,4.26,3.61,6.85h0c.11-.12.22-.23.32-.35-17.9,15.62-35.32,31.94-51.91,49-4.17,4.21-8.15,8.19-12,12.5C1128.71,424.14,1126.13,429.48,1122.07,426.34Z"/><path d="M1268.81,409.5c-6.19-4.91-11.7-10.6-17.82-15.59-9.5-7.83-18.76-15.93-26.87-25.19-2.17-2-4.49-3.84-6.56-6-2.1-1.27-3.41-3.8-2-6.08,4.27-5.41,9,2.42,12.53,4.86,5.21,4.88,9.59,10.56,15.09,15.17,6.48,5.94,13.59,11.16,19.93,17.24,3.6,3.67,7.79,6.62,11.53,10.11C1278.17,407.89,1272.43,413.3,1268.81,409.5Z"/><path d="M1271.13,410.12c-5.05-5.34,11.26-15.15,14.32-19.4,3.67-3.93,7.1-8.07,10.88-11.9,1.66-2,3.92-4.34,6.72-3,3.87,2.09,2.42,5.88-.48,8.07-4.27,4.29-8.11,9-12.27,13.35-3.12,3.23-6.75,5.89-9.88,9.09C1278.13,409,1274.77,413.75,1271.13,410.12Z"/><path d="M1345.06,410c-3-.68-5-3.34-7.43-5.08-5.68-3.65-11.34-7.32-16.67-11.46-5.77-3.93-12.25-6.68-18-10.58-6.22-2.7-1.53-12.34,6.89-5.11,5,3.16,10.15,5.35,14.91,8.57,4,3,8,5.93,12.22,8.62a71.69,71.69,0,0,1,10.07,7.32,4,4,0,0,1-2,7.72Z"/><path d="M1135.4,455.13c-3-.07-4.44-3.13-3.76-5.8.26-5.82.86-11.64.67-17.47.29-4.87-1.94-22.46,7-18.46a4.16,4.16,0,0,1,1.54,5.14,73.87,73.87,0,0,0-.66,10.08,118.84,118.84,0,0,1-.28,15.33C1139.43,447.79,1141,454.9,1135.4,455.13Z"/><path d="M1145.07,453.06c-1.87-4-1.11-8.85-.83-13.14.58-6.33.56-12.69.72-19,.14-5.1.68-10.17,1-15.27.18-3.41-.56-9,4.31-9.07a4,4,0,0,1,3.91,4.09c-1,14.05-1.06,28.15-2.15,42.2-1,3.68,2,8.4-1.34,11.17A4,4,0,0,1,1145.07,453.06Z"/><path d="M1158.85,449.72c-.42-13.8.56-27.6.79-41.41.15-7,.68-13.89,1.43-20.8a4,4,0,0,1,4.57-3.34c4.81.75,3,6.81,2.82,9.83-1.11,15.82-1.37,31.7-1.73,47.54-.24,3.92,1.9,10.79-3.48,11.74A4,4,0,0,1,1158.85,449.72Z"/><path d="M1174.43,450.86c-.92-3.7.31-8.55-.08-12.07-.57-7.89-.09-15.75.29-23.63.39-15.3.56-30.65,2.59-45.84.86-5.12,8.66-4,7.91,1.23-2.55,20-2.14,40.2-3.12,60.29a159.61,159.61,0,0,1,.07,17.77,4,4,0,0,1-7.66,2.25Z"/><path d="M1190.4,453.7c-.53-7.16.55-14.42.56-21.62-.21-10.3.12-20.58.63-30.87,0-8.19-1.35-16.38-.3-24.56.85-5.9.66-12.1,2.41-17.81,2.29-4.8,9.46-1.42,7.27,3.45a146.71,146.71,0,0,0-1.44,35.89c.21,8.29-.86,16.54-.6,24.84.23,9.66-.49,19.3-.71,29C1199.22,457,1191.71,458.73,1190.4,453.7Z"/><path d="M1209.91,454.06c-3.24-.05-4.39-3.44-3.81-6.19a74.65,74.65,0,0,0,.43-12.05c-.93-23.11,0-46.15,1-69.23-.61-4.79,1.74-13.65,7.9-9a4,4,0,0,1,.26,5.1c-.37,4.37,0,8.8-.45,13.18-1,15.64-1.16,31.89-1,47.45.26,8.26.86,16.57-.1,24.8C1214.26,451,1213.31,454.05,1209.91,454.06Z"/><path d="M1223.11,451.29a6.74,6.74,0,0,1-.13-1.2l0-.8c0,.19,0,.35,0,.52,0-10.62.6-21.21-.56-31.81-.18-10.24-.54-20.49-.31-30.73.31-4.83,1-9.64.68-14.49-.54-11,12.79-7.94,8-.55a87.86,87.86,0,0,1-.55,12.85c-.56,11.18,0,22.39.17,33.57,1.25,10.24.53,20.5.54,30.77C1232.13,454.48,1224.36,456.4,1223.11,451.29Z"/><path d="M1237.41,454.24c-.9-9.77.42-20.34.31-30-.82-13.74-1.32-27.79.82-41.39,2.25-4.65,9.09-1.66,7.43,3.19-2,19,.42,38-.74,57-.14,2.78-.19,5.55-.1,8.33.07,1.61.42,2.74-.44,4.12C1243,458.37,1238,457.62,1237.41,454.24Z"/><path d="M1253.24,453.32c-1-7.75-.34-15.71-.5-23.54,0-10.84-1.19-22,1.17-32.65a4,4,0,0,1,5.29-2c3.22,1.42,2.15,4.81,1.81,7.5-1.17,14.15-.08,28.37-.23,42.55-.36,3.48,1.75,8.7-2.37,10.47A4,4,0,0,1,1253.24,453.32Z"/><path d="M1273.2,456.56c-6.34-.78-3.1-9-3.77-13.26a182.88,182.88,0,0,1,.47-25.32c.38-2.89.22-6,1.24-8.73,2.11-4.54,9.06-1.76,7.42,3a172.61,172.61,0,0,0-1.33,25.84c.3,4.86.19,9.72.06,14.59A4,4,0,0,1,1273.2,456.56Z"/><path d="M1283.07,451a189.22,189.22,0,0,1,.09-32.81c.91-6.54.1-23,4.51-27.25,3.21-2.37,7.9,1.27,6.16,4.94-1.44,3-1.28,6.57-1.8,9.83-.78,11.06-1.68,22.14-1.72,33.24.22,3.73.53,7.46.72,11.2a4.2,4.2,0,0,1-.9,3C1288.08,455.79,1283.26,454.4,1283.07,451Z"/><path d="M1298.41,453.79c-.23-6,.94-12,.71-18-.36-8.23.54-16.42.55-24.64a230.6,230.6,0,0,1,.73-28.8c.86-4.91,8.24-4.12,8,.87a219.16,219.16,0,0,0-.73,26.14c.08,10.21-.82,20.4-.57,30.61-.4,5,0,10.22-1.37,15C1304,457.93,1299,457.17,1298.41,453.79Z"/><path d="M1315.47,453.67c-1.57-9.46.29-19,.13-28.48-.58-6-1.25-12-.75-18,.68-6.12-1-13.33,2.38-18.75a4,4,0,0,1,5.63-.53c2.79,2.3.54,5,.41,7.77a198.48,198.48,0,0,0,.4,31.79c.14,6.17-1.4,12.25-.67,18.43-.43,3.64,2.15,9.37-2.71,10.73A4.06,4.06,0,0,1,1315.47,453.67Z"/><path d="M1328.73,453.76c0-5.86,1.84-11.62,1.83-17.48a132.93,132.93,0,0,1-.42-29.64c.29-3.94.48-9.29,6-7.6,3.46,1.52,2.16,5.61,1.9,8.53s-.24,5.67-.42,8.49c-1.22,9.62,2.24,19.15.09,28.7-1.43,4,.81,11.71-4.62,12.55A4.06,4.06,0,0,1,1328.73,453.76Z"/><path d="M1304.08,341c-.93-1.58-.86-3.54-.87-5.3a112.22,112.22,0,0,1,.16-12.44c0-3.95.33-10.3,6-8.41,3.74,1.66,1.81,6.2,1.94,9.29-.41,4.35-.09,8.7-.09,13.06a4.24,4.24,0,0,1-1.74,5.44A4.06,4.06,0,0,1,1304.08,341Z"/><path d="M1315.78,337.38a61.31,61.31,0,0,1-1-18c-.64-9,11.36-7.86,8-.21a55.27,55.27,0,0,0,.55,15.19c.29,1.43.58,2.94-.29,4.24C1321.38,341.52,1316.4,340.76,1315.78,337.38Z"/><path d="M627.21,99.47q-109.43-2.86-218.82-5.68c-4.86-.26-4.52-8,.21-8l181.26,4.7q18.51.49,37,1a4.25,4.25,0,0,1,2.9,1.08C632.32,94.76,630.66,99.53,627.21,99.47Z"/></g></svg>